<?xml version="1.0" encoding="utf-8" standalone="no"?>
<!DOCTYPE svg PUBLIC "-//W3C//DTD SVG 1.1//EN"
  "http://www.w3.org/Graphics/SVG/1.1/DTD/svg11.dtd">
<svg xmlns:xlink="http://www.w3.org/1999/xlink" width="460.8pt" height="345.6pt" viewBox="0 0 460.8 345.6" xmlns="http://www.w3.org/2000/svg" version="1.1">
 <metadata>
  <rdf:RDF xmlns:dc="http://purl.org/dc/elements/1.1/" xmlns:cc="http://creativecommons.org/ns#" xmlns:rdf="http://www.w3.org/1999/02/22-rdf-syntax-ns#">
   <cc:Work>
    <dc:type rdf:resource="http://purl.org/dc/dcmitype/StillImage"/>
    <dc:date>2024-01-07T19:13:03.693353</dc:date>
    <dc:format>image/svg+xml</dc:format>
    <dc:creator>
     <cc:Agent>
      <dc:title>Matplotlib v3.8.0, https://matplotlib.org/</dc:title>
     </cc:Agent>
    </dc:creator>
   </cc:Work>
  </rdf:RDF>
 </metadata>
 <defs>
  <style type="text/css">*{stroke-linejoin: round; stroke-linecap: butt}</style>
 </defs>
 <g id="figure_1">
  <g id="patch_1">
   <path d="M 0 345.6 
L 460.8 345.6 
L 460.8 0 
L 0 0 
z
" style="fill: #ffffff"/>
  </g>
  <g id="axes_1">
   <g id="patch_2">
    <path d="M 57.6 307.584 
L 414.72 307.584 
L 414.72 41.472 
L 57.6 41.472 
z
" style="fill: #ffffff"/>
   </g>
   <g id="matplotlib.axis_1">
    <g id="xtick_1">
     <g id="line2d_1">
      <defs>
       <path id="m848698699e" d="M 0 0 
L 0 3.5 
" style="stroke: #000000; stroke-width: 0.8"/>
      </defs>
      <g>
       <use xlink:href="#m848698699e" x="73.832727" y="307.584" style="stroke: #000000; stroke-width: 0.8"/>
      </g>
     </g>
     <g id="text_1">
      <!-- 0 -->
      <g transform="translate(70.651477 322.182437) scale(0.1 -0.1)">
       <defs>
        <path id="DejaVuSans-30" d="M 2034 4250 
Q 1547 4250 1301 3770 
Q 1056 3291 1056 2328 
Q 1056 1369 1301 889 
Q 1547 409 2034 409 
Q 2525 409 2770 889 
Q 3016 1369 3016 2328 
Q 3016 3291 2770 3770 
Q 2525 4250 2034 4250 
z
M 2034 4750 
Q 2819 4750 3233 4129 
Q 3647 3509 3647 2328 
Q 3647 1150 3233 529 
Q 2819 -91 2034 -91 
Q 1250 -91 836 529 
Q 422 1150 422 2328 
Q 422 3509 836 4129 
Q 1250 4750 2034 4750 
z
" transform="scale(0.015625)"/>
       </defs>
       <use xlink:href="#DejaVuSans-30"/>
      </g>
     </g>
    </g>
    <g id="xtick_2">
     <g id="line2d_2">
      <g>
       <use xlink:href="#m848698699e" x="138.828632" y="307.584" style="stroke: #000000; stroke-width: 0.8"/>
      </g>
     </g>
     <g id="text_2">
      <!-- 200 -->
      <g transform="translate(129.284882 322.182437) scale(0.1 -0.1)">
       <defs>
        <path id="DejaVuSans-32" d="M 1228 531 
L 3431 531 
L 3431 0 
L 469 0 
L 469 531 
Q 828 903 1448 1529 
Q 2069 2156 2228 2338 
Q 2531 2678 2651 2914 
Q 2772 3150 2772 3378 
Q 2772 3750 2511 3984 
Q 2250 4219 1831 4219 
Q 1534 4219 1204 4116 
Q 875 4013 500 3803 
L 500 4441 
Q 881 4594 1212 4672 
Q 1544 4750 1819 4750 
Q 2544 4750 2975 4387 
Q 3406 4025 3406 3419 
Q 3406 3131 3298 2873 
Q 3191 2616 2906 2266 
Q 2828 2175 2409 1742 
Q 1991 1309 1228 531 
z
" transform="scale(0.015625)"/>
       </defs>
       <use xlink:href="#DejaVuSans-32"/>
       <use xlink:href="#DejaVuSans-30" x="63.623047"/>
       <use xlink:href="#DejaVuSans-30" x="127.246094"/>
      </g>
     </g>
    </g>
    <g id="xtick_3">
     <g id="line2d_3">
      <g>
       <use xlink:href="#m848698699e" x="203.824537" y="307.584" style="stroke: #000000; stroke-width: 0.8"/>
      </g>
     </g>
     <g id="text_3">
      <!-- 400 -->
      <g transform="translate(194.280787 322.182437) scale(0.1 -0.1)">
       <defs>
        <path id="DejaVuSans-34" d="M 2419 4116 
L 825 1625 
L 2419 1625 
L 2419 4116 
z
M 2253 4666 
L 3047 4666 
L 3047 1625 
L 3713 1625 
L 3713 1100 
L 3047 1100 
L 3047 0 
L 2419 0 
L 2419 1100 
L 313 1100 
L 313 1709 
L 2253 4666 
z
" transform="scale(0.015625)"/>
       </defs>
       <use xlink:href="#DejaVuSans-34"/>
       <use xlink:href="#DejaVuSans-30" x="63.623047"/>
       <use xlink:href="#DejaVuSans-30" x="127.246094"/>
      </g>
     </g>
    </g>
    <g id="xtick_4">
     <g id="line2d_4">
      <g>
       <use xlink:href="#m848698699e" x="268.820442" y="307.584" style="stroke: #000000; stroke-width: 0.8"/>
      </g>
     </g>
     <g id="text_4">
      <!-- 600 -->
      <g transform="translate(259.276692 322.182437) scale(0.1 -0.1)">
       <defs>
        <path id="DejaVuSans-36" d="M 2113 2584 
Q 1688 2584 1439 2293 
Q 1191 2003 1191 1497 
Q 1191 994 1439 701 
Q 1688 409 2113 409 
Q 2538 409 2786 701 
Q 3034 994 3034 1497 
Q 3034 2003 2786 2293 
Q 2538 2584 2113 2584 
z
M 3366 4563 
L 3366 3988 
Q 3128 4100 2886 4159 
Q 2644 4219 2406 4219 
Q 1781 4219 1451 3797 
Q 1122 3375 1075 2522 
Q 1259 2794 1537 2939 
Q 1816 3084 2150 3084 
Q 2853 3084 3261 2657 
Q 3669 2231 3669 1497 
Q 3669 778 3244 343 
Q 2819 -91 2113 -91 
Q 1303 -91 875 529 
Q 447 1150 447 2328 
Q 447 3434 972 4092 
Q 1497 4750 2381 4750 
Q 2619 4750 2861 4703 
Q 3103 4656 3366 4563 
z
" transform="scale(0.015625)"/>
       </defs>
       <use xlink:href="#DejaVuSans-36"/>
       <use xlink:href="#DejaVuSans-30" x="63.623047"/>
       <use xlink:href="#DejaVuSans-30" x="127.246094"/>
      </g>
     </g>
    </g>
    <g id="xtick_5">
     <g id="line2d_5">
      <g>
       <use xlink:href="#m848698699e" x="333.816347" y="307.584" style="stroke: #000000; stroke-width: 0.8"/>
      </g>
     </g>
     <g id="text_5">
      <!-- 800 -->
      <g transform="translate(324.272597 322.182437) scale(0.1 -0.1)">
       <defs>
        <path id="DejaVuSans-38" d="M 2034 2216 
Q 1584 2216 1326 1975 
Q 1069 1734 1069 1313 
Q 1069 891 1326 650 
Q 1584 409 2034 409 
Q 2484 409 2743 651 
Q 3003 894 3003 1313 
Q 3003 1734 2745 1975 
Q 2488 2216 2034 2216 
z
M 1403 2484 
Q 997 2584 770 2862 
Q 544 3141 544 3541 
Q 544 4100 942 4425 
Q 1341 4750 2034 4750 
Q 2731 4750 3128 4425 
Q 3525 4100 3525 3541 
Q 3525 3141 3298 2862 
Q 3072 2584 2669 2484 
Q 3125 2378 3379 2068 
Q 3634 1759 3634 1313 
Q 3634 634 3220 271 
Q 2806 -91 2034 -91 
Q 1263 -91 848 271 
Q 434 634 434 1313 
Q 434 1759 690 2068 
Q 947 2378 1403 2484 
z
M 1172 3481 
Q 1172 3119 1398 2916 
Q 1625 2713 2034 2713 
Q 2441 2713 2670 2916 
Q 2900 3119 2900 3481 
Q 2900 3844 2670 4047 
Q 2441 4250 2034 4250 
Q 1625 4250 1398 4047 
Q 1172 3844 1172 3481 
z
" transform="scale(0.015625)"/>
       </defs>
       <use xlink:href="#DejaVuSans-38"/>
       <use xlink:href="#DejaVuSans-30" x="63.623047"/>
       <use xlink:href="#DejaVuSans-30" x="127.246094"/>
      </g>
     </g>
    </g>
    <g id="xtick_6">
     <g id="line2d_6">
      <g>
       <use xlink:href="#m848698699e" x="398.812252" y="307.584" style="stroke: #000000; stroke-width: 0.8"/>
      </g>
     </g>
     <g id="text_6">
      <!-- 1000 -->
      <g transform="translate(386.087252 322.182437) scale(0.1 -0.1)">
       <defs>
        <path id="DejaVuSans-31" d="M 794 531 
L 1825 531 
L 1825 4091 
L 703 3866 
L 703 4441 
L 1819 4666 
L 2450 4666 
L 2450 531 
L 3481 531 
L 3481 0 
L 794 0 
L 794 531 
z
" transform="scale(0.015625)"/>
       </defs>
       <use xlink:href="#DejaVuSans-31"/>
       <use xlink:href="#DejaVuSans-30" x="63.623047"/>
       <use xlink:href="#DejaVuSans-30" x="127.246094"/>
       <use xlink:href="#DejaVuSans-30" x="190.869141"/>
      </g>
     </g>
    </g>
    <g id="text_7">
     <!-- Момент времени $t$ -->
     <g transform="translate(188.01 335.84025) scale(0.1 -0.1)">
      <defs>
       <path id="DejaVuSans-41c" d="M 628 4666 
L 1569 4666 
L 2759 1491 
L 3956 4666 
L 4897 4666 
L 4897 0 
L 4281 0 
L 4281 4097 
L 3078 897 
L 2444 897 
L 1241 4097 
L 1241 0 
L 628 0 
L 628 4666 
z
" transform="scale(0.015625)"/>
       <path id="DejaVuSans-43e" d="M 1959 3097 
Q 1497 3097 1228 2736 
Q 959 2375 959 1747 
Q 959 1119 1226 758 
Q 1494 397 1959 397 
Q 2419 397 2687 759 
Q 2956 1122 2956 1747 
Q 2956 2369 2687 2733 
Q 2419 3097 1959 3097 
z
M 1959 3584 
Q 2709 3584 3137 3096 
Q 3566 2609 3566 1747 
Q 3566 888 3137 398 
Q 2709 -91 1959 -91 
Q 1206 -91 779 398 
Q 353 888 353 1747 
Q 353 2609 779 3096 
Q 1206 3584 1959 3584 
z
" transform="scale(0.015625)"/>
       <path id="DejaVuSans-43c" d="M 581 3500 
L 1422 3500 
L 2416 1156 
L 3413 3500 
L 4247 3500 
L 4247 0 
L 3669 0 
L 3669 2950 
L 2703 672 
L 2128 672 
L 1159 2950 
L 1159 0 
L 581 0 
L 581 3500 
z
" transform="scale(0.015625)"/>
       <path id="DejaVuSans-435" d="M 3597 1894 
L 3597 1613 
L 953 1613 
Q 991 1019 1311 708 
Q 1631 397 2203 397 
Q 2534 397 2845 478 
Q 3156 559 3463 722 
L 3463 178 
Q 3153 47 2828 -22 
Q 2503 -91 2169 -91 
Q 1331 -91 842 396 
Q 353 884 353 1716 
Q 353 2575 817 3079 
Q 1281 3584 2069 3584 
Q 2775 3584 3186 3129 
Q 3597 2675 3597 1894 
z
M 3022 2063 
Q 3016 2534 2758 2815 
Q 2500 3097 2075 3097 
Q 1594 3097 1305 2825 
Q 1016 2553 972 2059 
L 3022 2063 
z
" transform="scale(0.015625)"/>
       <path id="DejaVuSans-43d" d="M 581 3500 
L 1159 3500 
L 1159 2072 
L 3025 2072 
L 3025 3500 
L 3603 3500 
L 3603 0 
L 3025 0 
L 3025 1613 
L 1159 1613 
L 1159 0 
L 581 0 
L 581 3500 
z
" transform="scale(0.015625)"/>
       <path id="DejaVuSans-442" d="M 188 3500 
L 3541 3500 
L 3541 3041 
L 2147 3041 
L 2147 0 
L 1581 0 
L 1581 3041 
L 188 3041 
L 188 3500 
z
" transform="scale(0.015625)"/>
       <path id="DejaVuSans-20" transform="scale(0.015625)"/>
       <path id="DejaVuSans-432" d="M 1156 1613 
L 1156 459 
L 1975 459 
Q 2369 459 2575 607 
Q 2781 756 2781 1038 
Q 2781 1319 2575 1466 
Q 2369 1613 1975 1613 
L 1156 1613 
z
M 1156 3041 
L 1156 2072 
L 1913 2072 
Q 2238 2072 2444 2201 
Q 2650 2331 2650 2563 
Q 2650 2794 2444 2917 
Q 2238 3041 1913 3041 
L 1156 3041 
z
M 581 3500 
L 1950 3500 
Q 2566 3500 2897 3275 
Q 3228 3050 3228 2634 
Q 3228 2313 3059 2123 
Q 2891 1934 2559 1888 
Q 2956 1813 3175 1575 
Q 3394 1338 3394 981 
Q 3394 513 3033 256 
Q 2672 0 2003 0 
L 581 0 
L 581 3500 
z
" transform="scale(0.015625)"/>
       <path id="DejaVuSans-440" d="M 1159 525 
L 1159 -1331 
L 581 -1331 
L 581 3500 
L 1159 3500 
L 1159 2969 
Q 1341 3281 1617 3432 
Q 1894 3584 2278 3584 
Q 2916 3584 3314 3078 
Q 3713 2572 3713 1747 
Q 3713 922 3314 415 
Q 2916 -91 2278 -91 
Q 1894 -91 1617 61 
Q 1341 213 1159 525 
z
M 3116 1747 
Q 3116 2381 2855 2742 
Q 2594 3103 2138 3103 
Q 1681 3103 1420 2742 
Q 1159 2381 1159 1747 
Q 1159 1113 1420 752 
Q 1681 391 2138 391 
Q 2594 391 2855 752 
Q 3116 1113 3116 1747 
z
" transform="scale(0.015625)"/>
       <path id="DejaVuSans-438" d="M 3578 3500 
L 3578 0 
L 3006 0 
L 3006 2809 
L 1319 0 
L 581 0 
L 581 3500 
L 1153 3500 
L 1153 697 
L 2838 3500 
L 3578 3500 
z
" transform="scale(0.015625)"/>
       <path id="DejaVuSans-Oblique-74" d="M 2706 3500 
L 2619 3053 
L 1472 3053 
L 1100 1153 
Q 1081 1047 1072 975 
Q 1063 903 1063 863 
Q 1063 663 1183 572 
Q 1303 481 1569 481 
L 2150 481 
L 2053 0 
L 1503 0 
Q 991 0 739 200 
Q 488 400 488 806 
Q 488 878 497 964 
Q 506 1050 525 1153 
L 897 3053 
L 409 3053 
L 500 3500 
L 978 3500 
L 1172 4494 
L 1747 4494 
L 1556 3500 
L 2706 3500 
z
" transform="scale(0.015625)"/>
      </defs>
      <use xlink:href="#DejaVuSans-41c" transform="translate(0 0.09375)"/>
      <use xlink:href="#DejaVuSans-43e" transform="translate(86.279297 0.09375)"/>
      <use xlink:href="#DejaVuSans-43c" transform="translate(147.460938 0.09375)"/>
      <use xlink:href="#DejaVuSans-435" transform="translate(222.900391 0.09375)"/>
      <use xlink:href="#DejaVuSans-43d" transform="translate(284.423828 0.09375)"/>
      <use xlink:href="#DejaVuSans-442" transform="translate(349.804688 0.09375)"/>
      <use xlink:href="#DejaVuSans-20" transform="translate(408.056641 0.09375)"/>
      <use xlink:href="#DejaVuSans-432" transform="translate(439.84375 0.09375)"/>
      <use xlink:href="#DejaVuSans-440" transform="translate(498.779297 0.09375)"/>
      <use xlink:href="#DejaVuSans-435" transform="translate(562.255859 0.09375)"/>
      <use xlink:href="#DejaVuSans-43c" transform="translate(623.779297 0.09375)"/>
      <use xlink:href="#DejaVuSans-435" transform="translate(699.21875 0.09375)"/>
      <use xlink:href="#DejaVuSans-43d" transform="translate(760.742188 0.09375)"/>
      <use xlink:href="#DejaVuSans-438" transform="translate(826.123047 0.09375)"/>
      <use xlink:href="#DejaVuSans-20" transform="translate(891.113281 0.09375)"/>
      <use xlink:href="#DejaVuSans-Oblique-74" transform="translate(922.900391 0.09375)"/>
     </g>
    </g>
   </g>
   <g id="matplotlib.axis_2">
    <g id="ytick_1">
     <g id="line2d_7">
      <defs>
       <path id="mbc4fd03104" d="M 0 0 
L -3.5 0 
" style="stroke: #000000; stroke-width: 0.8"/>
      </defs>
      <g>
       <use xlink:href="#mbc4fd03104" x="57.6" y="283.844914" style="stroke: #000000; stroke-width: 0.8"/>
      </g>
     </g>
     <g id="text_8">
      <!-- −1 -->
      <g transform="translate(35.857813 287.644132) scale(0.1 -0.1)">
       <defs>
        <path id="DejaVuSans-2212" d="M 678 2272 
L 4684 2272 
L 4684 1741 
L 678 1741 
L 678 2272 
z
" transform="scale(0.015625)"/>
       </defs>
       <use xlink:href="#DejaVuSans-2212"/>
       <use xlink:href="#DejaVuSans-31" x="83.789062"/>
      </g>
     </g>
    </g>
    <g id="ytick_2">
     <g id="line2d_8">
      <g>
       <use xlink:href="#mbc4fd03104" x="57.6" y="251.052138" style="stroke: #000000; stroke-width: 0.8"/>
      </g>
     </g>
     <g id="text_9">
      <!-- 0 -->
      <g transform="translate(44.2375 254.851357) scale(0.1 -0.1)">
       <use xlink:href="#DejaVuSans-30"/>
      </g>
     </g>
    </g>
    <g id="ytick_3">
     <g id="line2d_9">
      <g>
       <use xlink:href="#mbc4fd03104" x="57.6" y="218.259363" style="stroke: #000000; stroke-width: 0.8"/>
      </g>
     </g>
     <g id="text_10">
      <!-- 1 -->
      <g transform="translate(44.2375 222.058582) scale(0.1 -0.1)">
       <use xlink:href="#DejaVuSans-31"/>
      </g>
     </g>
    </g>
    <g id="ytick_4">
     <g id="line2d_10">
      <g>
       <use xlink:href="#mbc4fd03104" x="57.6" y="185.466588" style="stroke: #000000; stroke-width: 0.8"/>
      </g>
     </g>
     <g id="text_11">
      <!-- 2 -->
      <g transform="translate(44.2375 189.265806) scale(0.1 -0.1)">
       <use xlink:href="#DejaVuSans-32"/>
      </g>
     </g>
    </g>
    <g id="ytick_5">
     <g id="line2d_11">
      <g>
       <use xlink:href="#mbc4fd03104" x="57.6" y="152.673812" style="stroke: #000000; stroke-width: 0.8"/>
      </g>
     </g>
     <g id="text_12">
      <!-- 3 -->
      <g transform="translate(44.2375 156.473031) scale(0.1 -0.1)">
       <defs>
        <path id="DejaVuSans-33" d="M 2597 2516 
Q 3050 2419 3304 2112 
Q 3559 1806 3559 1356 
Q 3559 666 3084 287 
Q 2609 -91 1734 -91 
Q 1441 -91 1130 -33 
Q 819 25 488 141 
L 488 750 
Q 750 597 1062 519 
Q 1375 441 1716 441 
Q 2309 441 2620 675 
Q 2931 909 2931 1356 
Q 2931 1769 2642 2001 
Q 2353 2234 1838 2234 
L 1294 2234 
L 1294 2753 
L 1863 2753 
Q 2328 2753 2575 2939 
Q 2822 3125 2822 3475 
Q 2822 3834 2567 4026 
Q 2313 4219 1838 4219 
Q 1578 4219 1281 4162 
Q 984 4106 628 3988 
L 628 4550 
Q 988 4650 1302 4700 
Q 1616 4750 1894 4750 
Q 2613 4750 3031 4423 
Q 3450 4097 3450 3541 
Q 3450 3153 3228 2886 
Q 3006 2619 2597 2516 
z
" transform="scale(0.015625)"/>
       </defs>
       <use xlink:href="#DejaVuSans-33"/>
      </g>
     </g>
    </g>
    <g id="ytick_6">
     <g id="line2d_12">
      <g>
       <use xlink:href="#mbc4fd03104" x="57.6" y="119.881037" style="stroke: #000000; stroke-width: 0.8"/>
      </g>
     </g>
     <g id="text_13">
      <!-- 4 -->
      <g transform="translate(44.2375 123.680256) scale(0.1 -0.1)">
       <use xlink:href="#DejaVuSans-34"/>
      </g>
     </g>
    </g>
    <g id="ytick_7">
     <g id="line2d_13">
      <g>
       <use xlink:href="#mbc4fd03104" x="57.6" y="87.088261" style="stroke: #000000; stroke-width: 0.8"/>
      </g>
     </g>
     <g id="text_14">
      <!-- 5 -->
      <g transform="translate(44.2375 90.88748) scale(0.1 -0.1)">
       <defs>
        <path id="DejaVuSans-35" d="M 691 4666 
L 3169 4666 
L 3169 4134 
L 1269 4134 
L 1269 2991 
Q 1406 3038 1543 3061 
Q 1681 3084 1819 3084 
Q 2600 3084 3056 2656 
Q 3513 2228 3513 1497 
Q 3513 744 3044 326 
Q 2575 -91 1722 -91 
Q 1428 -91 1123 -41 
Q 819 9 494 109 
L 494 744 
Q 775 591 1075 516 
Q 1375 441 1709 441 
Q 2250 441 2565 725 
Q 2881 1009 2881 1497 
Q 2881 1984 2565 2268 
Q 2250 2553 1709 2553 
Q 1456 2553 1204 2497 
Q 953 2441 691 2322 
L 691 4666 
z
" transform="scale(0.015625)"/>
       </defs>
       <use xlink:href="#DejaVuSans-35"/>
      </g>
     </g>
    </g>
    <g id="ytick_8">
     <g id="line2d_14">
      <g>
       <use xlink:href="#mbc4fd03104" x="57.6" y="54.295486" style="stroke: #000000; stroke-width: 0.8"/>
      </g>
     </g>
     <g id="text_15">
      <!-- 6 -->
      <g transform="translate(44.2375 58.094705) scale(0.1 -0.1)">
       <use xlink:href="#DejaVuSans-36"/>
      </g>
     </g>
    </g>
    <g id="text_16">
     <!-- Значения ряда -->
     <g transform="translate(29.778125 213.914719) rotate(-90) scale(0.1 -0.1)">
      <defs>
       <path id="DejaVuSans-417" d="M 1828 4750 
Q 2597 4750 3084 4423 
Q 3572 4097 3572 3541 
Q 3572 3153 3350 2886 
Q 3128 2619 2719 2516 
Q 3172 2419 3426 2112 
Q 3681 1806 3681 1356 
Q 3681 638 3126 273 
Q 2572 -91 1828 -91 
Q 1447 -91 1003 12 
Q 559 116 422 203 
L 422 853 
Q 900 575 1164 508 
Q 1428 441 1816 441 
Q 2403 441 2728 666 
Q 3053 891 3053 1356 
Q 3053 1769 2764 2001 
Q 2475 2234 1866 2234 
L 1228 2234 
L 1228 2753 
L 1891 2753 
Q 2450 2753 2697 2939 
Q 2944 3125 2944 3475 
Q 2944 3834 2689 4026 
Q 2434 4219 1816 4219 
Q 1397 4219 1253 4181 
Q 1109 4144 469 3903 
L 469 4519 
Q 822 4644 1190 4697 
Q 1559 4750 1828 4750 
z
" transform="scale(0.015625)"/>
       <path id="DejaVuSans-430" d="M 2194 1759 
Q 1497 1759 1228 1600 
Q 959 1441 959 1056 
Q 959 750 1161 570 
Q 1363 391 1709 391 
Q 2188 391 2477 730 
Q 2766 1069 2766 1631 
L 2766 1759 
L 2194 1759 
z
M 3341 1997 
L 3341 0 
L 2766 0 
L 2766 531 
Q 2569 213 2275 61 
Q 1981 -91 1556 -91 
Q 1019 -91 701 211 
Q 384 513 384 1019 
Q 384 1609 779 1909 
Q 1175 2209 1959 2209 
L 2766 2209 
L 2766 2266 
Q 2766 2663 2505 2880 
Q 2244 3097 1772 3097 
Q 1472 3097 1187 3025 
Q 903 2953 641 2809 
L 641 3341 
Q 956 3463 1253 3523 
Q 1550 3584 1831 3584 
Q 2591 3584 2966 3190 
Q 3341 2797 3341 1997 
z
" transform="scale(0.015625)"/>
       <path id="DejaVuSans-447" d="M 2625 0 
L 2625 1472 
L 1553 1472 
Q 1075 1472 756 1769 
Q 469 2038 469 2613 
L 469 3500 
L 1044 3500 
L 1044 2666 
Q 1044 2300 1206 2116 
Q 1372 1931 1697 1931 
L 2625 1931 
L 2625 3500 
L 3200 3500 
L 3200 0 
L 2625 0 
z
" transform="scale(0.015625)"/>
       <path id="DejaVuSans-44f" d="M 1181 2491 
Q 1181 2231 1381 2084 
Q 1581 1938 1953 1938 
L 2728 1938 
L 2728 3041 
L 1953 3041 
Q 1581 3041 1381 2897 
Q 1181 2753 1181 2491 
z
M 363 0 
L 1431 1534 
Q 1069 1616 828 1830 
Q 588 2044 588 2491 
Q 588 2997 923 3248 
Q 1259 3500 1938 3500 
L 3306 3500 
L 3306 0 
L 2728 0 
L 2728 1478 
L 2013 1478 
L 981 0 
L 363 0 
z
" transform="scale(0.015625)"/>
       <path id="DejaVuSans-434" d="M 1384 459 
L 3053 459 
L 3053 3041 
L 1844 3041 
L 1844 2603 
Q 1844 1316 1475 628 
L 1384 459 
z
M 550 459 
Q 834 584 959 850 
Q 1266 1509 1266 2838 
L 1266 3500 
L 3631 3500 
L 3631 459 
L 4091 459 
L 4091 -884 
L 3631 -884 
L 3631 0 
L 794 0 
L 794 -884 
L 334 -884 
L 334 459 
L 550 459 
z
" transform="scale(0.015625)"/>
      </defs>
      <use xlink:href="#DejaVuSans-417"/>
      <use xlink:href="#DejaVuSans-43d" x="64.111328"/>
      <use xlink:href="#DejaVuSans-430" x="129.492188"/>
      <use xlink:href="#DejaVuSans-447" x="190.771484"/>
      <use xlink:href="#DejaVuSans-435" x="249.853516"/>
      <use xlink:href="#DejaVuSans-43d" x="311.376953"/>
      <use xlink:href="#DejaVuSans-438" x="376.757812"/>
      <use xlink:href="#DejaVuSans-44f" x="441.748047"/>
      <use xlink:href="#DejaVuSans-20" x="501.904297"/>
      <use xlink:href="#DejaVuSans-440" x="533.691406"/>
      <use xlink:href="#DejaVuSans-44f" x="597.167969"/>
      <use xlink:href="#DejaVuSans-434" x="657.324219"/>
      <use xlink:href="#DejaVuSans-430" x="726.464844"/>
     </g>
    </g>
   </g>
   <g id="line2d_15">
    <path d="M 73.832727 95.747029 
L 74.157707 53.568 
L 74.482686 251.23659 
L 74.807666 268.622879 
L 75.132645 162.476354 
L 75.457625 153.580757 
L 75.782604 218.080469 
L 76.107584 227.594223 
L 76.432563 194.660799 
L 76.757543 198.726702 
L 77.082523 217.104201 
L 77.407502 224.677618 
L 77.732482 214.88363 
L 78.057461 220.126632 
L 78.382441 235.198602 
L 78.70742 238.053971 
L 79.0324 237.077041 
L 79.357379 230.104644 
L 79.682359 231.141905 
L 80.332318 240.854514 
L 80.657297 243.59678 
L 80.982277 255.727021 
L 81.307256 242.447468 
L 81.632236 236.696914 
L 81.957215 240.248671 
L 82.607174 251.36183 
L 83.257133 240.406155 
L 83.582113 241.94247 
L 83.907093 245.40011 
L 84.232072 246.109833 
L 84.557052 242.795787 
L 84.882031 251.004119 
L 85.53199 240.510032 
L 85.85697 243.75975 
L 86.181949 249.111882 
L 86.506929 240.423182 
L 86.831908 242.397615 
L 87.156888 268.08567 
L 87.481867 266.266118 
L 87.806847 243.665921 
L 88.131826 241.74898 
L 88.456806 255.729975 
L 88.781785 259.842661 
L 89.106765 250.57503 
L 89.431744 254.717989 
L 90.081704 252.22179 
L 90.406683 256.373429 
L 90.731663 259.061942 
L 91.056642 267.060829 
L 91.381622 264.596689 
L 91.706601 266.095513 
L 92.031581 265.619131 
L 92.35656 260.860161 
L 92.68154 258.0328 
L 93.006519 257.389161 
L 93.331499 251.88872 
L 93.656478 249.040882 
L 94.306437 257.481978 
L 94.631417 252.997574 
L 94.956396 252.960428 
L 95.281376 254.32856 
L 95.606355 258.497197 
L 96.256314 248.887518 
L 96.581294 245.623969 
L 96.906274 233.916518 
L 97.231253 231.111441 
L 97.556233 232.750268 
L 97.881212 229.490223 
L 98.206192 227.407581 
L 98.531171 221.77299 
L 98.856151 226.044959 
L 99.18113 227.8696 
L 99.50611 230.511147 
L 99.831089 227.109668 
L 100.156069 226.107043 
L 100.481048 215.647168 
L 100.806028 215.885825 
L 101.131007 219.050538 
L 101.455987 228.959787 
L 102.105946 215.376931 
L 102.430925 212.646887 
L 102.755905 227.256041 
L 103.080885 229.283829 
L 103.405864 229.849551 
L 103.730844 240.549242 
L 104.055823 235.168484 
L 104.380803 215.390011 
L 104.705782 221.186195 
L 105.030762 229.391961 
L 105.355741 231.737469 
L 106.0057 241.190267 
L 106.33068 232.225517 
L 106.655659 232.145031 
L 106.980639 237.796356 
L 107.305618 223.804147 
L 107.630598 230.620443 
L 107.955577 240.467284 
L 108.280557 229.155402 
L 108.930516 250.486365 
L 109.255495 251.919127 
L 109.580475 254.652496 
L 109.905455 265.636328 
L 110.230434 262.713878 
L 110.555414 253.923527 
L 110.880393 259.694241 
L 111.205373 258.256272 
L 111.855332 265.718606 
L 113.480229 243.338434 
L 113.805209 242.914176 
L 114.455168 254.009896 
L 114.780147 252.335882 
L 115.105127 247.123149 
L 115.430106 256.038939 
L 115.755086 250.982834 
L 116.080066 253.623437 
L 116.405045 245.829493 
L 116.730025 243.98634 
L 117.055004 243.649829 
L 117.379984 242.802347 
L 117.704963 238.33354 
L 118.029943 239.688368 
L 118.354922 239.494542 
L 118.679902 246.360198 
L 119.004881 247.482293 
L 119.329861 236.744654 
L 119.65484 244.764058 
L 119.97982 249.926404 
L 120.304799 247.020426 
L 120.629779 237.458226 
L 120.954758 248.658951 
L 121.604717 253.32236 
L 121.929697 251.438284 
L 122.254676 227.953689 
L 122.579656 228.85574 
L 122.904636 237.969525 
L 123.229615 240.00846 
L 123.554595 252.5597 
L 123.879574 250.740859 
L 124.204554 247.282074 
L 124.529533 259.276814 
L 124.854513 264.817307 
L 125.179492 262.704042 
L 125.504472 256.522336 
L 125.829451 242.538313 
L 126.154431 248.573776 
L 126.47941 260.357018 
L 126.80439 248.835468 
L 127.129369 248.807697 
L 127.454349 249.457799 
L 127.779328 244.395349 
L 128.104308 236.28573 
L 128.429287 236.956074 
L 128.754267 234.101334 
L 129.079247 234.495644 
L 129.404226 237.138714 
L 129.729206 247.744503 
L 130.054185 236.43936 
L 130.379165 233.799651 
L 131.029124 253.291575 
L 131.354103 250.821963 
L 131.679083 240.268641 
L 132.004062 234.258121 
L 132.329042 238.580845 
L 132.654021 235.257335 
L 133.30398 266.52484 
L 133.62896 262.926347 
L 133.953939 251.01911 
L 134.278919 276.003218 
L 134.603898 281.19195 
L 134.928878 260.197483 
L 135.253857 254.062679 
L 135.578837 267.694369 
L 135.903817 270.050111 
L 136.228796 251.704017 
L 136.553776 244.79792 
L 136.878755 254.69009 
L 137.203735 258.854176 
L 137.853694 242.485965 
L 138.178673 242.937129 
L 138.503653 241.275418 
L 139.478591 243.782139 
L 139.803571 247.704307 
L 140.12855 256.642464 
L 140.45353 260.188928 
L 140.778509 255.918482 
L 141.103489 253.966524 
L 141.428468 260.629721 
L 141.753448 255.442196 
L 142.078428 252.687109 
L 142.403407 248.422288 
L 142.728387 236.755051 
L 143.053366 242.263653 
L 143.378346 245.750132 
L 143.703325 234.407613 
L 144.028305 226.953112 
L 144.353284 231.97986 
L 144.678264 224.909777 
L 145.003243 223.408269 
L 145.328223 217.633319 
L 145.653202 200.695471 
L 146.303161 216.81535 
L 146.628141 210.462852 
L 146.95312 209.570941 
L 147.2781 219.647239 
L 147.603079 215.973231 
L 147.928059 204.066542 
L 148.253038 198.721075 
L 148.578018 199.97429 
L 148.902998 208.40252 
L 149.227977 205.702165 
L 149.877936 215.762503 
L 150.202916 214.2384 
L 150.852875 195.669964 
L 151.177854 196.981393 
L 151.502834 202.68421 
L 151.827813 198.45954 
L 152.152793 199.995378 
L 152.477772 204.381123 
L 152.802752 204.707156 
L 153.77769 233.571151 
L 154.10267 235.57003 
L 154.427649 235.424356 
L 155.077609 227.489021 
L 155.727568 235.924312 
L 156.377527 227.440286 
L 157.352465 249.098724 
L 157.677445 244.918896 
L 158.002424 235.745135 
L 158.327404 238.863759 
L 158.652383 250.886733 
L 158.977363 251.111095 
L 159.302342 250.197216 
L 159.952301 261.703173 
L 160.277281 249.08239 
L 160.92724 265.790877 
L 161.252219 253.362369 
L 161.577199 245.799779 
L 162.227158 272.950488 
L 162.552138 257.684728 
L 162.877117 248.40159 
L 163.202097 264.664364 
L 163.527076 265.445218 
L 163.852056 267.159383 
L 164.177035 258.052253 
L 164.502015 241.887665 
L 164.826994 246.006582 
L 165.476953 256.329615 
L 165.801933 250.305816 
L 166.126912 248.157972 
L 166.451892 252.357605 
L 166.776871 248.718966 
L 167.101851 246.834571 
L 167.42683 260.103348 
L 167.75181 258.508333 
L 168.07679 243.61792 
L 168.401769 244.364552 
L 168.726749 247.684459 
L 169.051728 240.853631 
L 169.376708 239.027653 
L 170.026667 229.554097 
L 170.351646 233.034284 
L 170.676626 238.412421 
L 171.001605 230.838797 
L 171.326585 228.834135 
L 171.651564 246.254478 
L 171.976544 243.877004 
L 172.626503 219.462531 
L 173.276462 239.679343 
L 173.601441 239.398026 
L 174.2514 225.04153 
L 174.57638 229.034446 
L 174.90136 239.313516 
L 175.226339 237.198854 
L 175.551319 231.875245 
L 175.876298 245.481762 
L 176.201278 251.053057 
L 176.526257 253.537105 
L 176.851237 254.251876 
L 177.176216 241.422662 
L 177.501196 239.511041 
L 178.151155 242.613468 
L 178.476134 245.302826 
L 178.801114 239.544624 
L 179.126093 239.928069 
L 179.451073 251.941902 
L 179.776052 253.812992 
L 180.101032 252.993189 
L 180.426011 239.386435 
L 180.750991 246.679153 
L 181.075971 256.530352 
L 181.72593 229.69846 
L 182.375889 241.335247 
L 183.025848 227.625461 
L 183.350827 226.978876 
L 183.675807 222.306553 
L 184.000786 208.013782 
L 184.325766 210.397677 
L 184.650745 217.871962 
L 184.975725 218.526037 
L 185.300704 210.783385 
L 185.950663 230.553495 
L 186.275643 231.8428 
L 186.600622 226.565478 
L 186.925602 231.697233 
L 187.250581 242.482094 
L 187.575561 245.86599 
L 187.900541 235.100786 
L 188.22552 250.100569 
L 188.5505 251.16831 
L 188.875479 242.681729 
L 189.200459 238.355602 
L 189.525438 247.054921 
L 189.850418 250.398075 
L 190.175397 242.350586 
L 190.500377 240.972875 
L 190.825356 255.870681 
L 191.150336 259.871899 
L 191.475315 251.993358 
L 191.800295 247.807728 
L 192.125274 252.144129 
L 192.450254 249.351469 
L 192.775233 232.485222 
L 193.100213 241.702554 
L 193.425192 245.69905 
L 193.750172 241.982041 
L 194.075152 233.413714 
L 194.400131 231.471143 
L 194.725111 240.87017 
L 195.05009 242.372305 
L 195.37507 242.21506 
L 195.700049 239.115969 
L 196.025029 241.448356 
L 196.350008 242.823773 
L 196.674988 250.936396 
L 196.999967 251.88029 
L 197.324947 243.650687 
L 197.649926 243.409782 
L 197.974906 233.305773 
L 198.299885 236.517554 
L 198.624865 249.35117 
L 198.949844 253.272323 
L 199.274824 245.535965 
L 199.599803 248.088538 
L 199.924783 249.714301 
L 200.249762 255.536714 
L 200.574742 259.162147 
L 200.899722 250.111912 
L 201.224701 245.382712 
L 201.549681 244.789682 
L 201.87466 247.440072 
L 202.19964 256.352582 
L 202.849599 231.509506 
L 203.174578 236.877608 
L 203.499558 248.858637 
L 203.824537 250.53158 
L 204.149517 247.224616 
L 204.474496 241.060226 
L 204.799476 252.580957 
L 205.124455 246.593654 
L 205.449435 228.75741 
L 205.774414 226.786164 
L 206.099394 230.761156 
L 206.424373 249.843633 
L 206.749353 253.322002 
L 207.074333 239.863054 
L 207.399312 235.968172 
L 208.049271 258.747957 
L 208.374251 258.538975 
L 209.02421 255.68866 
L 209.674169 249.599578 
L 209.999148 239.994199 
L 210.649107 252.467296 
L 210.974087 242.28614 
L 211.299066 244.71371 
L 211.624046 256.397702 
L 211.949025 247.860444 
L 212.274005 255.096514 
L 212.598984 266.632474 
L 212.923964 267.019546 
L 213.248943 252.493996 
L 213.573923 253.866064 
L 213.898903 258.706139 
L 214.223882 246.383702 
L 214.548862 239.182745 
L 214.873841 253.087833 
L 215.198821 250.34833 
L 215.5238 238.252546 
L 215.84878 245.602202 
L 216.173759 243.764833 
L 216.498739 241.253228 
L 216.823718 255.399324 
L 217.148698 255.356082 
L 217.473677 239.447657 
L 217.798657 237.464525 
L 218.123636 246.33359 
L 218.448616 233.402317 
L 219.098575 233.382719 
L 219.423554 221.42284 
L 219.748534 227.107749 
L 220.073514 226.101629 
L 220.398493 227.887084 
L 220.723473 232.106757 
L 221.048452 222.503542 
L 221.698411 208.835313 
L 222.023391 199.574261 
L 222.34837 215.56823 
L 222.67335 222.119969 
L 222.998329 212.083693 
L 223.323309 208.223702 
L 223.648288 215.265876 
L 224.298247 237.18962 
L 224.623227 230.767952 
L 224.948206 229.199847 
L 225.273186 230.98187 
L 225.598165 222.564146 
L 225.923145 221.314641 
L 226.248124 219.274174 
L 226.573104 231.178604 
L 226.898084 233.449339 
L 227.223063 229.192133 
L 227.548043 231.32353 
L 227.873022 222.44669 
L 228.198002 221.909847 
L 228.522981 228.605735 
L 228.847961 227.459786 
L 229.17294 220.427307 
L 229.49792 219.511876 
L 229.822899 222.394353 
L 230.147879 228.659014 
L 230.472858 238.84808 
L 230.797838 240.456876 
L 231.122817 248.408058 
L 231.447797 248.595224 
L 231.772776 249.718669 
L 232.422735 252.647698 
L 232.747715 253.340015 
L 233.072695 249.856333 
L 233.397674 261.117447 
L 233.722654 265.389908 
L 234.047633 261.081611 
L 234.372613 265.556604 
L 234.697592 267.019593 
L 235.022572 252.514007 
L 235.347551 256.182874 
L 235.672531 267.868539 
L 235.99751 256.771548 
L 236.32249 241.804812 
L 236.647469 252.233455 
L 236.972449 258.19435 
L 237.297428 257.040327 
L 237.622408 254.379573 
L 237.947387 253.834138 
L 238.272367 265.038512 
L 238.597346 268.832138 
L 238.922326 260.449122 
L 239.247305 267.840259 
L 239.572285 269.831938 
L 239.897265 269.719306 
L 240.222244 274.968211 
L 240.547224 272.270549 
L 240.872203 266.947786 
L 241.197183 256.108747 
L 241.522162 258.766412 
L 241.847142 276.888813 
L 242.172121 262.336828 
L 242.497101 256.086181 
L 242.82208 264.972702 
L 243.14706 261.480223 
L 243.472039 246.125718 
L 243.797019 240.509643 
L 244.121998 245.190444 
L 244.446978 246.376914 
L 244.771957 245.766212 
L 245.421916 263.237325 
L 245.746896 260.879282 
L 246.071876 256.964638 
L 246.396855 259.408773 
L 246.721835 252.450814 
L 247.046814 254.498027 
L 247.371794 261.57538 
L 248.021753 244.519993 
L 248.671712 258.881666 
L 248.996691 255.52692 
L 249.321671 247.178073 
L 249.64665 254.602211 
L 249.97163 265.171233 
L 250.296609 254.193077 
L 250.621589 253.803786 
L 250.946568 262.329272 
L 251.596527 268.866456 
L 252.246486 247.038516 
L 252.896446 265.837998 
L 253.221425 258.753818 
L 253.546405 260.698316 
L 253.871384 268.684781 
L 254.196364 270.628228 
L 254.521343 264.191513 
L 254.846323 261.682855 
L 255.171302 265.210277 
L 255.496282 259.999493 
L 255.821261 267.006587 
L 256.146241 266.210976 
L 256.47122 258.25323 
L 256.7962 262.068871 
L 257.121179 267.814552 
L 257.446159 264.977003 
L 257.771138 258.452739 
L 258.096118 259.610424 
L 258.421097 269.169082 
L 258.746077 263.497885 
L 259.071057 263.110407 
L 259.396036 267.719368 
L 259.721016 269.320716 
L 260.045995 264.664703 
L 260.370975 269.301489 
L 260.695954 271.57477 
L 261.020934 261.688174 
L 261.345913 264.846204 
L 261.670893 269.764078 
L 261.995872 267.731341 
L 262.320852 268.251561 
L 262.645831 266.100518 
L 262.970811 266.663435 
L 263.29579 260.731521 
L 263.62077 251.414523 
L 263.945749 258.771533 
L 264.270729 262.839846 
L 264.595708 258.834155 
L 264.920688 262.321191 
L 265.245667 261.847858 
L 265.570647 266.021449 
L 265.895627 276.137178 
L 266.220606 277.929314 
L 266.545586 267.152393 
L 266.870565 263.536701 
L 267.195545 279.313314 
L 267.520524 287.106025 
L 267.845504 283.153041 
L 268.170483 276.001229 
L 268.495463 279.948543 
L 269.145422 273.733657 
L 269.470401 279.408563 
L 269.795381 275.704142 
L 270.12036 270.010045 
L 270.44534 277.87486 
L 270.770319 270.93572 
L 271.095299 282.194976 
L 271.420278 280.721783 
L 271.745258 260.801828 
L 272.070238 250.658515 
L 272.395217 273.454491 
L 272.720197 274.429519 
L 273.045176 270.727885 
L 273.370156 261.597798 
L 273.695135 268.924612 
L 274.020115 270.405187 
L 274.345094 267.088266 
L 275.320033 239.136732 
L 275.645012 239.476591 
L 275.969992 245.881916 
L 276.294971 245.014335 
L 276.619951 255.132627 
L 276.94493 257.335589 
L 277.594889 237.022616 
L 278.569828 254.157912 
L 278.894808 251.661379 
L 279.219787 256.038897 
L 279.544767 258.194606 
L 279.869746 263.312024 
L 280.194726 254.48998 
L 280.519705 234.978372 
L 280.844685 239.279624 
L 281.169664 253.062771 
L 281.494644 256.070459 
L 281.819623 241.469281 
L 282.144603 242.175239 
L 282.469582 256.706927 
L 282.794562 237.084608 
L 283.119541 234.048857 
L 283.444521 241.210128 
L 283.7695 235.582258 
L 284.09448 232.185008 
L 284.419459 247.424003 
L 284.744439 253.88355 
L 285.069419 251.223856 
L 285.394398 261.28067 
L 285.719378 251.335335 
L 286.369337 269.260865 
L 286.694316 266.320187 
L 287.019296 261.30284 
L 287.344275 261.996948 
L 287.669255 262.177247 
L 287.994234 258.199174 
L 288.319214 259.426125 
L 288.644193 256.824703 
L 288.969173 252.656582 
L 289.294152 253.794341 
L 289.619132 264.00886 
L 289.944111 258.893805 
L 290.269091 250.030655 
L 290.59407 250.948183 
L 290.91905 244.806269 
L 291.244029 233.036205 
L 291.569009 227.003465 
L 292.218968 222.54123 
L 292.543948 219.894488 
L 292.868927 224.398994 
L 293.193907 218.025313 
L 293.518886 218.7924 
L 293.843866 220.139361 
L 294.168845 231.485958 
L 294.493825 233.628461 
L 294.818804 214.157318 
L 295.143784 216.606768 
L 295.468763 235.711527 
L 295.793743 235.545647 
L 296.118722 224.652104 
L 296.443702 225.936526 
L 296.768681 230.452426 
L 297.093661 229.14841 
L 297.41864 220.435598 
L 297.74362 221.165056 
L 298.0686 224.682609 
L 298.393579 237.686675 
L 299.043538 210.13691 
L 299.368518 228.454021 
L 299.693497 235.743628 
L 300.018477 232.426671 
L 300.343456 225.619372 
L 300.993415 243.945857 
L 302.293333 228.237077 
L 302.618313 244.106465 
L 302.943292 253.797302 
L 303.268272 254.078963 
L 303.593251 246.467198 
L 303.918231 243.532142 
L 304.24321 246.986398 
L 304.56819 234.299043 
L 305.218149 254.796264 
L 305.543129 255.437284 
L 306.193088 233.763357 
L 306.518067 245.314795 
L 306.843047 247.297368 
L 307.168026 250.721015 
L 307.493006 235.533016 
L 307.817985 232.106397 
L 308.142965 238.4082 
L 308.792924 236.425919 
L 309.117903 237.688603 
L 309.442883 244.134817 
L 309.767862 253.419978 
L 310.092842 255.547613 
L 310.417821 247.365723 
L 311.067781 256.797 
L 311.39276 254.479974 
L 311.71774 256.925863 
L 312.042719 260.574659 
L 312.692678 245.999414 
L 313.017658 247.628033 
L 313.342637 264.224055 
L 313.667617 269.113464 
L 313.992596 252.650336 
L 314.317576 254.10212 
L 314.642555 265.709455 
L 314.967535 268.131137 
L 315.617494 256.673813 
L 315.942473 255.744964 
L 316.267453 262.190214 
L 316.592432 277.539845 
L 316.917412 268.518739 
L 317.242391 254.791043 
L 317.567371 252.086718 
L 317.892351 266.875938 
L 318.21733 276.015163 
L 318.54231 271.101654 
L 318.867289 269.569544 
L 319.192269 284.800547 
L 320.167207 254.871219 
L 320.492187 281.945651 
L 320.817166 287.575299 
L 321.142146 278.159626 
L 321.467125 273.977809 
L 321.792105 282.646454 
L 322.117084 281.704271 
L 322.442064 285.557951 
L 322.767043 283.269321 
L 323.092023 266.379337 
L 323.417002 264.288901 
L 323.741982 274.491546 
L 324.391941 254.615478 
L 324.716921 249.903622 
L 325.0419 261.017105 
L 325.36688 257.643791 
L 325.691859 249.173574 
L 326.016839 251.12736 
L 326.666798 271.327411 
L 326.991777 261.653392 
L 327.316757 260.508144 
L 327.641736 265.227207 
L 327.966716 256.202713 
L 328.616675 266.361425 
L 329.266634 245.46606 
L 329.591613 243.361503 
L 329.916593 250.237347 
L 330.241572 250.751572 
L 330.566552 246.369866 
L 330.891532 248.886335 
L 331.216511 264.899131 
L 331.541491 258.055273 
L 331.86647 238.28316 
L 332.516429 245.58431 
L 332.841409 251.375851 
L 333.166388 234.614831 
L 333.491368 226.541208 
L 333.816347 231.728278 
L 334.141327 243.66391 
L 334.141327 243.66391 
" clip-path="url(#p0e3c00f344)" style="fill: none; stroke: #1f77b4; stroke-width: 1.5; stroke-linecap: square"/>
   </g>
   <g id="line2d_16">
    <path d="M 334.466306 237.65822 
L 334.791286 230.461501 
L 335.116265 227.468705 
L 335.441245 232.160218 
L 335.766224 231.080648 
L 336.091204 228.825577 
L 336.416183 238.788589 
L 336.741163 233.072572 
L 337.066143 242.063862 
L 337.391122 233.15895 
L 338.041081 241.627052 
L 338.69104 231.33012 
L 339.340999 250.349066 
L 339.665979 237.589565 
L 339.990958 238.695857 
L 340.315938 243.9875 
L 340.640917 230.56494 
L 340.965897 233.34446 
L 341.290876 244.333125 
L 341.615856 246.144289 
L 341.940835 246.582134 
L 342.590794 234.325771 
L 342.915774 247.285597 
L 343.565733 235.526594 
L 343.890713 248.877784 
L 344.215692 246.827988 
L 344.540672 255.462215 
L 344.865651 243.398037 
L 345.190631 249.910347 
L 345.51561 242.963499 
L 345.84059 238.99975 
L 346.165569 240.568457 
L 346.490549 233.252001 
L 346.815528 230.621277 
L 347.140508 230.839979 
L 347.465487 237.631602 
L 347.790467 224.36965 
L 348.115446 220.274478 
L 348.440426 231.278436 
L 348.765405 226.653438 
L 349.090385 225.547025 
L 349.415364 222.416117 
L 349.740344 247.27983 
L 350.390303 233.264095 
L 350.715283 237.126855 
L 351.040262 243.371014 
L 351.690221 231.329737 
L 352.015201 232.482661 
L 352.34018 228.48658 
L 352.66516 232.554794 
L 352.990139 231.632972 
L 353.315119 238.896972 
L 353.640098 229.086482 
L 353.965078 234.485334 
L 354.290057 230.691625 
L 354.615037 236.907757 
L 355.264996 218.86729 
L 355.589975 229.913431 
L 355.914955 226.114619 
L 356.239934 225.29591 
L 356.564914 231.780709 
L 356.889894 235.511451 
L 357.214873 236.002891 
L 357.539853 226.998215 
L 357.864832 240.462622 
L 358.514791 228.037539 
L 358.839771 239.867006 
L 359.16475 242.49574 
L 359.48973 234.334886 
L 359.814709 232.902791 
L 360.139689 244.95624 
L 360.464668 245.013106 
L 360.789648 242.420851 
L 361.114627 247.975319 
L 361.439607 263.853498 
L 361.764586 257.038687 
L 362.414545 258.597428 
L 362.739525 265.120758 
L 363.389484 252.839658 
L 364.039443 260.469981 
L 364.364423 271.873306 
L 364.689402 250.828515 
L 365.014382 274.727884 
L 365.339361 279.369521 
L 365.664341 262.140932 
L 365.98932 263.943466 
L 366.3143 263.793933 
L 366.639279 261.295546 
L 366.964259 252.609489 
L 367.289238 240.680821 
L 367.614218 235.994838 
L 367.939197 250.762336 
L 368.264177 240.61601 
L 368.914136 251.997607 
L 369.239115 244.617205 
L 369.564095 246.375641 
L 369.889075 248.797479 
L 370.214054 247.582056 
L 370.539034 257.68869 
L 370.864013 245.350867 
L 371.188993 263.952398 
L 371.513972 258.858948 
L 371.838952 250.825025 
L 372.163931 265.343173 
L 372.488911 263.448121 
L 373.13887 253.588374 
L 373.463849 264.2204 
L 373.788829 253.304875 
L 374.113808 263.114227 
L 374.438788 256.029442 
L 374.763767 268.562971 
L 375.088747 272.62792 
L 375.413726 283.179687 
L 375.738706 278.595354 
L 376.063686 283.980081 
L 376.388665 293.084959 
L 376.713645 293.182493 
L 377.038624 283.145649 
L 377.363604 279.157258 
L 377.688583 285.417061 
L 378.013563 282.724911 
L 378.338542 275.212955 
L 378.663522 285.272479 
L 378.988501 290.122322 
L 379.313481 280.995375 
L 379.63846 289.57159 
L 379.96344 283.720364 
L 380.288419 295.488 
L 380.613399 287.918405 
L 380.938378 293.699851 
L 381.263358 294.06098 
L 381.588337 285.711328 
L 381.913317 294.24622 
L 382.563276 274.029345 
L 382.888256 278.664897 
L 383.213235 276.529403 
L 383.538215 276.12553 
L 383.863194 273.416367 
L 384.188174 283.728341 
L 384.513153 288.183564 
L 384.838133 283.94085 
L 385.163112 289.86407 
L 385.488092 292.968269 
L 386.78801 278.598329 
L 387.112989 276.911609 
L 387.437969 271.412123 
L 387.762948 268.434487 
L 388.087928 262.382753 
L 388.412907 263.268941 
L 388.737887 272.796931 
L 389.062867 252.174864 
L 389.387846 257.336936 
L 389.712826 258.757121 
L 390.037805 256.756184 
L 390.362785 257.219016 
L 390.687764 261.416391 
L 391.012744 261.767174 
L 391.337723 258.700931 
L 391.662703 268.742249 
L 391.987682 268.713444 
L 392.312662 260.390521 
L 392.637641 273.9915 
L 392.962621 269.908111 
L 393.2876 267.47486 
L 393.61258 260.076428 
L 393.937559 268.282283 
L 394.262539 262.523354 
L 394.587518 264.418197 
L 394.912498 269.983628 
L 395.237477 263.478411 
L 395.562457 260.76317 
L 395.887437 256.871579 
L 396.212416 267.286193 
L 396.537396 254.803599 
L 396.862375 257.782929 
L 397.512334 247.018195 
L 397.837314 248.149387 
L 398.487273 242.272959 
L 398.487273 242.272959 
" clip-path="url(#p0e3c00f344)" style="fill: none; stroke: #ff7f0e; stroke-width: 1.5; stroke-linecap: square"/>
   </g>
   <g id="patch_3">
    <path d="M 57.6 307.584 
L 57.6 41.472 
" style="fill: none; stroke: #000000; stroke-width: 0.8; stroke-linejoin: miter; stroke-linecap: square"/>
   </g>
   <g id="patch_4">
    <path d="M 414.72 307.584 
L 414.72 41.472 
" style="fill: none; stroke: #000000; stroke-width: 0.8; stroke-linejoin: miter; stroke-linecap: square"/>
   </g>
   <g id="patch_5">
    <path d="M 57.6 307.584 
L 414.72 307.584 
" style="fill: none; stroke: #000000; stroke-width: 0.8; stroke-linejoin: miter; stroke-linecap: square"/>
   </g>
   <g id="patch_6">
    <path d="M 57.6 41.472 
L 414.72 41.472 
" style="fill: none; stroke: #000000; stroke-width: 0.8; stroke-linejoin: miter; stroke-linecap: square"/>
   </g>
   <g id="legend_1">
    <g id="patch_7">
     <path d="M 135.804375 78.998562 
L 407.72 78.998562 
Q 409.72 78.998562 409.72 76.998562 
L 409.72 48.472 
Q 409.72 46.472 407.72 46.472 
L 135.804375 46.472 
Q 133.804375 46.472 133.804375 48.472 
L 133.804375 76.998562 
Q 133.804375 78.998562 135.804375 78.998562 
z
" style="fill: #ffffff; opacity: 0.8; stroke: #cccccc; stroke-linejoin: miter"/>
    </g>
    <g id="line2d_17">
     <path d="M 137.804375 54.74075 
L 147.804375 54.74075 
L 157.804375 54.74075 
" style="fill: none; stroke: #1f77b4; stroke-width: 1.5; stroke-linecap: square"/>
    </g>
    <g id="text_17">
     <!-- Исходный временной ряд (обучающая часть) -->
     <g transform="translate(165.804375 58.24075) scale(0.1 -0.1)">
      <defs>
       <path id="DejaVuSans-418" d="M 4159 4666 
L 4159 0 
L 3547 0 
L 3547 3903 
L 1478 0 
L 628 0 
L 628 4666 
L 1241 4666 
L 1241 763 
L 3309 4666 
L 4159 4666 
z
" transform="scale(0.015625)"/>
       <path id="DejaVuSans-441" d="M 3122 3366 
L 3122 2828 
Q 2878 2963 2633 3030 
Q 2388 3097 2138 3097 
Q 1578 3097 1268 2742 
Q 959 2388 959 1747 
Q 959 1106 1268 751 
Q 1578 397 2138 397 
Q 2388 397 2633 464 
Q 2878 531 3122 666 
L 3122 134 
Q 2881 22 2623 -34 
Q 2366 -91 2075 -91 
Q 1284 -91 818 406 
Q 353 903 353 1747 
Q 353 2603 823 3093 
Q 1294 3584 2113 3584 
Q 2378 3584 2631 3529 
Q 2884 3475 3122 3366 
z
" transform="scale(0.015625)"/>
       <path id="DejaVuSans-445" d="M 3513 3500 
L 2247 1797 
L 3578 0 
L 2900 0 
L 1881 1375 
L 863 0 
L 184 0 
L 1544 1831 
L 300 3500 
L 978 3500 
L 1906 2253 
L 2834 3500 
L 3513 3500 
z
" transform="scale(0.015625)"/>
       <path id="DejaVuSans-44b" d="M 3907 3500 
L 4482 3500 
L 4482 0 
L 3907 0 
L 3907 3500 
z
M 4195 3584 
L 4195 3584 
z
M 2781 1038 
Q 2781 1319 2576 1466 
Q 2372 1613 1978 1613 
L 1159 1613 
L 1159 459 
L 1978 459 
Q 2372 459 2576 607 
Q 2781 756 2781 1038 
z
M 581 3500 
L 1159 3500 
L 1159 2072 
L 2003 2072 
Q 2672 2072 3033 1817 
Q 3394 1563 3394 1038 
Q 3394 513 3033 256 
Q 2672 0 2003 0 
L 581 0 
L 581 3500 
z
" transform="scale(0.015625)"/>
       <path id="DejaVuSans-439" d="M 3578 3500 
L 3578 0 
L 3006 0 
L 3006 2809 
L 1319 0 
L 581 0 
L 581 3500 
L 1153 3500 
L 1153 697 
L 2838 3500 
L 3578 3500 
z
M 1102 4833 
L 1471 4833 
Q 1505 4599 1656 4481 
Q 1808 4364 2080 4364 
Q 2349 4364 2499 4480 
Q 2649 4596 2689 4833 
L 3058 4833 
Q 3027 4386 2780 4161 
Q 2533 3936 2080 3936 
Q 1627 3936 1380 4161 
Q 1133 4386 1102 4833 
z
" transform="scale(0.015625)"/>
       <path id="DejaVuSans-28" d="M 1984 4856 
Q 1566 4138 1362 3434 
Q 1159 2731 1159 2009 
Q 1159 1288 1364 580 
Q 1569 -128 1984 -844 
L 1484 -844 
Q 1016 -109 783 600 
Q 550 1309 550 2009 
Q 550 2706 781 3412 
Q 1013 4119 1484 4856 
L 1984 4856 
z
" transform="scale(0.015625)"/>
       <path id="DejaVuSans-431" d="M 1991 3584 
Q 2741 3584 3169 3096 
Q 3597 2609 3597 1747 
Q 3597 888 3169 398 
Q 2741 -91 1991 -91 
Q 1238 -91 822 384 
Q 406 859 384 1747 
L 366 2463 
Q 350 2834 350 2963 
Q 350 3463 531 3831 
Q 816 4409 1308 4659 
Q 1800 4909 2625 4916 
Q 3006 4919 3175 4972 
L 3334 4516 
Q 3181 4453 3041 4450 
L 2259 4397 
Q 1866 4369 1628 4231 
Q 1006 3866 947 3388 
L 925 3213 
Q 1331 3584 1991 3584 
z
M 1991 3097 
Q 1528 3097 1259 2736 
Q 991 2375 991 1747 
Q 991 1119 1258 758 
Q 1525 397 1991 397 
Q 2450 397 2719 759 
Q 2988 1122 2988 1747 
Q 2988 2369 2719 2733 
Q 2450 3097 1991 3097 
z
" transform="scale(0.015625)"/>
       <path id="DejaVuSans-443" d="M 2059 -325 
Q 1816 -950 1584 -1140 
Q 1353 -1331 966 -1331 
L 506 -1331 
L 506 -850 
L 844 -850 
Q 1081 -850 1212 -737 
Q 1344 -625 1503 -206 
L 1606 56 
L 191 3500 
L 800 3500 
L 1894 763 
L 2988 3500 
L 3597 3500 
L 2059 -325 
z
" transform="scale(0.015625)"/>
       <path id="DejaVuSans-44e" d="M 3431 3097 
Q 2969 3097 2700 2736 
Q 2431 2375 2431 1747 
Q 2431 1119 2698 758 
Q 2966 397 3431 397 
Q 3891 397 4159 759 
Q 4428 1122 4428 1747 
Q 4428 2369 4159 2733 
Q 3891 3097 3431 3097 
z
M 1844 2103 
Q 1903 2697 2292 3140 
Q 2681 3584 3431 3584 
Q 4181 3584 4609 3096 
Q 5038 2609 5038 1747 
Q 5038 888 4609 398 
Q 4181 -91 3431 -91 
Q 2678 -91 2267 381 
Q 1856 853 1828 1628 
L 1178 1628 
L 1178 0 
L 603 0 
L 603 3500 
L 1178 3500 
L 1178 2103 
L 1844 2103 
z
" transform="scale(0.015625)"/>
       <path id="DejaVuSans-449" d="M 5275 0 
L 581 0 
L 581 3500 
L 1159 3500 
L 1159 459 
L 2638 459 
L 2638 3500 
L 3216 3500 
L 3216 459 
L 4697 459 
L 4697 3500 
L 5275 3500 
L 5275 459 
L 5734 459 
L 5734 -884 
L 5275 -884 
L 5275 0 
z
" transform="scale(0.015625)"/>
       <path id="DejaVuSans-44c" d="M 2781 1038 
Q 2781 1319 2576 1466 
Q 2372 1613 1978 1613 
L 1159 1613 
L 1159 459 
L 1978 459 
Q 2372 459 2576 607 
Q 2781 756 2781 1038 
z
M 581 3500 
L 1159 3500 
L 1159 2072 
L 2003 2072 
Q 2672 2072 3033 1817 
Q 3394 1563 3394 1038 
Q 3394 513 3033 256 
Q 2672 0 2003 0 
L 581 0 
L 581 3500 
z
" transform="scale(0.015625)"/>
       <path id="DejaVuSans-29" d="M 513 4856 
L 1013 4856 
Q 1481 4119 1714 3412 
Q 1947 2706 1947 2009 
Q 1947 1309 1714 600 
Q 1481 -109 1013 -844 
L 513 -844 
Q 928 -128 1133 580 
Q 1338 1288 1338 2009 
Q 1338 2731 1133 3434 
Q 928 4138 513 4856 
z
" transform="scale(0.015625)"/>
      </defs>
      <use xlink:href="#DejaVuSans-418"/>
      <use xlink:href="#DejaVuSans-441" x="74.804688"/>
      <use xlink:href="#DejaVuSans-445" x="129.785156"/>
      <use xlink:href="#DejaVuSans-43e" x="188.964844"/>
      <use xlink:href="#DejaVuSans-434" x="250.146484"/>
      <use xlink:href="#DejaVuSans-43d" x="319.287109"/>
      <use xlink:href="#DejaVuSans-44b" x="384.667969"/>
      <use xlink:href="#DejaVuSans-439" x="463.623047"/>
      <use xlink:href="#DejaVuSans-20" x="528.613281"/>
      <use xlink:href="#DejaVuSans-432" x="560.400391"/>
      <use xlink:href="#DejaVuSans-440" x="619.335938"/>
      <use xlink:href="#DejaVuSans-435" x="682.8125"/>
      <use xlink:href="#DejaVuSans-43c" x="744.335938"/>
      <use xlink:href="#DejaVuSans-435" x="819.775391"/>
      <use xlink:href="#DejaVuSans-43d" x="881.298828"/>
      <use xlink:href="#DejaVuSans-43d" x="946.679688"/>
      <use xlink:href="#DejaVuSans-43e" x="1012.060547"/>
      <use xlink:href="#DejaVuSans-439" x="1073.242188"/>
      <use xlink:href="#DejaVuSans-20" x="1138.232422"/>
      <use xlink:href="#DejaVuSans-440" x="1170.019531"/>
      <use xlink:href="#DejaVuSans-44f" x="1233.496094"/>
      <use xlink:href="#DejaVuSans-434" x="1293.652344"/>
      <use xlink:href="#DejaVuSans-20" x="1362.792969"/>
      <use xlink:href="#DejaVuSans-28" x="1394.580078"/>
      <use xlink:href="#DejaVuSans-43e" x="1433.59375"/>
      <use xlink:href="#DejaVuSans-431" x="1494.775391"/>
      <use xlink:href="#DejaVuSans-443" x="1556.445312"/>
      <use xlink:href="#DejaVuSans-447" x="1615.625"/>
      <use xlink:href="#DejaVuSans-430" x="1674.707031"/>
      <use xlink:href="#DejaVuSans-44e" x="1735.986328"/>
      <use xlink:href="#DejaVuSans-449" x="1820.166016"/>
      <use xlink:href="#DejaVuSans-430" x="1914.355469"/>
      <use xlink:href="#DejaVuSans-44f" x="1975.634766"/>
      <use xlink:href="#DejaVuSans-20" x="2035.791016"/>
      <use xlink:href="#DejaVuSans-447" x="2067.578125"/>
      <use xlink:href="#DejaVuSans-430" x="2126.660156"/>
      <use xlink:href="#DejaVuSans-441" x="2187.939453"/>
      <use xlink:href="#DejaVuSans-442" x="2242.919922"/>
      <use xlink:href="#DejaVuSans-44c" x="2301.171875"/>
      <use xlink:href="#DejaVuSans-29" x="2360.107422"/>
     </g>
    </g>
    <g id="line2d_18">
     <path d="M 137.804375 69.418875 
L 147.804375 69.418875 
L 157.804375 69.418875 
" style="fill: none; stroke: #ff7f0e; stroke-width: 1.5; stroke-linecap: square"/>
    </g>
    <g id="text_18">
     <!-- Предсказанные значения (тестовая часть) -->
     <g transform="translate(165.804375 72.918875) scale(0.1 -0.1)">
      <defs>
       <path id="DejaVuSans-41f" d="M 4184 4666 
L 4184 0 
L 3553 0 
L 3553 4134 
L 1259 4134 
L 1259 0 
L 628 0 
L 628 4666 
L 4184 4666 
z
" transform="scale(0.015625)"/>
       <path id="DejaVuSans-43a" d="M 581 3500 
L 1153 3500 
L 1153 1856 
L 2775 3500 
L 3481 3500 
L 2144 2147 
L 3653 0 
L 3009 0 
L 1769 1766 
L 1153 1141 
L 1153 0 
L 581 0 
L 581 3500 
z
" transform="scale(0.015625)"/>
       <path id="DejaVuSans-437" d="M 2206 1888 
Q 2594 1813 2809 1584 
Q 3025 1356 3025 1019 
Q 3025 478 2622 193 
Q 2219 -91 1475 -91 
Q 1225 -91 961 -47 
Q 697 -3 416 84 
L 416 619 
Q 638 503 903 445 
Q 1169 388 1459 388 
Q 1931 388 2195 563 
Q 2459 738 2459 1019 
Q 2459 1294 2225 1461 
Q 1991 1628 1563 1628 
L 1100 1628 
L 1100 2103 
L 1584 2103 
Q 1947 2103 2158 2242 
Q 2369 2381 2369 2600 
Q 2369 2800 2151 2944 
Q 1934 3088 1563 3088 
Q 1341 3088 1089 3047 
Q 838 3006 534 2916 
L 534 3438 
Q 841 3513 1106 3550 
Q 1372 3588 1609 3588 
Q 2222 3588 2576 3342 
Q 2931 3097 2931 2656 
Q 2931 2366 2743 2164 
Q 2556 1963 2206 1888 
z
" transform="scale(0.015625)"/>
      </defs>
      <use xlink:href="#DejaVuSans-41f"/>
      <use xlink:href="#DejaVuSans-440" x="75.195312"/>
      <use xlink:href="#DejaVuSans-435" x="138.671875"/>
      <use xlink:href="#DejaVuSans-434" x="200.195312"/>
      <use xlink:href="#DejaVuSans-441" x="269.335938"/>
      <use xlink:href="#DejaVuSans-43a" x="324.316406"/>
      <use xlink:href="#DejaVuSans-430" x="384.716797"/>
      <use xlink:href="#DejaVuSans-437" x="445.996094"/>
      <use xlink:href="#DejaVuSans-430" x="499.169922"/>
      <use xlink:href="#DejaVuSans-43d" x="560.449219"/>
      <use xlink:href="#DejaVuSans-43d" x="625.830078"/>
      <use xlink:href="#DejaVuSans-44b" x="691.210938"/>
      <use xlink:href="#DejaVuSans-435" x="770.166016"/>
      <use xlink:href="#DejaVuSans-20" x="831.689453"/>
      <use xlink:href="#DejaVuSans-437" x="863.476562"/>
      <use xlink:href="#DejaVuSans-43d" x="916.650391"/>
      <use xlink:href="#DejaVuSans-430" x="982.03125"/>
      <use xlink:href="#DejaVuSans-447" x="1043.310547"/>
      <use xlink:href="#DejaVuSans-435" x="1102.392578"/>
      <use xlink:href="#DejaVuSans-43d" x="1163.916016"/>
      <use xlink:href="#DejaVuSans-438" x="1229.296875"/>
      <use xlink:href="#DejaVuSans-44f" x="1294.287109"/>
      <use xlink:href="#DejaVuSans-20" x="1354.443359"/>
      <use xlink:href="#DejaVuSans-28" x="1386.230469"/>
      <use xlink:href="#DejaVuSans-442" x="1425.244141"/>
      <use xlink:href="#DejaVuSans-435" x="1483.496094"/>
      <use xlink:href="#DejaVuSans-441" x="1545.019531"/>
      <use xlink:href="#DejaVuSans-442" x="1600"/>
      <use xlink:href="#DejaVuSans-43e" x="1658.251953"/>
      <use xlink:href="#DejaVuSans-432" x="1719.433594"/>
      <use xlink:href="#DejaVuSans-430" x="1778.369141"/>
      <use xlink:href="#DejaVuSans-44f" x="1839.648438"/>
      <use xlink:href="#DejaVuSans-20" x="1899.804688"/>
      <use xlink:href="#DejaVuSans-447" x="1931.591797"/>
      <use xlink:href="#DejaVuSans-430" x="1990.673828"/>
      <use xlink:href="#DejaVuSans-441" x="2051.953125"/>
      <use xlink:href="#DejaVuSans-442" x="2106.933594"/>
      <use xlink:href="#DejaVuSans-44c" x="2165.185547"/>
      <use xlink:href="#DejaVuSans-29" x="2224.121094"/>
     </g>
    </g>
   </g>
  </g>
 </g>
 <defs>
  <clipPath id="p0e3c00f344">
   <rect x="57.6" y="41.472" width="357.12" height="266.112"/>
  </clipPath>
 </defs>
</svg>
