<?xml version="1.0" encoding="utf-8" standalone="no"?>
<!DOCTYPE svg PUBLIC "-//W3C//DTD SVG 1.1//EN"
  "http://www.w3.org/Graphics/SVG/1.1/DTD/svg11.dtd">
<svg xmlns:xlink="http://www.w3.org/1999/xlink" width="460.8pt" height="345.6pt" viewBox="0 0 460.8 345.6" xmlns="http://www.w3.org/2000/svg" version="1.1">
 <metadata>
  <rdf:RDF xmlns:dc="http://purl.org/dc/elements/1.1/" xmlns:cc="http://creativecommons.org/ns#" xmlns:rdf="http://www.w3.org/1999/02/22-rdf-syntax-ns#">
   <cc:Work>
    <dc:type rdf:resource="http://purl.org/dc/dcmitype/StillImage"/>
    <dc:date>2024-01-07T16:52:32.493410</dc:date>
    <dc:format>image/svg+xml</dc:format>
    <dc:creator>
     <cc:Agent>
      <dc:title>Matplotlib v3.8.0, https://matplotlib.org/</dc:title>
     </cc:Agent>
    </dc:creator>
   </cc:Work>
  </rdf:RDF>
 </metadata>
 <defs>
  <style type="text/css">*{stroke-linejoin: round; stroke-linecap: butt}</style>
 </defs>
 <g id="figure_1">
  <g id="patch_1">
   <path d="M 0 345.6 
L 460.8 345.6 
L 460.8 0 
L 0 0 
z
" style="fill: #ffffff"/>
  </g>
  <g id="axes_1">
   <g id="patch_2">
    <path d="M 57.6 307.584 
L 414.72 307.584 
L 414.72 41.472 
L 57.6 41.472 
z
" style="fill: #ffffff"/>
   </g>
   <g id="matplotlib.axis_1">
    <g id="xtick_1">
     <g id="line2d_1">
      <defs>
       <path id="mfa1990ade9" d="M 0 0 
L 0 3.5 
" style="stroke: #000000; stroke-width: 0.8"/>
      </defs>
      <g>
       <use xlink:href="#mfa1990ade9" x="73.832727" y="307.584" style="stroke: #000000; stroke-width: 0.8"/>
      </g>
     </g>
     <g id="text_1">
      <!-- 0 -->
      <g transform="translate(70.651477 322.182437) scale(0.1 -0.1)">
       <defs>
        <path id="DejaVuSans-30" d="M 2034 4250 
Q 1547 4250 1301 3770 
Q 1056 3291 1056 2328 
Q 1056 1369 1301 889 
Q 1547 409 2034 409 
Q 2525 409 2770 889 
Q 3016 1369 3016 2328 
Q 3016 3291 2770 3770 
Q 2525 4250 2034 4250 
z
M 2034 4750 
Q 2819 4750 3233 4129 
Q 3647 3509 3647 2328 
Q 3647 1150 3233 529 
Q 2819 -91 2034 -91 
Q 1250 -91 836 529 
Q 422 1150 422 2328 
Q 422 3509 836 4129 
Q 1250 4750 2034 4750 
z
" transform="scale(0.015625)"/>
       </defs>
       <use xlink:href="#DejaVuSans-30"/>
      </g>
     </g>
    </g>
    <g id="xtick_2">
     <g id="line2d_2">
      <g>
       <use xlink:href="#mfa1990ade9" x="138.828632" y="307.584" style="stroke: #000000; stroke-width: 0.8"/>
      </g>
     </g>
     <g id="text_2">
      <!-- 200 -->
      <g transform="translate(129.284882 322.182437) scale(0.1 -0.1)">
       <defs>
        <path id="DejaVuSans-32" d="M 1228 531 
L 3431 531 
L 3431 0 
L 469 0 
L 469 531 
Q 828 903 1448 1529 
Q 2069 2156 2228 2338 
Q 2531 2678 2651 2914 
Q 2772 3150 2772 3378 
Q 2772 3750 2511 3984 
Q 2250 4219 1831 4219 
Q 1534 4219 1204 4116 
Q 875 4013 500 3803 
L 500 4441 
Q 881 4594 1212 4672 
Q 1544 4750 1819 4750 
Q 2544 4750 2975 4387 
Q 3406 4025 3406 3419 
Q 3406 3131 3298 2873 
Q 3191 2616 2906 2266 
Q 2828 2175 2409 1742 
Q 1991 1309 1228 531 
z
" transform="scale(0.015625)"/>
       </defs>
       <use xlink:href="#DejaVuSans-32"/>
       <use xlink:href="#DejaVuSans-30" x="63.623047"/>
       <use xlink:href="#DejaVuSans-30" x="127.246094"/>
      </g>
     </g>
    </g>
    <g id="xtick_3">
     <g id="line2d_3">
      <g>
       <use xlink:href="#mfa1990ade9" x="203.824537" y="307.584" style="stroke: #000000; stroke-width: 0.8"/>
      </g>
     </g>
     <g id="text_3">
      <!-- 400 -->
      <g transform="translate(194.280787 322.182437) scale(0.1 -0.1)">
       <defs>
        <path id="DejaVuSans-34" d="M 2419 4116 
L 825 1625 
L 2419 1625 
L 2419 4116 
z
M 2253 4666 
L 3047 4666 
L 3047 1625 
L 3713 1625 
L 3713 1100 
L 3047 1100 
L 3047 0 
L 2419 0 
L 2419 1100 
L 313 1100 
L 313 1709 
L 2253 4666 
z
" transform="scale(0.015625)"/>
       </defs>
       <use xlink:href="#DejaVuSans-34"/>
       <use xlink:href="#DejaVuSans-30" x="63.623047"/>
       <use xlink:href="#DejaVuSans-30" x="127.246094"/>
      </g>
     </g>
    </g>
    <g id="xtick_4">
     <g id="line2d_4">
      <g>
       <use xlink:href="#mfa1990ade9" x="268.820442" y="307.584" style="stroke: #000000; stroke-width: 0.8"/>
      </g>
     </g>
     <g id="text_4">
      <!-- 600 -->
      <g transform="translate(259.276692 322.182437) scale(0.1 -0.1)">
       <defs>
        <path id="DejaVuSans-36" d="M 2113 2584 
Q 1688 2584 1439 2293 
Q 1191 2003 1191 1497 
Q 1191 994 1439 701 
Q 1688 409 2113 409 
Q 2538 409 2786 701 
Q 3034 994 3034 1497 
Q 3034 2003 2786 2293 
Q 2538 2584 2113 2584 
z
M 3366 4563 
L 3366 3988 
Q 3128 4100 2886 4159 
Q 2644 4219 2406 4219 
Q 1781 4219 1451 3797 
Q 1122 3375 1075 2522 
Q 1259 2794 1537 2939 
Q 1816 3084 2150 3084 
Q 2853 3084 3261 2657 
Q 3669 2231 3669 1497 
Q 3669 778 3244 343 
Q 2819 -91 2113 -91 
Q 1303 -91 875 529 
Q 447 1150 447 2328 
Q 447 3434 972 4092 
Q 1497 4750 2381 4750 
Q 2619 4750 2861 4703 
Q 3103 4656 3366 4563 
z
" transform="scale(0.015625)"/>
       </defs>
       <use xlink:href="#DejaVuSans-36"/>
       <use xlink:href="#DejaVuSans-30" x="63.623047"/>
       <use xlink:href="#DejaVuSans-30" x="127.246094"/>
      </g>
     </g>
    </g>
    <g id="xtick_5">
     <g id="line2d_5">
      <g>
       <use xlink:href="#mfa1990ade9" x="333.816347" y="307.584" style="stroke: #000000; stroke-width: 0.8"/>
      </g>
     </g>
     <g id="text_5">
      <!-- 800 -->
      <g transform="translate(324.272597 322.182437) scale(0.1 -0.1)">
       <defs>
        <path id="DejaVuSans-38" d="M 2034 2216 
Q 1584 2216 1326 1975 
Q 1069 1734 1069 1313 
Q 1069 891 1326 650 
Q 1584 409 2034 409 
Q 2484 409 2743 651 
Q 3003 894 3003 1313 
Q 3003 1734 2745 1975 
Q 2488 2216 2034 2216 
z
M 1403 2484 
Q 997 2584 770 2862 
Q 544 3141 544 3541 
Q 544 4100 942 4425 
Q 1341 4750 2034 4750 
Q 2731 4750 3128 4425 
Q 3525 4100 3525 3541 
Q 3525 3141 3298 2862 
Q 3072 2584 2669 2484 
Q 3125 2378 3379 2068 
Q 3634 1759 3634 1313 
Q 3634 634 3220 271 
Q 2806 -91 2034 -91 
Q 1263 -91 848 271 
Q 434 634 434 1313 
Q 434 1759 690 2068 
Q 947 2378 1403 2484 
z
M 1172 3481 
Q 1172 3119 1398 2916 
Q 1625 2713 2034 2713 
Q 2441 2713 2670 2916 
Q 2900 3119 2900 3481 
Q 2900 3844 2670 4047 
Q 2441 4250 2034 4250 
Q 1625 4250 1398 4047 
Q 1172 3844 1172 3481 
z
" transform="scale(0.015625)"/>
       </defs>
       <use xlink:href="#DejaVuSans-38"/>
       <use xlink:href="#DejaVuSans-30" x="63.623047"/>
       <use xlink:href="#DejaVuSans-30" x="127.246094"/>
      </g>
     </g>
    </g>
    <g id="xtick_6">
     <g id="line2d_6">
      <g>
       <use xlink:href="#mfa1990ade9" x="398.812252" y="307.584" style="stroke: #000000; stroke-width: 0.8"/>
      </g>
     </g>
     <g id="text_6">
      <!-- 1000 -->
      <g transform="translate(386.087252 322.182437) scale(0.1 -0.1)">
       <defs>
        <path id="DejaVuSans-31" d="M 794 531 
L 1825 531 
L 1825 4091 
L 703 3866 
L 703 4441 
L 1819 4666 
L 2450 4666 
L 2450 531 
L 3481 531 
L 3481 0 
L 794 0 
L 794 531 
z
" transform="scale(0.015625)"/>
       </defs>
       <use xlink:href="#DejaVuSans-31"/>
       <use xlink:href="#DejaVuSans-30" x="63.623047"/>
       <use xlink:href="#DejaVuSans-30" x="127.246094"/>
       <use xlink:href="#DejaVuSans-30" x="190.869141"/>
      </g>
     </g>
    </g>
    <g id="text_7">
     <!-- Момент времени $t$ -->
     <g transform="translate(188.01 335.84025) scale(0.1 -0.1)">
      <defs>
       <path id="DejaVuSans-41c" d="M 628 4666 
L 1569 4666 
L 2759 1491 
L 3956 4666 
L 4897 4666 
L 4897 0 
L 4281 0 
L 4281 4097 
L 3078 897 
L 2444 897 
L 1241 4097 
L 1241 0 
L 628 0 
L 628 4666 
z
" transform="scale(0.015625)"/>
       <path id="DejaVuSans-43e" d="M 1959 3097 
Q 1497 3097 1228 2736 
Q 959 2375 959 1747 
Q 959 1119 1226 758 
Q 1494 397 1959 397 
Q 2419 397 2687 759 
Q 2956 1122 2956 1747 
Q 2956 2369 2687 2733 
Q 2419 3097 1959 3097 
z
M 1959 3584 
Q 2709 3584 3137 3096 
Q 3566 2609 3566 1747 
Q 3566 888 3137 398 
Q 2709 -91 1959 -91 
Q 1206 -91 779 398 
Q 353 888 353 1747 
Q 353 2609 779 3096 
Q 1206 3584 1959 3584 
z
" transform="scale(0.015625)"/>
       <path id="DejaVuSans-43c" d="M 581 3500 
L 1422 3500 
L 2416 1156 
L 3413 3500 
L 4247 3500 
L 4247 0 
L 3669 0 
L 3669 2950 
L 2703 672 
L 2128 672 
L 1159 2950 
L 1159 0 
L 581 0 
L 581 3500 
z
" transform="scale(0.015625)"/>
       <path id="DejaVuSans-435" d="M 3597 1894 
L 3597 1613 
L 953 1613 
Q 991 1019 1311 708 
Q 1631 397 2203 397 
Q 2534 397 2845 478 
Q 3156 559 3463 722 
L 3463 178 
Q 3153 47 2828 -22 
Q 2503 -91 2169 -91 
Q 1331 -91 842 396 
Q 353 884 353 1716 
Q 353 2575 817 3079 
Q 1281 3584 2069 3584 
Q 2775 3584 3186 3129 
Q 3597 2675 3597 1894 
z
M 3022 2063 
Q 3016 2534 2758 2815 
Q 2500 3097 2075 3097 
Q 1594 3097 1305 2825 
Q 1016 2553 972 2059 
L 3022 2063 
z
" transform="scale(0.015625)"/>
       <path id="DejaVuSans-43d" d="M 581 3500 
L 1159 3500 
L 1159 2072 
L 3025 2072 
L 3025 3500 
L 3603 3500 
L 3603 0 
L 3025 0 
L 3025 1613 
L 1159 1613 
L 1159 0 
L 581 0 
L 581 3500 
z
" transform="scale(0.015625)"/>
       <path id="DejaVuSans-442" d="M 188 3500 
L 3541 3500 
L 3541 3041 
L 2147 3041 
L 2147 0 
L 1581 0 
L 1581 3041 
L 188 3041 
L 188 3500 
z
" transform="scale(0.015625)"/>
       <path id="DejaVuSans-20" transform="scale(0.015625)"/>
       <path id="DejaVuSans-432" d="M 1156 1613 
L 1156 459 
L 1975 459 
Q 2369 459 2575 607 
Q 2781 756 2781 1038 
Q 2781 1319 2575 1466 
Q 2369 1613 1975 1613 
L 1156 1613 
z
M 1156 3041 
L 1156 2072 
L 1913 2072 
Q 2238 2072 2444 2201 
Q 2650 2331 2650 2563 
Q 2650 2794 2444 2917 
Q 2238 3041 1913 3041 
L 1156 3041 
z
M 581 3500 
L 1950 3500 
Q 2566 3500 2897 3275 
Q 3228 3050 3228 2634 
Q 3228 2313 3059 2123 
Q 2891 1934 2559 1888 
Q 2956 1813 3175 1575 
Q 3394 1338 3394 981 
Q 3394 513 3033 256 
Q 2672 0 2003 0 
L 581 0 
L 581 3500 
z
" transform="scale(0.015625)"/>
       <path id="DejaVuSans-440" d="M 1159 525 
L 1159 -1331 
L 581 -1331 
L 581 3500 
L 1159 3500 
L 1159 2969 
Q 1341 3281 1617 3432 
Q 1894 3584 2278 3584 
Q 2916 3584 3314 3078 
Q 3713 2572 3713 1747 
Q 3713 922 3314 415 
Q 2916 -91 2278 -91 
Q 1894 -91 1617 61 
Q 1341 213 1159 525 
z
M 3116 1747 
Q 3116 2381 2855 2742 
Q 2594 3103 2138 3103 
Q 1681 3103 1420 2742 
Q 1159 2381 1159 1747 
Q 1159 1113 1420 752 
Q 1681 391 2138 391 
Q 2594 391 2855 752 
Q 3116 1113 3116 1747 
z
" transform="scale(0.015625)"/>
       <path id="DejaVuSans-438" d="M 3578 3500 
L 3578 0 
L 3006 0 
L 3006 2809 
L 1319 0 
L 581 0 
L 581 3500 
L 1153 3500 
L 1153 697 
L 2838 3500 
L 3578 3500 
z
" transform="scale(0.015625)"/>
       <path id="DejaVuSans-Oblique-74" d="M 2706 3500 
L 2619 3053 
L 1472 3053 
L 1100 1153 
Q 1081 1047 1072 975 
Q 1063 903 1063 863 
Q 1063 663 1183 572 
Q 1303 481 1569 481 
L 2150 481 
L 2053 0 
L 1503 0 
Q 991 0 739 200 
Q 488 400 488 806 
Q 488 878 497 964 
Q 506 1050 525 1153 
L 897 3053 
L 409 3053 
L 500 3500 
L 978 3500 
L 1172 4494 
L 1747 4494 
L 1556 3500 
L 2706 3500 
z
" transform="scale(0.015625)"/>
      </defs>
      <use xlink:href="#DejaVuSans-41c" transform="translate(0 0.09375)"/>
      <use xlink:href="#DejaVuSans-43e" transform="translate(86.279297 0.09375)"/>
      <use xlink:href="#DejaVuSans-43c" transform="translate(147.460938 0.09375)"/>
      <use xlink:href="#DejaVuSans-435" transform="translate(222.900391 0.09375)"/>
      <use xlink:href="#DejaVuSans-43d" transform="translate(284.423828 0.09375)"/>
      <use xlink:href="#DejaVuSans-442" transform="translate(349.804688 0.09375)"/>
      <use xlink:href="#DejaVuSans-20" transform="translate(408.056641 0.09375)"/>
      <use xlink:href="#DejaVuSans-432" transform="translate(439.84375 0.09375)"/>
      <use xlink:href="#DejaVuSans-440" transform="translate(498.779297 0.09375)"/>
      <use xlink:href="#DejaVuSans-435" transform="translate(562.255859 0.09375)"/>
      <use xlink:href="#DejaVuSans-43c" transform="translate(623.779297 0.09375)"/>
      <use xlink:href="#DejaVuSans-435" transform="translate(699.21875 0.09375)"/>
      <use xlink:href="#DejaVuSans-43d" transform="translate(760.742188 0.09375)"/>
      <use xlink:href="#DejaVuSans-438" transform="translate(826.123047 0.09375)"/>
      <use xlink:href="#DejaVuSans-20" transform="translate(891.113281 0.09375)"/>
      <use xlink:href="#DejaVuSans-Oblique-74" transform="translate(922.900391 0.09375)"/>
     </g>
    </g>
   </g>
   <g id="matplotlib.axis_2">
    <g id="ytick_1">
     <g id="line2d_7">
      <defs>
       <path id="m5e3aa80e78" d="M 0 0 
L -3.5 0 
" style="stroke: #000000; stroke-width: 0.8"/>
      </defs>
      <g>
       <use xlink:href="#m5e3aa80e78" x="57.6" y="302.306029" style="stroke: #000000; stroke-width: 0.8"/>
      </g>
     </g>
     <g id="text_8">
      <!-- −8 -->
      <g transform="translate(35.857813 306.105248) scale(0.1 -0.1)">
       <defs>
        <path id="DejaVuSans-2212" d="M 678 2272 
L 4684 2272 
L 4684 1741 
L 678 1741 
L 678 2272 
z
" transform="scale(0.015625)"/>
       </defs>
       <use xlink:href="#DejaVuSans-2212"/>
       <use xlink:href="#DejaVuSans-38" x="83.789062"/>
      </g>
     </g>
    </g>
    <g id="ytick_2">
     <g id="line2d_8">
      <g>
       <use xlink:href="#m5e3aa80e78" x="57.6" y="267.9222" style="stroke: #000000; stroke-width: 0.8"/>
      </g>
     </g>
     <g id="text_9">
      <!-- −6 -->
      <g transform="translate(35.857813 271.721419) scale(0.1 -0.1)">
       <use xlink:href="#DejaVuSans-2212"/>
       <use xlink:href="#DejaVuSans-36" x="83.789062"/>
      </g>
     </g>
    </g>
    <g id="ytick_3">
     <g id="line2d_9">
      <g>
       <use xlink:href="#m5e3aa80e78" x="57.6" y="233.538371" style="stroke: #000000; stroke-width: 0.8"/>
      </g>
     </g>
     <g id="text_10">
      <!-- −4 -->
      <g transform="translate(35.857813 237.337589) scale(0.1 -0.1)">
       <use xlink:href="#DejaVuSans-2212"/>
       <use xlink:href="#DejaVuSans-34" x="83.789062"/>
      </g>
     </g>
    </g>
    <g id="ytick_4">
     <g id="line2d_10">
      <g>
       <use xlink:href="#m5e3aa80e78" x="57.6" y="199.154541" style="stroke: #000000; stroke-width: 0.8"/>
      </g>
     </g>
     <g id="text_11">
      <!-- −2 -->
      <g transform="translate(35.857813 202.95376) scale(0.1 -0.1)">
       <use xlink:href="#DejaVuSans-2212"/>
       <use xlink:href="#DejaVuSans-32" x="83.789062"/>
      </g>
     </g>
    </g>
    <g id="ytick_5">
     <g id="line2d_11">
      <g>
       <use xlink:href="#m5e3aa80e78" x="57.6" y="164.770712" style="stroke: #000000; stroke-width: 0.8"/>
      </g>
     </g>
     <g id="text_12">
      <!-- 0 -->
      <g transform="translate(44.2375 168.569931) scale(0.1 -0.1)">
       <use xlink:href="#DejaVuSans-30"/>
      </g>
     </g>
    </g>
    <g id="ytick_6">
     <g id="line2d_12">
      <g>
       <use xlink:href="#m5e3aa80e78" x="57.6" y="130.386883" style="stroke: #000000; stroke-width: 0.8"/>
      </g>
     </g>
     <g id="text_13">
      <!-- 2 -->
      <g transform="translate(44.2375 134.186101) scale(0.1 -0.1)">
       <use xlink:href="#DejaVuSans-32"/>
      </g>
     </g>
    </g>
    <g id="ytick_7">
     <g id="line2d_13">
      <g>
       <use xlink:href="#m5e3aa80e78" x="57.6" y="96.003053" style="stroke: #000000; stroke-width: 0.8"/>
      </g>
     </g>
     <g id="text_14">
      <!-- 4 -->
      <g transform="translate(44.2375 99.802272) scale(0.1 -0.1)">
       <use xlink:href="#DejaVuSans-34"/>
      </g>
     </g>
    </g>
    <g id="ytick_8">
     <g id="line2d_14">
      <g>
       <use xlink:href="#m5e3aa80e78" x="57.6" y="61.619224" style="stroke: #000000; stroke-width: 0.8"/>
      </g>
     </g>
     <g id="text_15">
      <!-- 6 -->
      <g transform="translate(44.2375 65.418443) scale(0.1 -0.1)">
       <use xlink:href="#DejaVuSans-36"/>
      </g>
     </g>
    </g>
    <g id="text_16">
     <!-- Значения ряда -->
     <g transform="translate(29.778125 213.914719) rotate(-90) scale(0.1 -0.1)">
      <defs>
       <path id="DejaVuSans-417" d="M 1828 4750 
Q 2597 4750 3084 4423 
Q 3572 4097 3572 3541 
Q 3572 3153 3350 2886 
Q 3128 2619 2719 2516 
Q 3172 2419 3426 2112 
Q 3681 1806 3681 1356 
Q 3681 638 3126 273 
Q 2572 -91 1828 -91 
Q 1447 -91 1003 12 
Q 559 116 422 203 
L 422 853 
Q 900 575 1164 508 
Q 1428 441 1816 441 
Q 2403 441 2728 666 
Q 3053 891 3053 1356 
Q 3053 1769 2764 2001 
Q 2475 2234 1866 2234 
L 1228 2234 
L 1228 2753 
L 1891 2753 
Q 2450 2753 2697 2939 
Q 2944 3125 2944 3475 
Q 2944 3834 2689 4026 
Q 2434 4219 1816 4219 
Q 1397 4219 1253 4181 
Q 1109 4144 469 3903 
L 469 4519 
Q 822 4644 1190 4697 
Q 1559 4750 1828 4750 
z
" transform="scale(0.015625)"/>
       <path id="DejaVuSans-430" d="M 2194 1759 
Q 1497 1759 1228 1600 
Q 959 1441 959 1056 
Q 959 750 1161 570 
Q 1363 391 1709 391 
Q 2188 391 2477 730 
Q 2766 1069 2766 1631 
L 2766 1759 
L 2194 1759 
z
M 3341 1997 
L 3341 0 
L 2766 0 
L 2766 531 
Q 2569 213 2275 61 
Q 1981 -91 1556 -91 
Q 1019 -91 701 211 
Q 384 513 384 1019 
Q 384 1609 779 1909 
Q 1175 2209 1959 2209 
L 2766 2209 
L 2766 2266 
Q 2766 2663 2505 2880 
Q 2244 3097 1772 3097 
Q 1472 3097 1187 3025 
Q 903 2953 641 2809 
L 641 3341 
Q 956 3463 1253 3523 
Q 1550 3584 1831 3584 
Q 2591 3584 2966 3190 
Q 3341 2797 3341 1997 
z
" transform="scale(0.015625)"/>
       <path id="DejaVuSans-447" d="M 2625 0 
L 2625 1472 
L 1553 1472 
Q 1075 1472 756 1769 
Q 469 2038 469 2613 
L 469 3500 
L 1044 3500 
L 1044 2666 
Q 1044 2300 1206 2116 
Q 1372 1931 1697 1931 
L 2625 1931 
L 2625 3500 
L 3200 3500 
L 3200 0 
L 2625 0 
z
" transform="scale(0.015625)"/>
       <path id="DejaVuSans-44f" d="M 1181 2491 
Q 1181 2231 1381 2084 
Q 1581 1938 1953 1938 
L 2728 1938 
L 2728 3041 
L 1953 3041 
Q 1581 3041 1381 2897 
Q 1181 2753 1181 2491 
z
M 363 0 
L 1431 1534 
Q 1069 1616 828 1830 
Q 588 2044 588 2491 
Q 588 2997 923 3248 
Q 1259 3500 1938 3500 
L 3306 3500 
L 3306 0 
L 2728 0 
L 2728 1478 
L 2013 1478 
L 981 0 
L 363 0 
z
" transform="scale(0.015625)"/>
       <path id="DejaVuSans-434" d="M 1384 459 
L 3053 459 
L 3053 3041 
L 1844 3041 
L 1844 2603 
Q 1844 1316 1475 628 
L 1384 459 
z
M 550 459 
Q 834 584 959 850 
Q 1266 1509 1266 2838 
L 1266 3500 
L 3631 3500 
L 3631 459 
L 4091 459 
L 4091 -884 
L 3631 -884 
L 3631 0 
L 794 0 
L 794 -884 
L 334 -884 
L 334 459 
L 550 459 
z
" transform="scale(0.015625)"/>
      </defs>
      <use xlink:href="#DejaVuSans-417"/>
      <use xlink:href="#DejaVuSans-43d" x="64.111328"/>
      <use xlink:href="#DejaVuSans-430" x="129.492188"/>
      <use xlink:href="#DejaVuSans-447" x="190.771484"/>
      <use xlink:href="#DejaVuSans-435" x="249.853516"/>
      <use xlink:href="#DejaVuSans-43d" x="311.376953"/>
      <use xlink:href="#DejaVuSans-438" x="376.757812"/>
      <use xlink:href="#DejaVuSans-44f" x="441.748047"/>
      <use xlink:href="#DejaVuSans-20" x="501.904297"/>
      <use xlink:href="#DejaVuSans-440" x="533.691406"/>
      <use xlink:href="#DejaVuSans-44f" x="597.167969"/>
      <use xlink:href="#DejaVuSans-434" x="657.324219"/>
      <use xlink:href="#DejaVuSans-430" x="726.464844"/>
     </g>
    </g>
   </g>
   <g id="line2d_15">
    <path d="M 73.832727 295.488 
L 74.157707 218.539395 
L 74.482686 53.568 
L 74.807666 262.190621 
L 75.457625 109.132306 
L 75.782604 231.23512 
L 76.107584 161.145416 
L 76.432563 141.61004 
L 76.757543 205.604933 
L 77.082523 162.665154 
L 77.407502 162.606174 
L 77.732482 186.777559 
L 78.057461 163.022965 
L 78.382441 164.138073 
L 78.70742 180.327496 
L 79.0324 163.885606 
L 79.357379 163.112732 
L 79.682359 173.703599 
L 80.332318 159.54703 
L 80.657297 170.18706 
L 80.982277 163.606669 
L 81.307256 162.68648 
L 81.632236 166.198655 
L 81.957215 164.66314 
L 82.282195 161.104663 
L 82.607174 164.640985 
L 82.932154 170.049006 
L 83.257133 163.196717 
L 83.582113 162.376828 
L 83.907093 166.869014 
L 84.232072 157.149608 
L 84.557052 167.250716 
L 84.882031 168.097575 
L 85.207011 161.688181 
L 85.53199 162.395287 
L 85.85697 164.726857 
L 86.181949 162.667191 
L 86.506929 164.630864 
L 86.831908 171.850272 
L 87.481867 164.381308 
L 87.806847 172.051189 
L 88.456806 159.755926 
L 88.781785 175.804289 
L 89.106765 160.846498 
L 89.756724 168.758497 
L 90.081704 157.599867 
L 90.406683 168.033519 
L 90.731663 165.155557 
L 91.056642 159.305638 
L 91.381622 166.965183 
L 91.706601 159.411136 
L 92.031581 160.948002 
L 92.35656 166.006133 
L 92.68154 162.917163 
L 93.006519 163.127255 
L 93.331499 166.455453 
L 93.656478 166.337129 
L 93.981458 169.118431 
L 94.306437 163.073004 
L 94.631417 168.640306 
L 94.956396 167.18893 
L 95.281376 166.320583 
L 95.606355 169.045685 
L 95.931335 162.159275 
L 96.256314 164.168423 
L 96.581294 168.275208 
L 96.906274 164.910826 
L 97.231253 158.707467 
L 97.556233 163.959763 
L 97.881212 161.529578 
L 98.206192 167.98118 
L 98.531171 159.315148 
L 98.856151 158.586227 
L 99.18113 167.276937 
L 99.50611 156.807996 
L 99.831089 161.860043 
L 100.156069 162.700452 
L 100.481048 158.904088 
L 100.806028 167.788511 
L 101.131007 164.697671 
L 101.455987 160.247273 
L 101.780966 170.676916 
L 102.105946 161.574823 
L 102.430925 159.910791 
L 102.755905 167.140454 
L 103.405864 160.335187 
L 103.730844 170.229912 
L 104.380803 160.582399 
L 104.705782 169.209786 
L 105.030762 160.274221 
L 105.355741 163.492454 
L 105.680721 158.813674 
L 106.0057 167.558393 
L 106.33068 161.236789 
L 106.980639 165.355327 
L 107.305618 163.251344 
L 107.630598 158.507518 
L 107.955577 163.346941 
L 108.280557 159.785319 
L 108.605536 160.179974 
L 108.930516 160.754495 
L 109.255495 164.000495 
L 109.580475 160.159401 
L 109.905455 161.145032 
L 110.230434 159.377165 
L 110.555414 167.442761 
L 110.880393 165.345455 
L 111.205373 164.920575 
L 111.530352 169.029998 
L 111.855332 166.557769 
L 112.180311 166.545708 
L 112.505291 172.209204 
L 112.83027 171.46036 
L 113.15525 165.000974 
L 113.480229 162.926946 
L 113.805209 171.776733 
L 114.130188 156.974151 
L 114.455168 165.454816 
L 114.780147 170.253723 
L 115.105127 162.088983 
L 115.430106 168.147316 
L 115.755086 169.362789 
L 116.080066 166.536734 
L 116.405045 168.663194 
L 116.730025 169.257755 
L 117.055004 164.161988 
L 117.379984 172.020866 
L 117.704963 167.755627 
L 118.029943 170.52531 
L 118.354922 171.34502 
L 118.679902 166.686749 
L 119.004881 166.734218 
L 119.329861 169.679912 
L 119.97982 158.462273 
L 120.304799 167.973587 
L 120.629779 167.674056 
L 120.954758 164.128507 
L 121.279738 163.975468 
L 121.604717 160.365904 
L 121.929697 164.275454 
L 122.254676 157.951865 
L 122.579656 165.742158 
L 122.904636 160.597591 
L 123.229615 167.092954 
L 123.554595 167.952457 
L 123.879574 161.505052 
L 124.204554 166.628463 
L 124.854513 157.287674 
L 125.179492 163.497462 
L 125.504472 166.382195 
L 125.829451 158.650111 
L 126.154431 159.811168 
L 126.47941 163.33735 
L 126.80439 157.631777 
L 127.129369 165.965004 
L 127.454349 159.113502 
L 127.779328 166.520659 
L 128.104308 165.71584 
L 128.429287 159.201841 
L 128.754267 169.380784 
L 129.079247 170.332579 
L 129.404226 158.633105 
L 129.729206 170.674457 
L 130.054185 168.80895 
L 130.379165 160.818161 
L 130.704144 168.952278 
L 131.029124 171.485126 
L 131.354103 163.968805 
L 131.679083 171.595145 
L 132.329042 162.125217 
L 132.654021 166.150393 
L 132.979001 167.026884 
L 133.30398 161.240968 
L 133.953939 166.385181 
L 134.278919 168.211844 
L 134.603898 168.41314 
L 135.253857 166.137027 
L 135.578837 172.894847 
L 135.903817 164.171819 
L 136.228796 166.279888 
L 136.553776 169.978242 
L 136.878755 165.300941 
L 137.203735 166.880875 
L 137.528714 173.034022 
L 137.853694 165.004712 
L 138.178673 162.433275 
L 138.503653 168.985529 
L 138.828632 161.061906 
L 139.478591 168.527601 
L 139.803571 160.501852 
L 140.45353 165.119857 
L 140.778509 165.126743 
L 141.103489 164.451632 
L 141.428468 165.20228 
L 141.753448 164.856147 
L 142.078428 170.044196 
L 142.403407 166.823027 
L 142.728387 167.583124 
L 143.053366 163.60323 
L 143.378346 169.149581 
L 143.703325 164.084568 
L 144.353284 171.685288 
L 144.678264 168.487485 
L 145.003243 173.857501 
L 145.328223 177.027353 
L 145.653202 168.506131 
L 145.978182 168.673368 
L 146.303161 173.655902 
L 146.628141 166.711567 
L 146.95312 169.666532 
L 147.2781 175.888899 
L 147.603079 166.318794 
L 147.928059 171.596849 
L 148.253038 171.574103 
L 148.578018 164.693188 
L 148.902998 166.057825 
L 149.227977 162.521415 
L 149.877936 168.50804 
L 150.202916 165.36609 
L 150.527895 163.773372 
L 150.852875 165.154906 
L 151.177854 164.889979 
L 151.502834 168.253254 
L 152.152793 159.634736 
L 152.477772 168.860362 
L 152.802752 160.035119 
L 153.127731 160.059218 
L 153.452711 164.946092 
L 153.77769 162.976085 
L 154.10267 158.536642 
L 154.427649 163.032018 
L 154.752629 162.975428 
L 155.077609 157.759165 
L 155.402588 170.326901 
L 155.727568 166.833565 
L 156.052547 159.580279 
L 156.377527 163.065489 
L 156.702506 174.447716 
L 157.027486 161.484195 
L 157.677445 171.4282 
L 158.002424 163.236818 
L 158.327404 169.96662 
L 158.652383 160.80991 
L 158.977363 161.32083 
L 159.302342 165.810801 
L 159.627322 165.742459 
L 159.952301 166.207928 
L 160.277281 163.181422 
L 160.60226 167.363593 
L 161.252219 161.644154 
L 161.577199 168.264537 
L 161.902179 162.068534 
L 162.227158 162.164651 
L 162.552138 166.473505 
L 162.877117 160.774565 
L 163.202097 167.428452 
L 163.527076 166.71131 
L 163.852056 166.701535 
L 164.177035 166.340559 
L 164.502015 168.612207 
L 164.826994 169.943506 
L 165.151974 162.584117 
L 165.476953 162.31813 
L 165.801933 164.169211 
L 166.126912 161.240031 
L 166.451892 163.447667 
L 166.776871 167.098915 
L 167.101851 155.85169 
L 167.75181 168.268678 
L 168.07679 158.346685 
L 168.401769 160.018914 
L 168.726749 164.07985 
L 169.051728 160.389859 
L 169.376708 159.012745 
L 169.701687 170.708209 
L 170.026667 160.215378 
L 170.351646 168.513196 
L 170.676626 165.620567 
L 171.001605 159.587249 
L 171.326585 167.380214 
L 171.651564 170.020161 
L 171.976544 163.898856 
L 172.301523 163.539479 
L 172.626503 169.951522 
L 172.951482 161.666287 
L 173.276462 162.082846 
L 173.601441 165.658805 
L 173.926421 161.211832 
L 174.2514 161.094278 
L 174.57638 160.569278 
L 174.90136 160.940022 
L 175.226339 153.47749 
L 175.551319 164.556189 
L 175.876298 156.287468 
L 176.201278 157.511215 
L 176.526257 161.299693 
L 176.851237 158.391318 
L 177.176216 158.868554 
L 177.501196 164.302709 
L 177.826175 154.258354 
L 178.151155 156.533189 
L 178.476134 164.702261 
L 178.801114 156.457637 
L 179.126093 164.027336 
L 179.451073 161.726685 
L 179.776052 160.666323 
L 180.101032 164.428053 
L 180.426011 163.422569 
L 180.750991 163.948246 
L 181.075971 168.089415 
L 181.40095 160.122041 
L 181.72593 172.667351 
L 182.050909 165.430515 
L 182.375889 162.713228 
L 182.700868 170.616972 
L 183.350827 162.013054 
L 183.675807 167.999326 
L 184.000786 163.419053 
L 184.650745 159.536772 
L 184.975725 163.141485 
L 185.300704 168.305952 
L 185.625684 162.343315 
L 185.950663 163.70243 
L 186.275643 163.716887 
L 186.600622 164.989287 
L 187.250581 161.303187 
L 187.575561 167.115679 
L 187.900541 166.56921 
L 188.22552 157.62855 
L 188.5505 161.842537 
L 188.875479 170.296903 
L 189.200459 158.32642 
L 189.525438 160.750341 
L 189.850418 171.365188 
L 190.175397 154.447118 
L 190.825356 172.053935 
L 191.150336 160.208672 
L 191.475315 163.961598 
L 191.800295 165.065036 
L 192.125274 159.490727 
L 192.450254 172.1411 
L 192.775233 163.336872 
L 193.100213 160.13296 
L 193.425192 170.579339 
L 193.750172 168.989694 
L 194.075152 163.292034 
L 194.400131 167.783901 
L 194.725111 170.536223 
L 195.05009 162.682537 
L 195.37507 170.436134 
L 196.025029 165.524161 
L 196.350008 169.172047 
L 196.674988 170.301061 
L 196.999967 164.820439 
L 197.324947 166.274997 
L 197.649926 169.537474 
L 197.974906 161.822224 
L 198.299885 163.183664 
L 198.624865 169.504777 
L 198.949844 160.995348 
L 199.274824 169.565454 
L 199.599803 167.954267 
L 199.924783 158.30085 
L 200.249762 167.514248 
L 200.574742 159.95108 
L 200.899722 165.413136 
L 201.224701 161.888432 
L 201.549681 163.952999 
L 202.19964 166.122864 
L 202.524619 161.996053 
L 202.849599 173.90357 
L 203.174578 170.267302 
L 203.499558 157.113332 
L 203.824537 172.457966 
L 204.149517 163.586482 
L 204.474496 158.783643 
L 204.799476 172.109545 
L 205.124455 162.25806 
L 205.449435 160.36958 
L 205.774414 174.046405 
L 206.099394 166.476066 
L 206.424373 164.626798 
L 206.749353 173.14801 
L 207.399312 162.442231 
L 207.724292 174.070832 
L 208.049271 163.373878 
L 208.374251 169.360639 
L 208.69923 171.944807 
L 209.02421 164.102064 
L 209.349189 168.435486 
L 209.674169 166.824681 
L 209.999148 160.948579 
L 210.324128 163.155046 
L 210.649107 167.814368 
L 211.299066 162.465626 
L 211.624046 164.416661 
L 211.949025 162.647605 
L 212.274005 169.037238 
L 212.598984 164.32876 
L 212.923964 163.286695 
L 213.248943 162.872872 
L 213.898903 160.832023 
L 214.223882 156.432961 
L 214.548862 156.882656 
L 214.873841 159.370856 
L 215.198821 159.256632 
L 215.5238 155.839834 
L 215.84878 160.052965 
L 216.173759 165.795989 
L 216.498739 159.228169 
L 216.823718 168.825845 
L 217.148698 162.203461 
L 217.473677 164.125866 
L 217.798657 163.869301 
L 218.123636 160.627908 
L 218.773595 167.596934 
L 219.098575 157.834689 
L 219.748534 171.120552 
L 220.073514 162.851965 
L 220.398493 166.123143 
L 220.723473 164.521251 
L 221.048452 166.060749 
L 221.373432 164.573883 
L 221.698411 166.931319 
L 222.023391 164.010778 
L 222.34837 168.961517 
L 222.998329 164.513232 
L 223.323309 164.925591 
L 223.648288 172.16507 
L 223.973268 163.669327 
L 224.298247 163.37036 
L 224.623227 172.714493 
L 224.948206 156.709229 
L 225.273186 162.106672 
L 225.598165 165.493949 
L 225.923145 158.15705 
L 226.248124 171.134823 
L 226.573104 161.001909 
L 226.898084 161.156899 
L 227.223063 167.572455 
L 227.548043 161.57265 
L 227.873022 173.002122 
L 228.198002 163.053048 
L 228.522981 160.31808 
L 228.847961 165.4245 
L 229.17294 165.242114 
L 229.49792 161.875417 
L 229.822899 162.613469 
L 230.147879 162.958391 
L 230.472858 161.042108 
L 230.797838 167.538306 
L 231.122817 161.378324 
L 231.447797 167.087933 
L 231.772776 169.801531 
L 232.097756 167.6366 
L 232.422735 167.536028 
L 233.072695 172.07729 
L 233.397674 161.066311 
L 233.722654 168.620006 
L 234.047633 165.819832 
L 234.372613 165.963661 
L 234.697592 168.115075 
L 235.347551 160.582022 
L 235.672531 174.072146 
L 235.99751 161.505189 
L 236.32249 161.789258 
L 236.647469 169.40993 
L 236.972449 161.540889 
L 237.297428 164.563573 
L 237.622408 160.937878 
L 237.947387 161.615243 
L 238.272367 157.342974 
L 238.597346 164.913023 
L 238.922326 164.062305 
L 239.247305 158.074412 
L 239.572285 165.051806 
L 240.222244 161.462841 
L 240.547224 165.565874 
L 240.872203 161.406095 
L 241.197183 161.476893 
L 241.522162 164.173318 
L 241.847142 165.889427 
L 242.172121 155.075586 
L 242.497101 171.185242 
L 243.14706 155.614983 
L 243.472039 163.596034 
L 244.121998 165.95547 
L 244.446978 160.55745 
L 244.771957 165.772318 
L 245.096937 159.05487 
L 245.421916 158.967013 
L 245.746896 164.227791 
L 246.071876 162.933359 
L 246.396855 163.713335 
L 246.721835 164.939778 
L 247.046814 161.422825 
L 247.371794 160.92542 
L 247.696773 172.645376 
L 248.021753 161.274096 
L 248.346732 159.486176 
L 248.671712 172.048306 
L 248.996691 165.772243 
L 249.321671 166.688191 
L 249.64665 168.203889 
L 249.97163 162.503043 
L 250.296609 171.462259 
L 250.621589 164.221329 
L 250.946568 162.622256 
L 251.271548 168.95097 
L 251.596527 169.49335 
L 251.921507 164.676998 
L 252.246486 162.241366 
L 252.571466 171.517549 
L 252.896446 168.352891 
L 253.221425 160.77645 
L 253.546405 171.039222 
L 254.196364 159.8158 
L 254.521343 166.124879 
L 254.846323 165.243479 
L 255.171302 162.360136 
L 255.496282 167.957533 
L 255.821261 171.161047 
L 256.146241 165.112942 
L 256.47122 167.329909 
L 256.7962 166.206486 
L 257.121179 164.012963 
L 257.446159 166.265949 
L 257.771138 162.575039 
L 258.096118 171.477595 
L 258.421097 170.500442 
L 258.746077 166.466583 
L 259.071057 175.027755 
L 259.396036 158.42877 
L 259.721016 163.490547 
L 260.045995 175.357206 
L 260.370975 158.969343 
L 260.695954 170.970223 
L 261.020934 175.362897 
L 261.345913 157.296913 
L 261.670893 167.645631 
L 261.995872 169.239387 
L 262.320852 155.719693 
L 262.645831 168.662537 
L 262.970811 166.68154 
L 263.29579 163.066617 
L 263.62077 171.041252 
L 263.945749 164.744551 
L 264.270729 166.661627 
L 264.595708 170.404578 
L 264.920688 158.470853 
L 265.245667 162.492264 
L 265.570647 164.089934 
L 265.895627 159.47775 
L 266.220606 162.130497 
L 266.545586 163.732799 
L 266.870565 163.14198 
L 267.195545 165.561942 
L 267.520524 166.468191 
L 267.845504 159.932016 
L 268.170483 162.715556 
L 268.495463 166.951792 
L 268.820442 160.790256 
L 269.145422 162.588969 
L 269.470401 156.616434 
L 269.795381 168.862505 
L 270.44534 159.583849 
L 270.770319 165.211902 
L 271.745258 160.921851 
L 272.070238 162.050234 
L 272.395217 162.237708 
L 272.720197 163.695503 
L 273.045176 160.499803 
L 273.370156 159.398428 
L 273.695135 162.251773 
L 274.020115 159.739695 
L 274.345094 165.893114 
L 274.670074 161.981391 
L 274.995053 161.259141 
L 275.320033 167.987727 
L 275.969992 169.20168 
L 276.294971 171.973859 
L 276.619951 167.239124 
L 277.26991 169.520555 
L 277.594889 165.403396 
L 277.919869 167.26406 
L 278.244848 174.445522 
L 278.569828 158.639356 
L 278.894808 172.662118 
L 279.219787 169.672042 
L 279.544767 162.623674 
L 280.194726 170.742583 
L 280.519705 161.277296 
L 280.844685 169.044442 
L 281.169664 171.649445 
L 281.494644 160.107477 
L 281.819623 161.657759 
L 282.144603 174.182561 
L 282.469582 161.256913 
L 282.794562 163.768801 
L 283.119541 171.646117 
L 283.444521 162.193838 
L 283.7695 163.992428 
L 284.09448 175.277303 
L 284.419459 164.560815 
L 285.069419 168.305002 
L 285.394398 160.659388 
L 285.719378 167.245332 
L 286.044357 162.449203 
L 286.369337 163.599317 
L 286.694316 163.167772 
L 287.019296 162.481245 
L 287.344275 166.24504 
L 287.669255 164.814193 
L 287.994234 160.301893 
L 288.319214 172.733727 
L 288.644193 168.530462 
L 288.969173 160.675286 
L 289.294152 172.544089 
L 289.944111 163.881013 
L 290.269091 176.146016 
L 290.91905 159.678818 
L 291.244029 172.923464 
L 291.893989 162.364461 
L 292.218968 169.63954 
L 292.543948 167.855705 
L 292.868927 164.152518 
L 293.193907 172.241391 
L 293.518886 160.237508 
L 293.843866 160.833316 
L 294.168845 169.672246 
L 294.493825 163.574756 
L 294.818804 162.640179 
L 295.468763 168.448198 
L 295.793743 158.120149 
L 296.443702 170.109953 
L 296.768681 156.080805 
L 297.093661 170.319798 
L 297.41864 168.33429 
L 297.74362 157.215042 
L 298.0686 170.587507 
L 298.393579 167.705088 
L 298.718559 163.289723 
L 299.043538 170.962072 
L 299.368518 164.638606 
L 299.693497 163.791619 
L 300.018477 167.238614 
L 300.343456 163.380022 
L 300.668436 162.111533 
L 300.993415 166.396521 
L 301.318395 166.744737 
L 302.293333 164.665527 
L 302.618313 168.608926 
L 302.943292 167.034301 
L 303.268272 167.521423 
L 303.918231 162.493263 
L 304.24321 166.824378 
L 304.56819 169.249365 
L 304.89317 165.034781 
L 305.218149 159.281773 
L 305.543129 167.980389 
L 305.868108 159.850909 
L 306.193088 159.761195 
L 306.518067 167.47117 
L 306.843047 165.372455 
L 307.168026 164.012643 
L 307.493006 167.048653 
L 307.817985 163.27538 
L 308.142965 163.131993 
L 308.467944 169.215482 
L 308.792924 165.666669 
L 309.117903 160.405452 
L 309.442883 168.807986 
L 309.767862 161.594251 
L 310.092842 160.06963 
L 310.417821 167.346492 
L 310.742801 169.945019 
L 311.067781 163.212598 
L 311.71774 173.704668 
L 312.042719 160.141146 
L 312.367699 162.065438 
L 312.692678 171.121346 
L 313.017658 160.519876 
L 313.342637 159.491055 
L 313.667617 171.749541 
L 313.992596 160.275099 
L 314.317576 162.144616 
L 314.642555 169.245619 
L 314.967535 151.801219 
L 315.292514 167.309072 
L 315.617494 165.625885 
L 315.942473 158.241723 
L 316.267453 166.905613 
L 316.917412 170.569711 
L 317.242391 162.378354 
L 317.892351 175.131748 
L 318.54231 159.780042 
L 318.867289 168.591143 
L 319.192269 173.416196 
L 319.517248 159.747324 
L 319.842228 164.706092 
L 320.167207 172.299421 
L 320.492187 165.540692 
L 320.817166 166.167816 
L 321.142146 168.179043 
L 321.467125 165.388422 
L 321.792105 170.040174 
L 322.442064 163.61084 
L 322.767043 166.186131 
L 323.092023 170.675857 
L 323.417002 164.599694 
L 323.741982 168.104657 
L 324.066962 174.075726 
L 324.391941 163.692148 
L 324.716921 167.870177 
L 325.0419 163.598113 
L 325.36688 161.125593 
L 325.691859 167.458826 
L 326.016839 162.074835 
L 326.341818 163.275916 
L 326.666798 166.171492 
L 326.991777 161.546867 
L 327.316757 159.951912 
L 327.641736 159.541337 
L 327.966716 159.814333 
L 328.291695 162.978215 
L 328.616675 160.201026 
L 328.941654 161.028027 
L 329.266634 159.045354 
L 329.591613 159.056801 
L 329.916593 159.745961 
L 330.241572 155.628235 
L 330.566552 161.685533 
L 330.891532 160.438497 
L 331.216511 163.368272 
L 331.86647 158.92471 
L 332.19145 164.288123 
L 332.516429 163.996519 
L 332.841409 156.617443 
L 333.166388 165.936987 
L 333.491368 168.102472 
L 333.816347 168.274949 
L 334.141327 171.216723 
L 334.141327 171.216723 
" clip-path="url(#p4093cc34bc)" style="fill: none; stroke: #1f77b4; stroke-width: 1.5; stroke-linecap: square"/>
   </g>
   <g id="line2d_16">
    <path d="M 334.466306 161.343413 
L 334.791286 164.941029 
L 335.116265 165.868175 
L 335.441245 160.088683 
L 335.766224 166.869598 
L 336.091204 168.42738 
L 336.416183 164.644077 
L 336.741163 170.465666 
L 337.066143 168.407054 
L 337.391122 163.518971 
L 337.716102 169.037563 
L 338.041081 166.614509 
L 338.366061 165.294221 
L 338.69104 169.009621 
L 339.01602 165.92019 
L 339.340999 164.019831 
L 339.665979 166.320603 
L 339.990958 169.654242 
L 340.315938 163.946661 
L 340.640917 169.386725 
L 340.965897 168.465287 
L 341.290876 164.518898 
L 341.615856 169.713405 
L 341.940835 163.863148 
L 342.265815 163.083072 
L 342.590794 167.893781 
L 342.915774 165.84628 
L 343.240753 165.602642 
L 343.565733 167.388815 
L 343.890713 160.916433 
L 344.215692 166.204803 
L 344.540672 164.92495 
L 344.865651 160.483067 
L 345.190631 165.325202 
L 345.51561 161.60251 
L 345.84059 160.698997 
L 346.165569 167.005757 
L 346.490549 164.19254 
L 346.815528 165.129023 
L 347.140508 167.818987 
L 347.465487 164.306791 
L 348.115446 167.591775 
L 348.440426 164.429614 
L 348.765405 166.671945 
L 349.090385 166.886406 
L 349.415364 164.701011 
L 350.065324 163.085884 
L 350.390303 164.348962 
L 350.715283 166.906582 
L 351.040262 162.634124 
L 351.690221 166.979032 
L 352.015201 163.156146 
L 352.34018 164.740993 
L 352.66516 164.505066 
L 352.990139 162.6611 
L 353.315119 162.892009 
L 353.640098 163.356396 
L 353.965078 161.98592 
L 354.290057 163.266753 
L 354.615037 165.956059 
L 354.940016 163.128883 
L 355.264996 165.309319 
L 355.589975 165.927693 
L 355.914955 162.181165 
L 356.239934 166.710037 
L 356.564914 163.108795 
L 356.889894 163.894474 
L 357.214873 169.183756 
L 357.539853 162.262023 
L 357.864832 166.431681 
L 358.189812 168.014936 
L 358.514791 165.74131 
L 358.839771 168.632008 
L 359.16475 164.648132 
L 359.48973 166.581932 
L 359.814709 165.911019 
L 360.139689 162.938801 
L 360.464668 162.487955 
L 360.789648 167.699463 
L 361.114627 161.837602 
L 361.439607 160.22613 
L 361.764586 165.337177 
L 362.089566 163.137084 
L 362.414545 164.874265 
L 362.739525 161.355232 
L 363.064505 162.023082 
L 363.389484 170.028631 
L 363.714464 163.601122 
L 364.039443 162.970242 
L 364.364423 169.092925 
L 364.689402 164.337305 
L 365.014382 164.376382 
L 365.339361 171.440374 
L 365.664341 162.569041 
L 365.98932 162.227848 
L 366.3143 169.753539 
L 366.639279 167.596319 
L 366.964259 164.685992 
L 367.289238 166.622217 
L 367.614218 165.213588 
L 367.939197 169.291323 
L 368.264177 167.374497 
L 368.589156 164.07195 
L 368.914136 165.311415 
L 369.239115 170.27413 
L 369.564095 167.159103 
L 369.889075 165.711459 
L 370.214054 168.98232 
L 370.539034 171.029416 
L 370.864013 168.00721 
L 371.188993 169.762199 
L 371.513972 168.890246 
L 371.838952 169.475923 
L 372.163931 166.114251 
L 372.81389 168.621961 
L 373.13887 163.492005 
L 373.463849 167.117282 
L 373.788829 161.989571 
L 374.113808 160.778735 
L 374.438788 166.519644 
L 374.763767 163.071924 
L 375.088747 163.397839 
L 375.413726 166.298252 
L 375.738706 165.213753 
L 376.063686 165.664625 
L 376.388665 164.642918 
L 376.713645 160.979919 
L 377.038624 169.140109 
L 377.363604 166.012541 
L 377.688583 164.827384 
L 378.013563 170.261424 
L 378.338542 164.296636 
L 378.663522 162.280041 
L 378.988501 163.417131 
L 379.313481 160.411135 
L 379.63846 164.162167 
L 380.288419 159.680455 
L 380.613399 165.843609 
L 380.938378 163.308343 
L 381.263358 162.93558 
L 381.588337 163.423735 
L 381.913317 165.497782 
L 382.238296 165.953882 
L 382.563276 162.530018 
L 382.888256 166.377917 
L 383.213235 164.447171 
L 383.538215 165.122661 
L 383.863194 165.508925 
L 384.188174 162.929452 
L 384.513153 162.4096 
L 384.838133 164.075239 
L 385.163112 164.876333 
L 385.813071 162.721222 
L 386.138051 162.587995 
L 386.46303 160.636759 
L 387.112989 166.227353 
L 387.762948 161.853728 
L 388.087928 163.938423 
L 388.412907 164.335867 
L 388.737887 162.69922 
L 389.062867 162.380393 
L 389.387846 162.611368 
L 389.712826 163.028873 
L 390.037805 169.858451 
L 390.362785 165.281756 
L 390.687764 163.607217 
L 391.012744 167.981959 
L 391.337723 164.935989 
L 391.662703 165.977565 
L 391.987682 167.728599 
L 392.312662 162.214504 
L 392.637641 163.18895 
L 392.962621 166.227347 
L 393.2876 160.885431 
L 393.61258 167.001597 
L 393.937559 164.018997 
L 394.262539 163.277816 
L 394.587518 165.8922 
L 394.912498 165.599382 
L 395.237477 161.841776 
L 395.562457 167.316193 
L 396.212416 161.866935 
L 396.537396 164.783564 
L 396.862375 165.472421 
L 397.187355 162.418008 
L 397.837314 169.779815 
L 398.162293 163.655606 
L 398.487273 167.309554 
L 398.487273 167.309554 
" clip-path="url(#p4093cc34bc)" style="fill: none; stroke: #ff7f0e; stroke-width: 1.5; stroke-linecap: square"/>
   </g>
   <g id="patch_3">
    <path d="M 57.6 307.584 
L 57.6 41.472 
" style="fill: none; stroke: #000000; stroke-width: 0.8; stroke-linejoin: miter; stroke-linecap: square"/>
   </g>
   <g id="patch_4">
    <path d="M 414.72 307.584 
L 414.72 41.472 
" style="fill: none; stroke: #000000; stroke-width: 0.8; stroke-linejoin: miter; stroke-linecap: square"/>
   </g>
   <g id="patch_5">
    <path d="M 57.6 307.584 
L 414.72 307.584 
" style="fill: none; stroke: #000000; stroke-width: 0.8; stroke-linejoin: miter; stroke-linecap: square"/>
   </g>
   <g id="patch_6">
    <path d="M 57.6 41.472 
L 414.72 41.472 
" style="fill: none; stroke: #000000; stroke-width: 0.8; stroke-linejoin: miter; stroke-linecap: square"/>
   </g>
   <g id="legend_1">
    <g id="patch_7">
     <path d="M 135.804375 78.998562 
L 407.72 78.998562 
Q 409.72 78.998562 409.72 76.998562 
L 409.72 48.472 
Q 409.72 46.472 407.72 46.472 
L 135.804375 46.472 
Q 133.804375 46.472 133.804375 48.472 
L 133.804375 76.998562 
Q 133.804375 78.998562 135.804375 78.998562 
z
" style="fill: #ffffff; opacity: 0.8; stroke: #cccccc; stroke-linejoin: miter"/>
    </g>
    <g id="line2d_17">
     <path d="M 137.804375 54.74075 
L 147.804375 54.74075 
L 157.804375 54.74075 
" style="fill: none; stroke: #1f77b4; stroke-width: 1.5; stroke-linecap: square"/>
    </g>
    <g id="text_17">
     <!-- Исходный временной ряд (обучающая часть) -->
     <g transform="translate(165.804375 58.24075) scale(0.1 -0.1)">
      <defs>
       <path id="DejaVuSans-418" d="M 4159 4666 
L 4159 0 
L 3547 0 
L 3547 3903 
L 1478 0 
L 628 0 
L 628 4666 
L 1241 4666 
L 1241 763 
L 3309 4666 
L 4159 4666 
z
" transform="scale(0.015625)"/>
       <path id="DejaVuSans-441" d="M 3122 3366 
L 3122 2828 
Q 2878 2963 2633 3030 
Q 2388 3097 2138 3097 
Q 1578 3097 1268 2742 
Q 959 2388 959 1747 
Q 959 1106 1268 751 
Q 1578 397 2138 397 
Q 2388 397 2633 464 
Q 2878 531 3122 666 
L 3122 134 
Q 2881 22 2623 -34 
Q 2366 -91 2075 -91 
Q 1284 -91 818 406 
Q 353 903 353 1747 
Q 353 2603 823 3093 
Q 1294 3584 2113 3584 
Q 2378 3584 2631 3529 
Q 2884 3475 3122 3366 
z
" transform="scale(0.015625)"/>
       <path id="DejaVuSans-445" d="M 3513 3500 
L 2247 1797 
L 3578 0 
L 2900 0 
L 1881 1375 
L 863 0 
L 184 0 
L 1544 1831 
L 300 3500 
L 978 3500 
L 1906 2253 
L 2834 3500 
L 3513 3500 
z
" transform="scale(0.015625)"/>
       <path id="DejaVuSans-44b" d="M 3907 3500 
L 4482 3500 
L 4482 0 
L 3907 0 
L 3907 3500 
z
M 4195 3584 
L 4195 3584 
z
M 2781 1038 
Q 2781 1319 2576 1466 
Q 2372 1613 1978 1613 
L 1159 1613 
L 1159 459 
L 1978 459 
Q 2372 459 2576 607 
Q 2781 756 2781 1038 
z
M 581 3500 
L 1159 3500 
L 1159 2072 
L 2003 2072 
Q 2672 2072 3033 1817 
Q 3394 1563 3394 1038 
Q 3394 513 3033 256 
Q 2672 0 2003 0 
L 581 0 
L 581 3500 
z
" transform="scale(0.015625)"/>
       <path id="DejaVuSans-439" d="M 3578 3500 
L 3578 0 
L 3006 0 
L 3006 2809 
L 1319 0 
L 581 0 
L 581 3500 
L 1153 3500 
L 1153 697 
L 2838 3500 
L 3578 3500 
z
M 1102 4833 
L 1471 4833 
Q 1505 4599 1656 4481 
Q 1808 4364 2080 4364 
Q 2349 4364 2499 4480 
Q 2649 4596 2689 4833 
L 3058 4833 
Q 3027 4386 2780 4161 
Q 2533 3936 2080 3936 
Q 1627 3936 1380 4161 
Q 1133 4386 1102 4833 
z
" transform="scale(0.015625)"/>
       <path id="DejaVuSans-28" d="M 1984 4856 
Q 1566 4138 1362 3434 
Q 1159 2731 1159 2009 
Q 1159 1288 1364 580 
Q 1569 -128 1984 -844 
L 1484 -844 
Q 1016 -109 783 600 
Q 550 1309 550 2009 
Q 550 2706 781 3412 
Q 1013 4119 1484 4856 
L 1984 4856 
z
" transform="scale(0.015625)"/>
       <path id="DejaVuSans-431" d="M 1991 3584 
Q 2741 3584 3169 3096 
Q 3597 2609 3597 1747 
Q 3597 888 3169 398 
Q 2741 -91 1991 -91 
Q 1238 -91 822 384 
Q 406 859 384 1747 
L 366 2463 
Q 350 2834 350 2963 
Q 350 3463 531 3831 
Q 816 4409 1308 4659 
Q 1800 4909 2625 4916 
Q 3006 4919 3175 4972 
L 3334 4516 
Q 3181 4453 3041 4450 
L 2259 4397 
Q 1866 4369 1628 4231 
Q 1006 3866 947 3388 
L 925 3213 
Q 1331 3584 1991 3584 
z
M 1991 3097 
Q 1528 3097 1259 2736 
Q 991 2375 991 1747 
Q 991 1119 1258 758 
Q 1525 397 1991 397 
Q 2450 397 2719 759 
Q 2988 1122 2988 1747 
Q 2988 2369 2719 2733 
Q 2450 3097 1991 3097 
z
" transform="scale(0.015625)"/>
       <path id="DejaVuSans-443" d="M 2059 -325 
Q 1816 -950 1584 -1140 
Q 1353 -1331 966 -1331 
L 506 -1331 
L 506 -850 
L 844 -850 
Q 1081 -850 1212 -737 
Q 1344 -625 1503 -206 
L 1606 56 
L 191 3500 
L 800 3500 
L 1894 763 
L 2988 3500 
L 3597 3500 
L 2059 -325 
z
" transform="scale(0.015625)"/>
       <path id="DejaVuSans-44e" d="M 3431 3097 
Q 2969 3097 2700 2736 
Q 2431 2375 2431 1747 
Q 2431 1119 2698 758 
Q 2966 397 3431 397 
Q 3891 397 4159 759 
Q 4428 1122 4428 1747 
Q 4428 2369 4159 2733 
Q 3891 3097 3431 3097 
z
M 1844 2103 
Q 1903 2697 2292 3140 
Q 2681 3584 3431 3584 
Q 4181 3584 4609 3096 
Q 5038 2609 5038 1747 
Q 5038 888 4609 398 
Q 4181 -91 3431 -91 
Q 2678 -91 2267 381 
Q 1856 853 1828 1628 
L 1178 1628 
L 1178 0 
L 603 0 
L 603 3500 
L 1178 3500 
L 1178 2103 
L 1844 2103 
z
" transform="scale(0.015625)"/>
       <path id="DejaVuSans-449" d="M 5275 0 
L 581 0 
L 581 3500 
L 1159 3500 
L 1159 459 
L 2638 459 
L 2638 3500 
L 3216 3500 
L 3216 459 
L 4697 459 
L 4697 3500 
L 5275 3500 
L 5275 459 
L 5734 459 
L 5734 -884 
L 5275 -884 
L 5275 0 
z
" transform="scale(0.015625)"/>
       <path id="DejaVuSans-44c" d="M 2781 1038 
Q 2781 1319 2576 1466 
Q 2372 1613 1978 1613 
L 1159 1613 
L 1159 459 
L 1978 459 
Q 2372 459 2576 607 
Q 2781 756 2781 1038 
z
M 581 3500 
L 1159 3500 
L 1159 2072 
L 2003 2072 
Q 2672 2072 3033 1817 
Q 3394 1563 3394 1038 
Q 3394 513 3033 256 
Q 2672 0 2003 0 
L 581 0 
L 581 3500 
z
" transform="scale(0.015625)"/>
       <path id="DejaVuSans-29" d="M 513 4856 
L 1013 4856 
Q 1481 4119 1714 3412 
Q 1947 2706 1947 2009 
Q 1947 1309 1714 600 
Q 1481 -109 1013 -844 
L 513 -844 
Q 928 -128 1133 580 
Q 1338 1288 1338 2009 
Q 1338 2731 1133 3434 
Q 928 4138 513 4856 
z
" transform="scale(0.015625)"/>
      </defs>
      <use xlink:href="#DejaVuSans-418"/>
      <use xlink:href="#DejaVuSans-441" x="74.804688"/>
      <use xlink:href="#DejaVuSans-445" x="129.785156"/>
      <use xlink:href="#DejaVuSans-43e" x="188.964844"/>
      <use xlink:href="#DejaVuSans-434" x="250.146484"/>
      <use xlink:href="#DejaVuSans-43d" x="319.287109"/>
      <use xlink:href="#DejaVuSans-44b" x="384.667969"/>
      <use xlink:href="#DejaVuSans-439" x="463.623047"/>
      <use xlink:href="#DejaVuSans-20" x="528.613281"/>
      <use xlink:href="#DejaVuSans-432" x="560.400391"/>
      <use xlink:href="#DejaVuSans-440" x="619.335938"/>
      <use xlink:href="#DejaVuSans-435" x="682.8125"/>
      <use xlink:href="#DejaVuSans-43c" x="744.335938"/>
      <use xlink:href="#DejaVuSans-435" x="819.775391"/>
      <use xlink:href="#DejaVuSans-43d" x="881.298828"/>
      <use xlink:href="#DejaVuSans-43d" x="946.679688"/>
      <use xlink:href="#DejaVuSans-43e" x="1012.060547"/>
      <use xlink:href="#DejaVuSans-439" x="1073.242188"/>
      <use xlink:href="#DejaVuSans-20" x="1138.232422"/>
      <use xlink:href="#DejaVuSans-440" x="1170.019531"/>
      <use xlink:href="#DejaVuSans-44f" x="1233.496094"/>
      <use xlink:href="#DejaVuSans-434" x="1293.652344"/>
      <use xlink:href="#DejaVuSans-20" x="1362.792969"/>
      <use xlink:href="#DejaVuSans-28" x="1394.580078"/>
      <use xlink:href="#DejaVuSans-43e" x="1433.59375"/>
      <use xlink:href="#DejaVuSans-431" x="1494.775391"/>
      <use xlink:href="#DejaVuSans-443" x="1556.445312"/>
      <use xlink:href="#DejaVuSans-447" x="1615.625"/>
      <use xlink:href="#DejaVuSans-430" x="1674.707031"/>
      <use xlink:href="#DejaVuSans-44e" x="1735.986328"/>
      <use xlink:href="#DejaVuSans-449" x="1820.166016"/>
      <use xlink:href="#DejaVuSans-430" x="1914.355469"/>
      <use xlink:href="#DejaVuSans-44f" x="1975.634766"/>
      <use xlink:href="#DejaVuSans-20" x="2035.791016"/>
      <use xlink:href="#DejaVuSans-447" x="2067.578125"/>
      <use xlink:href="#DejaVuSans-430" x="2126.660156"/>
      <use xlink:href="#DejaVuSans-441" x="2187.939453"/>
      <use xlink:href="#DejaVuSans-442" x="2242.919922"/>
      <use xlink:href="#DejaVuSans-44c" x="2301.171875"/>
      <use xlink:href="#DejaVuSans-29" x="2360.107422"/>
     </g>
    </g>
    <g id="line2d_18">
     <path d="M 137.804375 69.418875 
L 147.804375 69.418875 
L 157.804375 69.418875 
" style="fill: none; stroke: #ff7f0e; stroke-width: 1.5; stroke-linecap: square"/>
    </g>
    <g id="text_18">
     <!-- Предсказанные значения (тестовая часть) -->
     <g transform="translate(165.804375 72.918875) scale(0.1 -0.1)">
      <defs>
       <path id="DejaVuSans-41f" d="M 4184 4666 
L 4184 0 
L 3553 0 
L 3553 4134 
L 1259 4134 
L 1259 0 
L 628 0 
L 628 4666 
L 4184 4666 
z
" transform="scale(0.015625)"/>
       <path id="DejaVuSans-43a" d="M 581 3500 
L 1153 3500 
L 1153 1856 
L 2775 3500 
L 3481 3500 
L 2144 2147 
L 3653 0 
L 3009 0 
L 1769 1766 
L 1153 1141 
L 1153 0 
L 581 0 
L 581 3500 
z
" transform="scale(0.015625)"/>
       <path id="DejaVuSans-437" d="M 2206 1888 
Q 2594 1813 2809 1584 
Q 3025 1356 3025 1019 
Q 3025 478 2622 193 
Q 2219 -91 1475 -91 
Q 1225 -91 961 -47 
Q 697 -3 416 84 
L 416 619 
Q 638 503 903 445 
Q 1169 388 1459 388 
Q 1931 388 2195 563 
Q 2459 738 2459 1019 
Q 2459 1294 2225 1461 
Q 1991 1628 1563 1628 
L 1100 1628 
L 1100 2103 
L 1584 2103 
Q 1947 2103 2158 2242 
Q 2369 2381 2369 2600 
Q 2369 2800 2151 2944 
Q 1934 3088 1563 3088 
Q 1341 3088 1089 3047 
Q 838 3006 534 2916 
L 534 3438 
Q 841 3513 1106 3550 
Q 1372 3588 1609 3588 
Q 2222 3588 2576 3342 
Q 2931 3097 2931 2656 
Q 2931 2366 2743 2164 
Q 2556 1963 2206 1888 
z
" transform="scale(0.015625)"/>
      </defs>
      <use xlink:href="#DejaVuSans-41f"/>
      <use xlink:href="#DejaVuSans-440" x="75.195312"/>
      <use xlink:href="#DejaVuSans-435" x="138.671875"/>
      <use xlink:href="#DejaVuSans-434" x="200.195312"/>
      <use xlink:href="#DejaVuSans-441" x="269.335938"/>
      <use xlink:href="#DejaVuSans-43a" x="324.316406"/>
      <use xlink:href="#DejaVuSans-430" x="384.716797"/>
      <use xlink:href="#DejaVuSans-437" x="445.996094"/>
      <use xlink:href="#DejaVuSans-430" x="499.169922"/>
      <use xlink:href="#DejaVuSans-43d" x="560.449219"/>
      <use xlink:href="#DejaVuSans-43d" x="625.830078"/>
      <use xlink:href="#DejaVuSans-44b" x="691.210938"/>
      <use xlink:href="#DejaVuSans-435" x="770.166016"/>
      <use xlink:href="#DejaVuSans-20" x="831.689453"/>
      <use xlink:href="#DejaVuSans-437" x="863.476562"/>
      <use xlink:href="#DejaVuSans-43d" x="916.650391"/>
      <use xlink:href="#DejaVuSans-430" x="982.03125"/>
      <use xlink:href="#DejaVuSans-447" x="1043.310547"/>
      <use xlink:href="#DejaVuSans-435" x="1102.392578"/>
      <use xlink:href="#DejaVuSans-43d" x="1163.916016"/>
      <use xlink:href="#DejaVuSans-438" x="1229.296875"/>
      <use xlink:href="#DejaVuSans-44f" x="1294.287109"/>
      <use xlink:href="#DejaVuSans-20" x="1354.443359"/>
      <use xlink:href="#DejaVuSans-28" x="1386.230469"/>
      <use xlink:href="#DejaVuSans-442" x="1425.244141"/>
      <use xlink:href="#DejaVuSans-435" x="1483.496094"/>
      <use xlink:href="#DejaVuSans-441" x="1545.019531"/>
      <use xlink:href="#DejaVuSans-442" x="1600"/>
      <use xlink:href="#DejaVuSans-43e" x="1658.251953"/>
      <use xlink:href="#DejaVuSans-432" x="1719.433594"/>
      <use xlink:href="#DejaVuSans-430" x="1778.369141"/>
      <use xlink:href="#DejaVuSans-44f" x="1839.648438"/>
      <use xlink:href="#DejaVuSans-20" x="1899.804688"/>
      <use xlink:href="#DejaVuSans-447" x="1931.591797"/>
      <use xlink:href="#DejaVuSans-430" x="1990.673828"/>
      <use xlink:href="#DejaVuSans-441" x="2051.953125"/>
      <use xlink:href="#DejaVuSans-442" x="2106.933594"/>
      <use xlink:href="#DejaVuSans-44c" x="2165.185547"/>
      <use xlink:href="#DejaVuSans-29" x="2224.121094"/>
     </g>
    </g>
   </g>
  </g>
 </g>
 <defs>
  <clipPath id="p4093cc34bc">
   <rect x="57.6" y="41.472" width="357.12" height="266.112"/>
  </clipPath>
 </defs>
</svg>
