<?xml version="1.0" encoding="utf-8" standalone="no"?>
<!DOCTYPE svg PUBLIC "-//W3C//DTD SVG 1.1//EN"
  "http://www.w3.org/Graphics/SVG/1.1/DTD/svg11.dtd">
<svg xmlns:xlink="http://www.w3.org/1999/xlink" width="460.8pt" height="345.6pt" viewBox="0 0 460.8 345.6" xmlns="http://www.w3.org/2000/svg" version="1.1">
 <metadata>
  <rdf:RDF xmlns:dc="http://purl.org/dc/elements/1.1/" xmlns:cc="http://creativecommons.org/ns#" xmlns:rdf="http://www.w3.org/1999/02/22-rdf-syntax-ns#">
   <cc:Work>
    <dc:type rdf:resource="http://purl.org/dc/dcmitype/StillImage"/>
    <dc:date>2024-01-07T16:52:24.171337</dc:date>
    <dc:format>image/svg+xml</dc:format>
    <dc:creator>
     <cc:Agent>
      <dc:title>Matplotlib v3.8.0, https://matplotlib.org/</dc:title>
     </cc:Agent>
    </dc:creator>
   </cc:Work>
  </rdf:RDF>
 </metadata>
 <defs>
  <style type="text/css">*{stroke-linejoin: round; stroke-linecap: butt}</style>
 </defs>
 <g id="figure_1">
  <g id="patch_1">
   <path d="M 0 345.6 
L 460.8 345.6 
L 460.8 0 
L 0 0 
z
" style="fill: #ffffff"/>
  </g>
  <g id="axes_1">
   <g id="patch_2">
    <path d="M 57.6 307.584 
L 414.72 307.584 
L 414.72 41.472 
L 57.6 41.472 
z
" style="fill: #ffffff"/>
   </g>
   <g id="matplotlib.axis_1">
    <g id="xtick_1">
     <g id="line2d_1">
      <defs>
       <path id="m6ed79a6e78" d="M 0 0 
L 0 3.5 
" style="stroke: #000000; stroke-width: 0.8"/>
      </defs>
      <g>
       <use xlink:href="#m6ed79a6e78" x="73.832727" y="307.584" style="stroke: #000000; stroke-width: 0.8"/>
      </g>
     </g>
     <g id="text_1">
      <!-- 0 -->
      <g transform="translate(70.651477 322.182437) scale(0.1 -0.1)">
       <defs>
        <path id="DejaVuSans-30" d="M 2034 4250 
Q 1547 4250 1301 3770 
Q 1056 3291 1056 2328 
Q 1056 1369 1301 889 
Q 1547 409 2034 409 
Q 2525 409 2770 889 
Q 3016 1369 3016 2328 
Q 3016 3291 2770 3770 
Q 2525 4250 2034 4250 
z
M 2034 4750 
Q 2819 4750 3233 4129 
Q 3647 3509 3647 2328 
Q 3647 1150 3233 529 
Q 2819 -91 2034 -91 
Q 1250 -91 836 529 
Q 422 1150 422 2328 
Q 422 3509 836 4129 
Q 1250 4750 2034 4750 
z
" transform="scale(0.015625)"/>
       </defs>
       <use xlink:href="#DejaVuSans-30"/>
      </g>
     </g>
    </g>
    <g id="xtick_2">
     <g id="line2d_2">
      <g>
       <use xlink:href="#m6ed79a6e78" x="138.634034" y="307.584" style="stroke: #000000; stroke-width: 0.8"/>
      </g>
     </g>
     <g id="text_2">
      <!-- 200 -->
      <g transform="translate(129.090284 322.182437) scale(0.1 -0.1)">
       <defs>
        <path id="DejaVuSans-32" d="M 1228 531 
L 3431 531 
L 3431 0 
L 469 0 
L 469 531 
Q 828 903 1448 1529 
Q 2069 2156 2228 2338 
Q 2531 2678 2651 2914 
Q 2772 3150 2772 3378 
Q 2772 3750 2511 3984 
Q 2250 4219 1831 4219 
Q 1534 4219 1204 4116 
Q 875 4013 500 3803 
L 500 4441 
Q 881 4594 1212 4672 
Q 1544 4750 1819 4750 
Q 2544 4750 2975 4387 
Q 3406 4025 3406 3419 
Q 3406 3131 3298 2873 
Q 3191 2616 2906 2266 
Q 2828 2175 2409 1742 
Q 1991 1309 1228 531 
z
" transform="scale(0.015625)"/>
       </defs>
       <use xlink:href="#DejaVuSans-32"/>
       <use xlink:href="#DejaVuSans-30" x="63.623047"/>
       <use xlink:href="#DejaVuSans-30" x="127.246094"/>
      </g>
     </g>
    </g>
    <g id="xtick_3">
     <g id="line2d_3">
      <g>
       <use xlink:href="#m6ed79a6e78" x="203.43534" y="307.584" style="stroke: #000000; stroke-width: 0.8"/>
      </g>
     </g>
     <g id="text_3">
      <!-- 400 -->
      <g transform="translate(193.89159 322.182437) scale(0.1 -0.1)">
       <defs>
        <path id="DejaVuSans-34" d="M 2419 4116 
L 825 1625 
L 2419 1625 
L 2419 4116 
z
M 2253 4666 
L 3047 4666 
L 3047 1625 
L 3713 1625 
L 3713 1100 
L 3047 1100 
L 3047 0 
L 2419 0 
L 2419 1100 
L 313 1100 
L 313 1709 
L 2253 4666 
z
" transform="scale(0.015625)"/>
       </defs>
       <use xlink:href="#DejaVuSans-34"/>
       <use xlink:href="#DejaVuSans-30" x="63.623047"/>
       <use xlink:href="#DejaVuSans-30" x="127.246094"/>
      </g>
     </g>
    </g>
    <g id="xtick_4">
     <g id="line2d_4">
      <g>
       <use xlink:href="#m6ed79a6e78" x="268.236647" y="307.584" style="stroke: #000000; stroke-width: 0.8"/>
      </g>
     </g>
     <g id="text_4">
      <!-- 600 -->
      <g transform="translate(258.692897 322.182437) scale(0.1 -0.1)">
       <defs>
        <path id="DejaVuSans-36" d="M 2113 2584 
Q 1688 2584 1439 2293 
Q 1191 2003 1191 1497 
Q 1191 994 1439 701 
Q 1688 409 2113 409 
Q 2538 409 2786 701 
Q 3034 994 3034 1497 
Q 3034 2003 2786 2293 
Q 2538 2584 2113 2584 
z
M 3366 4563 
L 3366 3988 
Q 3128 4100 2886 4159 
Q 2644 4219 2406 4219 
Q 1781 4219 1451 3797 
Q 1122 3375 1075 2522 
Q 1259 2794 1537 2939 
Q 1816 3084 2150 3084 
Q 2853 3084 3261 2657 
Q 3669 2231 3669 1497 
Q 3669 778 3244 343 
Q 2819 -91 2113 -91 
Q 1303 -91 875 529 
Q 447 1150 447 2328 
Q 447 3434 972 4092 
Q 1497 4750 2381 4750 
Q 2619 4750 2861 4703 
Q 3103 4656 3366 4563 
z
" transform="scale(0.015625)"/>
       </defs>
       <use xlink:href="#DejaVuSans-36"/>
       <use xlink:href="#DejaVuSans-30" x="63.623047"/>
       <use xlink:href="#DejaVuSans-30" x="127.246094"/>
      </g>
     </g>
    </g>
    <g id="xtick_5">
     <g id="line2d_5">
      <g>
       <use xlink:href="#m6ed79a6e78" x="333.037953" y="307.584" style="stroke: #000000; stroke-width: 0.8"/>
      </g>
     </g>
     <g id="text_5">
      <!-- 800 -->
      <g transform="translate(323.494203 322.182437) scale(0.1 -0.1)">
       <defs>
        <path id="DejaVuSans-38" d="M 2034 2216 
Q 1584 2216 1326 1975 
Q 1069 1734 1069 1313 
Q 1069 891 1326 650 
Q 1584 409 2034 409 
Q 2484 409 2743 651 
Q 3003 894 3003 1313 
Q 3003 1734 2745 1975 
Q 2488 2216 2034 2216 
z
M 1403 2484 
Q 997 2584 770 2862 
Q 544 3141 544 3541 
Q 544 4100 942 4425 
Q 1341 4750 2034 4750 
Q 2731 4750 3128 4425 
Q 3525 4100 3525 3541 
Q 3525 3141 3298 2862 
Q 3072 2584 2669 2484 
Q 3125 2378 3379 2068 
Q 3634 1759 3634 1313 
Q 3634 634 3220 271 
Q 2806 -91 2034 -91 
Q 1263 -91 848 271 
Q 434 634 434 1313 
Q 434 1759 690 2068 
Q 947 2378 1403 2484 
z
M 1172 3481 
Q 1172 3119 1398 2916 
Q 1625 2713 2034 2713 
Q 2441 2713 2670 2916 
Q 2900 3119 2900 3481 
Q 2900 3844 2670 4047 
Q 2441 4250 2034 4250 
Q 1625 4250 1398 4047 
Q 1172 3844 1172 3481 
z
" transform="scale(0.015625)"/>
       </defs>
       <use xlink:href="#DejaVuSans-38"/>
       <use xlink:href="#DejaVuSans-30" x="63.623047"/>
       <use xlink:href="#DejaVuSans-30" x="127.246094"/>
      </g>
     </g>
    </g>
    <g id="xtick_6">
     <g id="line2d_6">
      <g>
       <use xlink:href="#m6ed79a6e78" x="397.83926" y="307.584" style="stroke: #000000; stroke-width: 0.8"/>
      </g>
     </g>
     <g id="text_6">
      <!-- 1000 -->
      <g transform="translate(385.11426 322.182437) scale(0.1 -0.1)">
       <defs>
        <path id="DejaVuSans-31" d="M 794 531 
L 1825 531 
L 1825 4091 
L 703 3866 
L 703 4441 
L 1819 4666 
L 2450 4666 
L 2450 531 
L 3481 531 
L 3481 0 
L 794 0 
L 794 531 
z
" transform="scale(0.015625)"/>
       </defs>
       <use xlink:href="#DejaVuSans-31"/>
       <use xlink:href="#DejaVuSans-30" x="63.623047"/>
       <use xlink:href="#DejaVuSans-30" x="127.246094"/>
       <use xlink:href="#DejaVuSans-30" x="190.869141"/>
      </g>
     </g>
    </g>
    <g id="text_7">
     <!-- Момент времени $t$ -->
     <g transform="translate(188.01 335.84025) scale(0.1 -0.1)">
      <defs>
       <path id="DejaVuSans-41c" d="M 628 4666 
L 1569 4666 
L 2759 1491 
L 3956 4666 
L 4897 4666 
L 4897 0 
L 4281 0 
L 4281 4097 
L 3078 897 
L 2444 897 
L 1241 4097 
L 1241 0 
L 628 0 
L 628 4666 
z
" transform="scale(0.015625)"/>
       <path id="DejaVuSans-43e" d="M 1959 3097 
Q 1497 3097 1228 2736 
Q 959 2375 959 1747 
Q 959 1119 1226 758 
Q 1494 397 1959 397 
Q 2419 397 2687 759 
Q 2956 1122 2956 1747 
Q 2956 2369 2687 2733 
Q 2419 3097 1959 3097 
z
M 1959 3584 
Q 2709 3584 3137 3096 
Q 3566 2609 3566 1747 
Q 3566 888 3137 398 
Q 2709 -91 1959 -91 
Q 1206 -91 779 398 
Q 353 888 353 1747 
Q 353 2609 779 3096 
Q 1206 3584 1959 3584 
z
" transform="scale(0.015625)"/>
       <path id="DejaVuSans-43c" d="M 581 3500 
L 1422 3500 
L 2416 1156 
L 3413 3500 
L 4247 3500 
L 4247 0 
L 3669 0 
L 3669 2950 
L 2703 672 
L 2128 672 
L 1159 2950 
L 1159 0 
L 581 0 
L 581 3500 
z
" transform="scale(0.015625)"/>
       <path id="DejaVuSans-435" d="M 3597 1894 
L 3597 1613 
L 953 1613 
Q 991 1019 1311 708 
Q 1631 397 2203 397 
Q 2534 397 2845 478 
Q 3156 559 3463 722 
L 3463 178 
Q 3153 47 2828 -22 
Q 2503 -91 2169 -91 
Q 1331 -91 842 396 
Q 353 884 353 1716 
Q 353 2575 817 3079 
Q 1281 3584 2069 3584 
Q 2775 3584 3186 3129 
Q 3597 2675 3597 1894 
z
M 3022 2063 
Q 3016 2534 2758 2815 
Q 2500 3097 2075 3097 
Q 1594 3097 1305 2825 
Q 1016 2553 972 2059 
L 3022 2063 
z
" transform="scale(0.015625)"/>
       <path id="DejaVuSans-43d" d="M 581 3500 
L 1159 3500 
L 1159 2072 
L 3025 2072 
L 3025 3500 
L 3603 3500 
L 3603 0 
L 3025 0 
L 3025 1613 
L 1159 1613 
L 1159 0 
L 581 0 
L 581 3500 
z
" transform="scale(0.015625)"/>
       <path id="DejaVuSans-442" d="M 188 3500 
L 3541 3500 
L 3541 3041 
L 2147 3041 
L 2147 0 
L 1581 0 
L 1581 3041 
L 188 3041 
L 188 3500 
z
" transform="scale(0.015625)"/>
       <path id="DejaVuSans-20" transform="scale(0.015625)"/>
       <path id="DejaVuSans-432" d="M 1156 1613 
L 1156 459 
L 1975 459 
Q 2369 459 2575 607 
Q 2781 756 2781 1038 
Q 2781 1319 2575 1466 
Q 2369 1613 1975 1613 
L 1156 1613 
z
M 1156 3041 
L 1156 2072 
L 1913 2072 
Q 2238 2072 2444 2201 
Q 2650 2331 2650 2563 
Q 2650 2794 2444 2917 
Q 2238 3041 1913 3041 
L 1156 3041 
z
M 581 3500 
L 1950 3500 
Q 2566 3500 2897 3275 
Q 3228 3050 3228 2634 
Q 3228 2313 3059 2123 
Q 2891 1934 2559 1888 
Q 2956 1813 3175 1575 
Q 3394 1338 3394 981 
Q 3394 513 3033 256 
Q 2672 0 2003 0 
L 581 0 
L 581 3500 
z
" transform="scale(0.015625)"/>
       <path id="DejaVuSans-440" d="M 1159 525 
L 1159 -1331 
L 581 -1331 
L 581 3500 
L 1159 3500 
L 1159 2969 
Q 1341 3281 1617 3432 
Q 1894 3584 2278 3584 
Q 2916 3584 3314 3078 
Q 3713 2572 3713 1747 
Q 3713 922 3314 415 
Q 2916 -91 2278 -91 
Q 1894 -91 1617 61 
Q 1341 213 1159 525 
z
M 3116 1747 
Q 3116 2381 2855 2742 
Q 2594 3103 2138 3103 
Q 1681 3103 1420 2742 
Q 1159 2381 1159 1747 
Q 1159 1113 1420 752 
Q 1681 391 2138 391 
Q 2594 391 2855 752 
Q 3116 1113 3116 1747 
z
" transform="scale(0.015625)"/>
       <path id="DejaVuSans-438" d="M 3578 3500 
L 3578 0 
L 3006 0 
L 3006 2809 
L 1319 0 
L 581 0 
L 581 3500 
L 1153 3500 
L 1153 697 
L 2838 3500 
L 3578 3500 
z
" transform="scale(0.015625)"/>
       <path id="DejaVuSans-Oblique-74" d="M 2706 3500 
L 2619 3053 
L 1472 3053 
L 1100 1153 
Q 1081 1047 1072 975 
Q 1063 903 1063 863 
Q 1063 663 1183 572 
Q 1303 481 1569 481 
L 2150 481 
L 2053 0 
L 1503 0 
Q 991 0 739 200 
Q 488 400 488 806 
Q 488 878 497 964 
Q 506 1050 525 1153 
L 897 3053 
L 409 3053 
L 500 3500 
L 978 3500 
L 1172 4494 
L 1747 4494 
L 1556 3500 
L 2706 3500 
z
" transform="scale(0.015625)"/>
      </defs>
      <use xlink:href="#DejaVuSans-41c" transform="translate(0 0.09375)"/>
      <use xlink:href="#DejaVuSans-43e" transform="translate(86.279297 0.09375)"/>
      <use xlink:href="#DejaVuSans-43c" transform="translate(147.460938 0.09375)"/>
      <use xlink:href="#DejaVuSans-435" transform="translate(222.900391 0.09375)"/>
      <use xlink:href="#DejaVuSans-43d" transform="translate(284.423828 0.09375)"/>
      <use xlink:href="#DejaVuSans-442" transform="translate(349.804688 0.09375)"/>
      <use xlink:href="#DejaVuSans-20" transform="translate(408.056641 0.09375)"/>
      <use xlink:href="#DejaVuSans-432" transform="translate(439.84375 0.09375)"/>
      <use xlink:href="#DejaVuSans-440" transform="translate(498.779297 0.09375)"/>
      <use xlink:href="#DejaVuSans-435" transform="translate(562.255859 0.09375)"/>
      <use xlink:href="#DejaVuSans-43c" transform="translate(623.779297 0.09375)"/>
      <use xlink:href="#DejaVuSans-435" transform="translate(699.21875 0.09375)"/>
      <use xlink:href="#DejaVuSans-43d" transform="translate(760.742188 0.09375)"/>
      <use xlink:href="#DejaVuSans-438" transform="translate(826.123047 0.09375)"/>
      <use xlink:href="#DejaVuSans-20" transform="translate(891.113281 0.09375)"/>
      <use xlink:href="#DejaVuSans-Oblique-74" transform="translate(922.900391 0.09375)"/>
     </g>
    </g>
   </g>
   <g id="matplotlib.axis_2">
    <g id="ytick_1">
     <g id="line2d_7">
      <defs>
       <path id="m8f556d73f9" d="M 0 0 
L -3.5 0 
" style="stroke: #000000; stroke-width: 0.8"/>
      </defs>
      <g>
       <use xlink:href="#m8f556d73f9" x="57.6" y="302.306029" style="stroke: #000000; stroke-width: 0.8"/>
      </g>
     </g>
     <g id="text_8">
      <!-- −8 -->
      <g transform="translate(35.857813 306.105248) scale(0.1 -0.1)">
       <defs>
        <path id="DejaVuSans-2212" d="M 678 2272 
L 4684 2272 
L 4684 1741 
L 678 1741 
L 678 2272 
z
" transform="scale(0.015625)"/>
       </defs>
       <use xlink:href="#DejaVuSans-2212"/>
       <use xlink:href="#DejaVuSans-38" x="83.789062"/>
      </g>
     </g>
    </g>
    <g id="ytick_2">
     <g id="line2d_8">
      <g>
       <use xlink:href="#m8f556d73f9" x="57.6" y="267.9222" style="stroke: #000000; stroke-width: 0.8"/>
      </g>
     </g>
     <g id="text_9">
      <!-- −6 -->
      <g transform="translate(35.857813 271.721419) scale(0.1 -0.1)">
       <use xlink:href="#DejaVuSans-2212"/>
       <use xlink:href="#DejaVuSans-36" x="83.789062"/>
      </g>
     </g>
    </g>
    <g id="ytick_3">
     <g id="line2d_9">
      <g>
       <use xlink:href="#m8f556d73f9" x="57.6" y="233.538371" style="stroke: #000000; stroke-width: 0.8"/>
      </g>
     </g>
     <g id="text_10">
      <!-- −4 -->
      <g transform="translate(35.857813 237.337589) scale(0.1 -0.1)">
       <use xlink:href="#DejaVuSans-2212"/>
       <use xlink:href="#DejaVuSans-34" x="83.789062"/>
      </g>
     </g>
    </g>
    <g id="ytick_4">
     <g id="line2d_10">
      <g>
       <use xlink:href="#m8f556d73f9" x="57.6" y="199.154541" style="stroke: #000000; stroke-width: 0.8"/>
      </g>
     </g>
     <g id="text_11">
      <!-- −2 -->
      <g transform="translate(35.857813 202.95376) scale(0.1 -0.1)">
       <use xlink:href="#DejaVuSans-2212"/>
       <use xlink:href="#DejaVuSans-32" x="83.789062"/>
      </g>
     </g>
    </g>
    <g id="ytick_5">
     <g id="line2d_11">
      <g>
       <use xlink:href="#m8f556d73f9" x="57.6" y="164.770712" style="stroke: #000000; stroke-width: 0.8"/>
      </g>
     </g>
     <g id="text_12">
      <!-- 0 -->
      <g transform="translate(44.2375 168.569931) scale(0.1 -0.1)">
       <use xlink:href="#DejaVuSans-30"/>
      </g>
     </g>
    </g>
    <g id="ytick_6">
     <g id="line2d_12">
      <g>
       <use xlink:href="#m8f556d73f9" x="57.6" y="130.386883" style="stroke: #000000; stroke-width: 0.8"/>
      </g>
     </g>
     <g id="text_13">
      <!-- 2 -->
      <g transform="translate(44.2375 134.186101) scale(0.1 -0.1)">
       <use xlink:href="#DejaVuSans-32"/>
      </g>
     </g>
    </g>
    <g id="ytick_7">
     <g id="line2d_13">
      <g>
       <use xlink:href="#m8f556d73f9" x="57.6" y="96.003053" style="stroke: #000000; stroke-width: 0.8"/>
      </g>
     </g>
     <g id="text_14">
      <!-- 4 -->
      <g transform="translate(44.2375 99.802272) scale(0.1 -0.1)">
       <use xlink:href="#DejaVuSans-34"/>
      </g>
     </g>
    </g>
    <g id="ytick_8">
     <g id="line2d_14">
      <g>
       <use xlink:href="#m8f556d73f9" x="57.6" y="61.619224" style="stroke: #000000; stroke-width: 0.8"/>
      </g>
     </g>
     <g id="text_15">
      <!-- 6 -->
      <g transform="translate(44.2375 65.418443) scale(0.1 -0.1)">
       <use xlink:href="#DejaVuSans-36"/>
      </g>
     </g>
    </g>
    <g id="text_16">
     <!-- Значения ряда -->
     <g transform="translate(29.778125 213.914719) rotate(-90) scale(0.1 -0.1)">
      <defs>
       <path id="DejaVuSans-417" d="M 1828 4750 
Q 2597 4750 3084 4423 
Q 3572 4097 3572 3541 
Q 3572 3153 3350 2886 
Q 3128 2619 2719 2516 
Q 3172 2419 3426 2112 
Q 3681 1806 3681 1356 
Q 3681 638 3126 273 
Q 2572 -91 1828 -91 
Q 1447 -91 1003 12 
Q 559 116 422 203 
L 422 853 
Q 900 575 1164 508 
Q 1428 441 1816 441 
Q 2403 441 2728 666 
Q 3053 891 3053 1356 
Q 3053 1769 2764 2001 
Q 2475 2234 1866 2234 
L 1228 2234 
L 1228 2753 
L 1891 2753 
Q 2450 2753 2697 2939 
Q 2944 3125 2944 3475 
Q 2944 3834 2689 4026 
Q 2434 4219 1816 4219 
Q 1397 4219 1253 4181 
Q 1109 4144 469 3903 
L 469 4519 
Q 822 4644 1190 4697 
Q 1559 4750 1828 4750 
z
" transform="scale(0.015625)"/>
       <path id="DejaVuSans-430" d="M 2194 1759 
Q 1497 1759 1228 1600 
Q 959 1441 959 1056 
Q 959 750 1161 570 
Q 1363 391 1709 391 
Q 2188 391 2477 730 
Q 2766 1069 2766 1631 
L 2766 1759 
L 2194 1759 
z
M 3341 1997 
L 3341 0 
L 2766 0 
L 2766 531 
Q 2569 213 2275 61 
Q 1981 -91 1556 -91 
Q 1019 -91 701 211 
Q 384 513 384 1019 
Q 384 1609 779 1909 
Q 1175 2209 1959 2209 
L 2766 2209 
L 2766 2266 
Q 2766 2663 2505 2880 
Q 2244 3097 1772 3097 
Q 1472 3097 1187 3025 
Q 903 2953 641 2809 
L 641 3341 
Q 956 3463 1253 3523 
Q 1550 3584 1831 3584 
Q 2591 3584 2966 3190 
Q 3341 2797 3341 1997 
z
" transform="scale(0.015625)"/>
       <path id="DejaVuSans-447" d="M 2625 0 
L 2625 1472 
L 1553 1472 
Q 1075 1472 756 1769 
Q 469 2038 469 2613 
L 469 3500 
L 1044 3500 
L 1044 2666 
Q 1044 2300 1206 2116 
Q 1372 1931 1697 1931 
L 2625 1931 
L 2625 3500 
L 3200 3500 
L 3200 0 
L 2625 0 
z
" transform="scale(0.015625)"/>
       <path id="DejaVuSans-44f" d="M 1181 2491 
Q 1181 2231 1381 2084 
Q 1581 1938 1953 1938 
L 2728 1938 
L 2728 3041 
L 1953 3041 
Q 1581 3041 1381 2897 
Q 1181 2753 1181 2491 
z
M 363 0 
L 1431 1534 
Q 1069 1616 828 1830 
Q 588 2044 588 2491 
Q 588 2997 923 3248 
Q 1259 3500 1938 3500 
L 3306 3500 
L 3306 0 
L 2728 0 
L 2728 1478 
L 2013 1478 
L 981 0 
L 363 0 
z
" transform="scale(0.015625)"/>
       <path id="DejaVuSans-434" d="M 1384 459 
L 3053 459 
L 3053 3041 
L 1844 3041 
L 1844 2603 
Q 1844 1316 1475 628 
L 1384 459 
z
M 550 459 
Q 834 584 959 850 
Q 1266 1509 1266 2838 
L 1266 3500 
L 3631 3500 
L 3631 459 
L 4091 459 
L 4091 -884 
L 3631 -884 
L 3631 0 
L 794 0 
L 794 -884 
L 334 -884 
L 334 459 
L 550 459 
z
" transform="scale(0.015625)"/>
      </defs>
      <use xlink:href="#DejaVuSans-417"/>
      <use xlink:href="#DejaVuSans-43d" x="64.111328"/>
      <use xlink:href="#DejaVuSans-430" x="129.492188"/>
      <use xlink:href="#DejaVuSans-447" x="190.771484"/>
      <use xlink:href="#DejaVuSans-435" x="249.853516"/>
      <use xlink:href="#DejaVuSans-43d" x="311.376953"/>
      <use xlink:href="#DejaVuSans-438" x="376.757812"/>
      <use xlink:href="#DejaVuSans-44f" x="441.748047"/>
      <use xlink:href="#DejaVuSans-20" x="501.904297"/>
      <use xlink:href="#DejaVuSans-440" x="533.691406"/>
      <use xlink:href="#DejaVuSans-44f" x="597.167969"/>
      <use xlink:href="#DejaVuSans-434" x="657.324219"/>
      <use xlink:href="#DejaVuSans-430" x="726.464844"/>
     </g>
    </g>
   </g>
   <g id="line2d_15">
    <path d="M 73.832727 295.488 
L 74.156734 218.539395 
L 74.48074 53.568 
L 74.804747 262.190621 
L 75.45276 109.132306 
L 75.776766 231.23512 
L 76.100773 161.145416 
L 76.42478 141.61004 
L 76.748786 205.604933 
L 77.072793 162.665154 
L 77.396799 162.606174 
L 77.720806 186.777559 
L 78.044812 163.022965 
L 78.368819 164.138073 
L 78.692825 180.327496 
L 79.016832 163.885606 
L 79.340838 163.112732 
L 79.664845 173.703599 
L 80.312858 159.54703 
L 80.636864 170.18706 
L 80.960871 163.606669 
L 81.284878 162.68648 
L 81.608884 166.198655 
L 81.932891 164.66314 
L 82.256897 161.104663 
L 82.580904 164.640985 
L 82.90491 170.049006 
L 83.228917 163.196717 
L 83.552923 162.376828 
L 83.87693 166.869014 
L 84.200936 157.149608 
L 84.524943 167.250716 
L 84.848949 168.097575 
L 85.172956 161.688181 
L 85.496962 162.395287 
L 85.820969 164.726857 
L 86.144976 162.667191 
L 86.468982 164.630864 
L 86.792989 171.850272 
L 87.441002 164.381308 
L 87.765008 172.051189 
L 88.413021 159.755926 
L 88.737028 175.804289 
L 89.061034 160.846498 
L 89.709047 168.758497 
L 90.033054 157.599867 
L 90.35706 168.033519 
L 90.681067 165.155557 
L 91.005073 159.305638 
L 91.32908 166.965183 
L 91.653087 159.411136 
L 91.977093 160.948002 
L 92.3011 166.006133 
L 92.625106 162.917163 
L 92.949113 163.127255 
L 93.273119 166.455453 
L 93.597126 166.337129 
L 93.921132 169.118431 
L 94.245139 163.073004 
L 94.569145 168.640306 
L 94.893152 167.18893 
L 95.217158 166.320583 
L 95.541165 169.045685 
L 95.865171 162.159275 
L 96.189178 164.168423 
L 96.513185 168.275208 
L 96.837191 164.910826 
L 97.161198 158.707467 
L 97.485204 163.959763 
L 97.809211 161.529578 
L 98.133217 167.98118 
L 98.457224 159.315148 
L 98.78123 158.586227 
L 99.105237 167.276937 
L 99.429243 156.807996 
L 99.75325 161.860043 
L 100.077256 162.700452 
L 100.401263 158.904088 
L 100.725269 167.788511 
L 101.049276 164.697671 
L 101.373283 160.247273 
L 101.697289 170.676916 
L 102.021296 161.574823 
L 102.345302 159.910791 
L 102.669309 167.140454 
L 103.317322 160.335187 
L 103.641328 170.229912 
L 104.289341 160.582399 
L 104.613348 169.209786 
L 104.937354 160.274221 
L 105.261361 163.492454 
L 105.585367 158.813674 
L 105.909374 167.558393 
L 106.233381 161.236789 
L 106.881394 165.355327 
L 107.2054 163.251344 
L 107.529407 158.507518 
L 107.853413 163.346941 
L 108.17742 159.785319 
L 108.501426 160.179974 
L 108.825433 160.754495 
L 109.149439 164.000495 
L 109.473446 160.159401 
L 109.797452 161.145032 
L 110.121459 159.377165 
L 110.445465 167.442761 
L 110.769472 165.345455 
L 111.093478 164.920575 
L 111.417485 169.029998 
L 111.741492 166.557769 
L 112.065498 166.545708 
L 112.389505 172.209204 
L 112.713511 171.46036 
L 113.037518 165.000974 
L 113.361524 162.926946 
L 113.685531 171.776733 
L 114.009537 156.974151 
L 114.333544 165.454816 
L 114.65755 170.253723 
L 114.981557 162.088983 
L 115.305563 168.147316 
L 115.62957 169.362789 
L 115.953576 166.536734 
L 116.277583 168.663194 
L 116.60159 169.257755 
L 116.925596 164.161988 
L 117.249603 172.020866 
L 117.573609 167.755627 
L 117.897616 170.52531 
L 118.221622 171.34502 
L 118.545629 166.686749 
L 118.869635 166.734218 
L 119.193642 169.679912 
L 119.841655 158.462273 
L 120.165661 167.973587 
L 120.489668 167.674056 
L 120.813674 164.128507 
L 121.137681 163.975468 
L 121.461688 160.365904 
L 121.785694 164.275454 
L 122.109701 157.951865 
L 122.433707 165.742158 
L 122.757714 160.597591 
L 123.08172 167.092954 
L 123.405727 167.952457 
L 123.729733 161.505052 
L 124.05374 166.628463 
L 124.701753 157.287674 
L 125.025759 163.497462 
L 125.349766 166.382195 
L 125.673772 158.650111 
L 125.997779 159.811168 
L 126.321786 163.33735 
L 126.645792 157.631777 
L 126.969799 165.965004 
L 127.293805 159.113502 
L 127.617812 166.520659 
L 127.941818 165.71584 
L 128.265825 159.201841 
L 128.589831 169.380784 
L 128.913838 170.332579 
L 129.237844 158.633105 
L 129.561851 170.674457 
L 129.885857 168.80895 
L 130.209864 160.818161 
L 130.53387 168.952278 
L 130.857877 171.485126 
L 131.181884 163.968805 
L 131.50589 171.595145 
L 132.153903 162.125217 
L 132.47791 166.150393 
L 132.801916 167.026884 
L 133.125923 161.240968 
L 133.773936 166.385181 
L 134.097942 168.211844 
L 134.421949 168.41314 
L 135.069962 166.137027 
L 135.393968 172.894847 
L 135.717975 164.171819 
L 136.041981 166.279888 
L 136.365988 169.978242 
L 136.689995 165.300941 
L 137.014001 166.880875 
L 137.338008 173.034022 
L 137.662014 165.004712 
L 137.986021 162.433275 
L 138.310027 168.985529 
L 138.634034 161.061906 
L 139.282047 168.527601 
L 139.606053 160.501852 
L 140.254066 165.119857 
L 140.578073 165.126743 
L 140.902079 164.451632 
L 141.226086 165.20228 
L 141.550093 164.856147 
L 141.874099 170.044196 
L 142.198106 166.823027 
L 142.522112 167.583124 
L 142.846119 163.60323 
L 143.170125 169.149581 
L 143.494132 164.084568 
L 144.142145 171.685288 
L 144.466151 168.487485 
L 144.790158 173.857501 
L 145.114164 177.027353 
L 145.438171 168.506131 
L 145.762177 168.673368 
L 146.086184 173.655902 
L 146.410191 166.711567 
L 146.734197 169.666532 
L 147.058204 175.888899 
L 147.38221 166.318794 
L 147.706217 171.596849 
L 148.030223 171.574103 
L 148.35423 164.693188 
L 148.678236 166.057825 
L 149.002243 162.521415 
L 149.650256 168.50804 
L 149.974262 165.36609 
L 150.298269 163.773372 
L 150.622275 165.154906 
L 150.946282 164.889979 
L 151.270289 168.253254 
L 151.918302 159.634736 
L 152.242308 168.860362 
L 152.566315 160.035119 
L 152.890321 160.059218 
L 153.214328 164.946092 
L 153.538334 162.976085 
L 153.862341 158.536642 
L 154.186347 163.032018 
L 154.510354 162.975428 
L 154.83436 157.759165 
L 155.158367 170.326901 
L 155.482373 166.833565 
L 155.80638 159.580279 
L 156.130386 163.065489 
L 156.454393 174.447716 
L 156.7784 161.484195 
L 157.426413 171.4282 
L 157.750419 163.236818 
L 158.074426 169.96662 
L 158.398432 160.80991 
L 158.722439 161.32083 
L 159.046445 165.810801 
L 159.370452 165.742459 
L 159.694458 166.207928 
L 160.018465 163.181422 
L 160.342471 167.363593 
L 160.990484 161.644154 
L 161.314491 168.264537 
L 161.638498 162.068534 
L 161.962504 162.164651 
L 162.286511 166.473505 
L 162.610517 160.774565 
L 162.934524 167.428452 
L 163.25853 166.71131 
L 163.582537 166.701535 
L 163.906543 166.340559 
L 164.23055 168.612207 
L 164.554556 169.943506 
L 164.878563 162.584117 
L 165.202569 162.31813 
L 165.526576 164.169211 
L 165.850582 161.240031 
L 166.174589 163.447667 
L 166.498596 167.098915 
L 166.822602 155.85169 
L 167.470615 168.268678 
L 167.794622 158.346685 
L 168.118628 160.018914 
L 168.442635 164.07985 
L 168.766641 160.389859 
L 169.090648 159.012745 
L 169.414654 170.708209 
L 169.738661 160.215378 
L 170.062667 168.513196 
L 170.386674 165.620567 
L 170.71068 159.587249 
L 171.034687 167.380214 
L 171.358694 170.020161 
L 171.6827 163.898856 
L 172.006707 163.539479 
L 172.330713 169.951522 
L 172.65472 161.666287 
L 172.978726 162.082846 
L 173.302733 165.658805 
L 173.626739 161.211832 
L 173.950746 161.094278 
L 174.274752 160.569278 
L 174.598759 160.940022 
L 174.922765 153.47749 
L 175.246772 164.556189 
L 175.570778 156.287468 
L 175.894785 157.511215 
L 176.218792 161.299693 
L 176.542798 158.391318 
L 176.866805 158.868554 
L 177.190811 164.302709 
L 177.514818 154.258354 
L 177.838824 156.533189 
L 178.162831 164.702261 
L 178.486837 156.457637 
L 178.810844 164.027336 
L 179.13485 161.726685 
L 179.458857 160.666323 
L 179.782863 164.428053 
L 180.10687 163.422569 
L 180.430876 163.948246 
L 180.754883 168.089415 
L 181.078889 160.122041 
L 181.402896 172.667351 
L 181.726903 165.430515 
L 182.050909 162.713228 
L 182.374916 170.616972 
L 183.022929 162.013054 
L 183.346935 167.999326 
L 183.670942 163.419053 
L 184.318955 159.536772 
L 184.642961 163.141485 
L 184.966968 168.305952 
L 185.290974 162.343315 
L 185.614981 163.70243 
L 185.938987 163.716887 
L 186.262994 164.989287 
L 186.911007 161.303187 
L 187.235014 167.115679 
L 187.55902 166.56921 
L 187.883027 157.62855 
L 188.207033 161.842537 
L 188.53104 170.296903 
L 188.855046 158.32642 
L 189.179053 160.750341 
L 189.503059 171.365188 
L 189.827066 154.447118 
L 190.475079 172.053935 
L 190.799085 160.208672 
L 191.123092 163.961598 
L 191.447099 165.065036 
L 191.771105 159.490727 
L 192.095112 172.1411 
L 192.419118 163.336872 
L 192.743125 160.13296 
L 193.067131 170.579339 
L 193.391138 168.989694 
L 193.715144 163.292034 
L 194.039151 167.783901 
L 194.363157 170.536223 
L 194.687164 162.682537 
L 195.01117 170.436134 
L 195.659183 165.524161 
L 195.98319 169.172047 
L 196.307197 170.301061 
L 196.631203 164.820439 
L 196.95521 166.274997 
L 197.279216 169.537474 
L 197.603223 161.822224 
L 197.927229 163.183664 
L 198.251236 169.504777 
L 198.575242 160.995348 
L 198.899249 169.565454 
L 199.223255 167.954267 
L 199.547262 158.30085 
L 199.871268 167.514248 
L 200.195275 159.95108 
L 200.519281 165.413136 
L 200.843288 161.888432 
L 201.167295 163.952999 
L 201.815308 166.122864 
L 202.139314 161.996053 
L 202.463321 173.90357 
L 202.787327 170.267302 
L 203.111334 157.113332 
L 203.43534 172.457966 
L 203.759347 163.586482 
L 204.083353 158.783643 
L 204.40736 172.109545 
L 204.731366 162.25806 
L 205.055373 160.36958 
L 205.379379 174.046405 
L 205.703386 166.476066 
L 206.027392 164.626798 
L 206.351399 173.14801 
L 206.999412 162.442231 
L 207.323419 174.070832 
L 207.647425 163.373878 
L 207.971432 169.360639 
L 208.295438 171.944807 
L 208.619445 164.102064 
L 208.943451 168.435486 
L 209.267458 166.824681 
L 209.591464 160.948579 
L 209.915471 163.155046 
L 210.239477 167.814368 
L 210.88749 162.465626 
L 211.211497 164.416661 
L 211.535504 162.647605 
L 211.85951 169.037238 
L 212.183517 164.32876 
L 212.507523 163.286695 
L 212.83153 162.872872 
L 213.479543 160.832023 
L 213.803549 156.432961 
L 214.127556 156.882656 
L 214.451562 159.370856 
L 214.775569 159.256632 
L 215.099575 155.839834 
L 215.423582 160.052965 
L 215.747588 165.795989 
L 216.071595 159.228169 
L 216.395602 168.825845 
L 216.719608 162.203461 
L 217.043615 164.125866 
L 217.367621 163.869301 
L 217.691628 160.627908 
L 218.339641 167.596934 
L 218.663647 157.834689 
L 219.31166 171.120552 
L 219.635667 162.851965 
L 219.959673 166.123143 
L 220.28368 164.521251 
L 220.607686 166.060749 
L 220.931693 164.573883 
L 221.2557 166.931319 
L 221.579706 164.010778 
L 221.903713 168.961517 
L 222.551726 164.513232 
L 222.875732 164.925591 
L 223.199739 172.16507 
L 223.523745 163.669327 
L 223.847752 163.37036 
L 224.171758 172.714493 
L 224.495765 156.709229 
L 224.819771 162.106672 
L 225.143778 165.493949 
L 225.467784 158.15705 
L 225.791791 171.134823 
L 226.115797 161.001909 
L 226.439804 161.156899 
L 226.763811 167.572455 
L 227.087817 161.57265 
L 227.411824 173.002122 
L 227.73583 163.053048 
L 228.059837 160.31808 
L 228.383843 165.4245 
L 228.70785 165.242114 
L 229.031856 161.875417 
L 229.355863 162.613469 
L 229.679869 162.958391 
L 230.003876 161.042108 
L 230.327882 167.538306 
L 230.651889 161.378324 
L 230.975895 167.087933 
L 231.299902 169.801531 
L 231.623909 167.6366 
L 231.947915 167.536028 
L 232.595928 172.07729 
L 232.919935 161.066311 
L 233.243941 168.620006 
L 233.567948 165.819832 
L 233.891954 165.963661 
L 234.215961 168.115075 
L 234.863974 160.582022 
L 235.18798 174.072146 
L 235.511987 161.505189 
L 235.835993 161.789258 
L 236.16 169.40993 
L 236.484007 161.540889 
L 236.808013 164.563573 
L 237.13202 160.937878 
L 237.456026 161.615243 
L 237.780033 157.342974 
L 238.104039 164.913023 
L 238.428046 164.062305 
L 238.752052 158.074412 
L 239.076059 165.051806 
L 239.724072 161.462841 
L 240.048078 165.565874 
L 240.372085 161.406095 
L 240.696091 161.476893 
L 241.020098 164.173318 
L 241.344105 165.889427 
L 241.668111 155.075586 
L 241.992118 171.185242 
L 242.640131 155.614983 
L 242.964137 163.596034 
L 243.61215 165.95547 
L 243.936157 160.55745 
L 244.260163 165.772318 
L 244.58417 159.05487 
L 244.908176 158.967013 
L 245.232183 164.227791 
L 245.556189 162.933359 
L 245.880196 163.713335 
L 246.204203 164.939778 
L 246.528209 161.422825 
L 246.852216 160.92542 
L 247.176222 172.645376 
L 247.500229 161.274096 
L 247.824235 159.486176 
L 248.148242 172.048306 
L 248.472248 165.772243 
L 248.796255 166.688191 
L 249.120261 168.203889 
L 249.444268 162.503043 
L 249.768274 171.462259 
L 250.092281 164.221329 
L 250.416287 162.622256 
L 250.740294 168.95097 
L 251.0643 169.49335 
L 251.388307 164.676998 
L 251.712314 162.241366 
L 252.03632 171.517549 
L 252.360327 168.352891 
L 252.684333 160.77645 
L 253.00834 171.039222 
L 253.656353 159.8158 
L 253.980359 166.124879 
L 254.304366 165.243479 
L 254.628372 162.360136 
L 254.952379 167.957533 
L 255.276385 171.161047 
L 255.600392 165.112942 
L 255.924398 167.329909 
L 256.248405 166.206486 
L 256.572412 164.012963 
L 256.896418 166.265949 
L 257.220425 162.575039 
L 257.544431 171.477595 
L 257.868438 170.500442 
L 258.192444 166.466583 
L 258.516451 175.027755 
L 258.840457 158.42877 
L 259.164464 163.490547 
L 259.48847 175.357206 
L 259.812477 158.969343 
L 260.136483 170.970223 
L 260.46049 175.362897 
L 260.784496 157.296913 
L 261.108503 167.645631 
L 261.43251 169.239387 
L 261.756516 155.719693 
L 262.080523 168.662537 
L 262.404529 166.68154 
L 262.728536 163.066617 
L 263.052542 171.041252 
L 263.376549 164.744551 
L 263.700555 166.661627 
L 264.024562 170.404578 
L 264.348568 158.470853 
L 264.672575 162.492264 
L 264.996581 164.089934 
L 265.320588 159.47775 
L 265.644594 162.130497 
L 265.968601 163.732799 
L 266.292608 163.14198 
L 266.616614 165.561942 
L 266.940621 166.468191 
L 267.264627 159.932016 
L 267.588634 162.715556 
L 267.91264 166.951792 
L 268.236647 160.790256 
L 268.560653 162.588969 
L 268.88466 156.616434 
L 269.208666 168.862505 
L 269.856679 159.583849 
L 270.180686 165.211902 
L 271.152705 160.921851 
L 271.476712 162.050234 
L 271.800719 162.237708 
L 272.124725 163.695503 
L 272.448732 160.499803 
L 272.772738 159.398428 
L 273.096745 162.251773 
L 273.420751 159.739695 
L 273.744758 165.893114 
L 274.068764 161.981391 
L 274.392771 161.259141 
L 274.716777 167.987727 
L 275.36479 169.20168 
L 275.688797 171.973859 
L 276.012803 167.239124 
L 276.660817 169.520555 
L 276.984823 165.403396 
L 277.30883 167.26406 
L 277.632836 174.445522 
L 277.956843 158.639356 
L 278.280849 172.662118 
L 278.604856 169.672042 
L 278.928862 162.623674 
L 279.576875 170.742583 
L 279.900882 161.277296 
L 280.224888 169.044442 
L 280.548895 171.649445 
L 280.872901 160.107477 
L 281.196908 161.657759 
L 281.520915 174.182561 
L 281.844921 161.256913 
L 282.168928 163.768801 
L 282.492934 171.646117 
L 282.816941 162.193838 
L 283.140947 163.992428 
L 283.464954 175.277303 
L 283.78896 164.560815 
L 284.436973 168.305002 
L 284.76098 160.659388 
L 285.084986 167.245332 
L 285.408993 162.449203 
L 285.732999 163.599317 
L 286.057006 163.167772 
L 286.381013 162.481245 
L 286.705019 166.24504 
L 287.029026 164.814193 
L 287.353032 160.301893 
L 287.677039 172.733727 
L 288.001045 168.530462 
L 288.325052 160.675286 
L 288.649058 172.544089 
L 289.297071 163.881013 
L 289.621078 176.146016 
L 290.269091 159.678818 
L 290.593097 172.923464 
L 291.241111 162.364461 
L 291.565117 169.63954 
L 291.889124 167.855705 
L 292.21313 164.152518 
L 292.537137 172.241391 
L 292.861143 160.237508 
L 293.18515 160.833316 
L 293.509156 169.672246 
L 293.833163 163.574756 
L 294.157169 162.640179 
L 294.805182 168.448198 
L 295.129189 158.120149 
L 295.777202 170.109953 
L 296.101208 156.080805 
L 296.425215 170.319798 
L 296.749222 168.33429 
L 297.073228 157.215042 
L 297.397235 170.587507 
L 297.721241 167.705088 
L 298.045248 163.289723 
L 298.369254 170.962072 
L 298.693261 164.638606 
L 299.017267 163.791619 
L 299.341274 167.238614 
L 299.66528 163.380022 
L 299.989287 162.111533 
L 300.313293 166.396521 
L 300.6373 166.744737 
L 301.60932 164.665527 
L 301.933326 168.608926 
L 302.257333 167.034301 
L 302.581339 167.521423 
L 303.229352 162.493263 
L 303.553359 166.824378 
L 303.877365 169.249365 
L 304.201372 165.034781 
L 304.525378 159.281773 
L 304.849385 167.980389 
L 305.173391 159.850909 
L 305.497398 159.761195 
L 305.821404 167.47117 
L 306.145411 165.372455 
L 306.469418 164.012643 
L 306.793424 167.048653 
L 307.117431 163.27538 
L 307.441437 163.131993 
L 307.765444 169.215482 
L 308.08945 165.666669 
L 308.413457 160.405452 
L 308.737463 168.807986 
L 309.06147 161.594251 
L 309.385476 160.06963 
L 309.709483 167.346492 
L 310.033489 169.945019 
L 310.357496 163.212598 
L 311.005509 173.704668 
L 311.329516 160.141146 
L 311.653522 162.065438 
L 311.977529 171.121346 
L 312.301535 160.519876 
L 312.625542 159.491055 
L 312.949548 171.749541 
L 313.273555 160.275099 
L 313.597561 162.144616 
L 313.921568 169.245619 
L 314.245574 151.801219 
L 314.569581 167.309072 
L 314.893587 165.625885 
L 315.217594 158.241723 
L 315.5416 166.905613 
L 316.189614 170.569711 
L 316.51362 162.378354 
L 317.161633 175.131748 
L 317.809646 159.780042 
L 318.133653 168.591143 
L 318.457659 173.416196 
L 318.781666 159.747324 
L 319.105672 164.706092 
L 319.429679 172.299421 
L 319.753685 165.540692 
L 320.077692 166.167816 
L 320.401698 168.179043 
L 320.725705 165.388422 
L 321.049711 170.040174 
L 321.697725 163.61084 
L 322.021731 166.186131 
L 322.345738 170.675857 
L 322.669744 164.599694 
L 322.993751 168.104657 
L 323.317757 174.075726 
L 323.641764 163.692148 
L 323.96577 167.870177 
L 324.289777 163.598113 
L 324.613783 161.125593 
L 324.93779 167.458826 
L 325.261796 162.074835 
L 325.585803 163.275916 
L 325.909809 166.171492 
L 326.233816 161.546867 
L 326.557823 159.951912 
L 326.881829 159.541337 
L 327.205836 159.814333 
L 327.529842 162.978215 
L 327.853849 160.201026 
L 328.177855 161.028027 
L 328.501862 159.045354 
L 328.825868 159.056801 
L 329.149875 159.745961 
L 329.473881 155.628235 
L 329.797888 161.685533 
L 330.121894 160.438497 
L 330.445901 163.368272 
L 331.093914 158.92471 
L 331.417921 164.288123 
L 331.741927 163.996519 
L 332.065934 156.617443 
L 332.38994 165.936987 
L 332.713947 168.102472 
L 333.037953 168.274949 
L 333.36196 171.216723 
L 333.685966 159.795291 
L 334.333979 168.157556 
L 334.657986 157.598252 
L 334.981992 166.831019 
L 335.305999 171.893489 
L 335.630005 164.079764 
L 335.954012 172.459577 
L 336.278019 172.055306 
L 336.602025 162.052508 
L 336.926032 171.068116 
L 337.250038 168.659161 
L 337.574045 164.683716 
L 337.898051 171.350036 
L 338.222058 166.79059 
L 338.546064 164.564681 
L 338.870071 165.464855 
L 339.194077 173.84741 
L 339.518084 163.259279 
L 339.84209 170.768062 
L 340.166097 172.183776 
L 340.490103 162.894673 
L 340.81411 172.541171 
L 341.138116 164.471092 
L 341.462123 161.477447 
L 341.78613 169.381013 
L 342.110136 167.340338 
L 342.434143 164.309783 
L 342.758149 170.377534 
L 343.082156 158.453828 
L 343.406162 165.85088 
L 343.730169 166.496592 
L 344.054175 157.17972 
L 344.378182 165.367395 
L 345.026195 157.377076 
L 345.350201 168.433485 
L 345.674208 164.569878 
L 345.998214 164.347528 
L 346.322221 170.039926 
L 346.646228 164.392099 
L 346.970234 166.203422 
L 347.294241 169.842949 
L 347.618247 164.17393 
L 347.942254 167.279211 
L 348.26626 168.090862 
L 348.590267 164.672005 
L 348.914273 163.344392 
L 349.23828 162.814835 
L 349.562286 163.018387 
L 349.886293 168.636247 
L 350.210299 162.004608 
L 350.534306 163.521601 
L 350.858312 168.835669 
L 351.182319 162.157093 
L 351.506326 164.372893 
L 351.830332 164.509127 
L 352.154339 161.626516 
L 352.478345 161.588684 
L 352.802352 162.721396 
L 353.126358 161.071346 
L 353.450365 161.589163 
L 353.774371 167.092323 
L 354.098378 162.537318 
L 354.422384 164.446619 
L 354.746391 167.959226 
L 355.070397 159.833902 
L 355.394404 167.729032 
L 355.71841 163.697948 
L 356.042417 161.374028 
L 356.366424 172.911877 
L 356.69043 161.1254 
L 357.338443 170.914807 
L 357.66245 165.070597 
L 357.986456 171.529283 
L 358.310463 164.307049 
L 358.634469 167.274932 
L 358.958476 166.304065 
L 359.606489 159.819214 
L 359.930495 169.130913 
L 360.578508 156.621063 
L 360.902515 166.284818 
L 361.226522 161.639591 
L 361.550528 164.807159 
L 362.198541 158.701504 
L 362.522548 172.978617 
L 362.846554 164.416568 
L 363.170561 160.760458 
L 363.494567 171.307561 
L 364.14258 161.927966 
L 364.466587 175.469943 
L 364.790593 162.940344 
L 365.1146 159.956827 
L 365.438606 171.890854 
L 365.762613 170.070413 
L 366.086619 163.928083 
L 366.410626 168.654645 
L 366.734633 164.825487 
L 367.058639 171.419482 
L 367.382646 169.049482 
L 367.706652 164.727385 
L 368.030659 164.648697 
L 368.354665 173.274268 
L 368.678672 169.071212 
L 369.002678 166.630426 
L 369.650691 175.267149 
L 369.974698 169.33042 
L 370.298704 172.906896 
L 370.622711 170.482048 
L 370.946717 172.4026 
L 371.270724 167.385575 
L 371.594731 167.66909 
L 371.918737 172.116488 
L 372.242744 161.673971 
L 372.56675 168.221759 
L 373.214763 157.413116 
L 373.53877 167.69378 
L 373.862776 162.753389 
L 374.186783 162.196586 
L 374.510789 167.146891 
L 374.834796 165.697765 
L 375.158802 165.011349 
L 375.482809 166.655375 
L 375.806815 157.795461 
L 376.130822 171.155153 
L 376.454829 168.15568 
L 376.778835 163.314327 
L 377.102842 173.202065 
L 377.426848 164.734436 
L 377.750855 159.964642 
L 378.074861 163.658419 
L 378.398868 157.568912 
L 378.722874 163.116344 
L 379.046881 162.126032 
L 379.370887 155.791672 
L 379.694894 166.593836 
L 380.0189 162.623154 
L 380.342907 162.104641 
L 380.666913 162.930293 
L 380.99092 164.867673 
L 381.314927 167.842817 
L 381.638933 160.539004 
L 381.96294 167.492618 
L 382.286946 164.388539 
L 382.610953 164.809415 
L 382.934959 165.985419 
L 383.258966 162.252952 
L 383.582972 161.115268 
L 383.906979 163.492699 
L 384.230985 164.703858 
L 384.554992 163.599327 
L 384.878998 161.164761 
L 385.203005 161.904459 
L 385.527011 158.767197 
L 385.851018 161.779496 
L 386.175024 166.701633 
L 386.499031 164.141798 
L 386.823038 160.179627 
L 387.147044 163.16661 
L 387.471051 164.066529 
L 387.795057 161.884492 
L 388.119064 160.669254 
L 388.44307 162.929688 
L 388.767077 160.760482 
L 389.091083 172.419766 
L 389.739096 161.994005 
L 390.063103 170.009899 
L 390.387109 165.528958 
L 390.711116 165.4999 
L 391.035122 169.627423 
L 391.359129 161.880401 
L 391.683136 160.501482 
L 392.007142 168.927742 
L 392.331149 157.638771 
L 392.655155 168.299922 
L 392.979162 164.022938 
L 393.303168 162.560977 
L 393.951181 167.600034 
L 394.275188 159.300589 
L 394.599194 168.382052 
L 395.247207 160.312547 
L 395.571214 164.159994 
L 395.89522 166.375613 
L 396.219227 162.096144 
L 396.543234 164.430477 
L 396.86724 173.664751 
L 397.191247 162.987807 
L 397.515253 167.314284 
L 397.83926 168.827567 
L 398.163266 157.760678 
L 398.487273 163.609271 
L 398.487273 163.609271 
" clip-path="url(#p167eb1247a)" style="fill: none; stroke: #1f77b4; stroke-width: 1.5; stroke-linecap: square"/>
   </g>
   <g id="patch_3">
    <path d="M 57.6 307.584 
L 57.6 41.472 
" style="fill: none; stroke: #000000; stroke-width: 0.8; stroke-linejoin: miter; stroke-linecap: square"/>
   </g>
   <g id="patch_4">
    <path d="M 414.72 307.584 
L 414.72 41.472 
" style="fill: none; stroke: #000000; stroke-width: 0.8; stroke-linejoin: miter; stroke-linecap: square"/>
   </g>
   <g id="patch_5">
    <path d="M 57.6 307.584 
L 414.72 307.584 
" style="fill: none; stroke: #000000; stroke-width: 0.8; stroke-linejoin: miter; stroke-linecap: square"/>
   </g>
   <g id="patch_6">
    <path d="M 57.6 41.472 
L 414.72 41.472 
" style="fill: none; stroke: #000000; stroke-width: 0.8; stroke-linejoin: miter; stroke-linecap: square"/>
   </g>
  </g>
 </g>
 <defs>
  <clipPath id="p167eb1247a">
   <rect x="57.6" y="41.472" width="357.12" height="266.112"/>
  </clipPath>
 </defs>
</svg>
