<?xml version="1.0" encoding="utf-8" standalone="no"?>
<!DOCTYPE svg PUBLIC "-//W3C//DTD SVG 1.1//EN"
  "http://www.w3.org/Graphics/SVG/1.1/DTD/svg11.dtd">
<svg xmlns:xlink="http://www.w3.org/1999/xlink" width="460.8pt" height="345.6pt" viewBox="0 0 460.8 345.6" xmlns="http://www.w3.org/2000/svg" version="1.1">
 <metadata>
  <rdf:RDF xmlns:dc="http://purl.org/dc/elements/1.1/" xmlns:cc="http://creativecommons.org/ns#" xmlns:rdf="http://www.w3.org/1999/02/22-rdf-syntax-ns#">
   <cc:Work>
    <dc:type rdf:resource="http://purl.org/dc/dcmitype/StillImage"/>
    <dc:date>2024-01-07T19:13:02.973462</dc:date>
    <dc:format>image/svg+xml</dc:format>
    <dc:creator>
     <cc:Agent>
      <dc:title>Matplotlib v3.8.0, https://matplotlib.org/</dc:title>
     </cc:Agent>
    </dc:creator>
   </cc:Work>
  </rdf:RDF>
 </metadata>
 <defs>
  <style type="text/css">*{stroke-linejoin: round; stroke-linecap: butt}</style>
 </defs>
 <g id="figure_1">
  <g id="patch_1">
   <path d="M 0 345.6 
L 460.8 345.6 
L 460.8 0 
L 0 0 
z
" style="fill: #ffffff"/>
  </g>
  <g id="axes_1">
   <g id="patch_2">
    <path d="M 57.6 307.584 
L 414.72 307.584 
L 414.72 41.472 
L 57.6 41.472 
z
" style="fill: #ffffff"/>
   </g>
   <g id="matplotlib.axis_1">
    <g id="xtick_1">
     <g id="line2d_1">
      <defs>
       <path id="m2699d35ced" d="M 0 0 
L 0 3.5 
" style="stroke: #000000; stroke-width: 0.8"/>
      </defs>
      <g>
       <use xlink:href="#m2699d35ced" x="73.832727" y="307.584" style="stroke: #000000; stroke-width: 0.8"/>
      </g>
     </g>
     <g id="text_1">
      <!-- 0 -->
      <g transform="translate(70.651477 322.182437) scale(0.1 -0.1)">
       <defs>
        <path id="DejaVuSans-30" d="M 2034 4250 
Q 1547 4250 1301 3770 
Q 1056 3291 1056 2328 
Q 1056 1369 1301 889 
Q 1547 409 2034 409 
Q 2525 409 2770 889 
Q 3016 1369 3016 2328 
Q 3016 3291 2770 3770 
Q 2525 4250 2034 4250 
z
M 2034 4750 
Q 2819 4750 3233 4129 
Q 3647 3509 3647 2328 
Q 3647 1150 3233 529 
Q 2819 -91 2034 -91 
Q 1250 -91 836 529 
Q 422 1150 422 2328 
Q 422 3509 836 4129 
Q 1250 4750 2034 4750 
z
" transform="scale(0.015625)"/>
       </defs>
       <use xlink:href="#DejaVuSans-30"/>
      </g>
     </g>
    </g>
    <g id="xtick_2">
     <g id="line2d_2">
      <g>
       <use xlink:href="#m2699d35ced" x="138.634034" y="307.584" style="stroke: #000000; stroke-width: 0.8"/>
      </g>
     </g>
     <g id="text_2">
      <!-- 200 -->
      <g transform="translate(129.090284 322.182437) scale(0.1 -0.1)">
       <defs>
        <path id="DejaVuSans-32" d="M 1228 531 
L 3431 531 
L 3431 0 
L 469 0 
L 469 531 
Q 828 903 1448 1529 
Q 2069 2156 2228 2338 
Q 2531 2678 2651 2914 
Q 2772 3150 2772 3378 
Q 2772 3750 2511 3984 
Q 2250 4219 1831 4219 
Q 1534 4219 1204 4116 
Q 875 4013 500 3803 
L 500 4441 
Q 881 4594 1212 4672 
Q 1544 4750 1819 4750 
Q 2544 4750 2975 4387 
Q 3406 4025 3406 3419 
Q 3406 3131 3298 2873 
Q 3191 2616 2906 2266 
Q 2828 2175 2409 1742 
Q 1991 1309 1228 531 
z
" transform="scale(0.015625)"/>
       </defs>
       <use xlink:href="#DejaVuSans-32"/>
       <use xlink:href="#DejaVuSans-30" x="63.623047"/>
       <use xlink:href="#DejaVuSans-30" x="127.246094"/>
      </g>
     </g>
    </g>
    <g id="xtick_3">
     <g id="line2d_3">
      <g>
       <use xlink:href="#m2699d35ced" x="203.43534" y="307.584" style="stroke: #000000; stroke-width: 0.8"/>
      </g>
     </g>
     <g id="text_3">
      <!-- 400 -->
      <g transform="translate(193.89159 322.182437) scale(0.1 -0.1)">
       <defs>
        <path id="DejaVuSans-34" d="M 2419 4116 
L 825 1625 
L 2419 1625 
L 2419 4116 
z
M 2253 4666 
L 3047 4666 
L 3047 1625 
L 3713 1625 
L 3713 1100 
L 3047 1100 
L 3047 0 
L 2419 0 
L 2419 1100 
L 313 1100 
L 313 1709 
L 2253 4666 
z
" transform="scale(0.015625)"/>
       </defs>
       <use xlink:href="#DejaVuSans-34"/>
       <use xlink:href="#DejaVuSans-30" x="63.623047"/>
       <use xlink:href="#DejaVuSans-30" x="127.246094"/>
      </g>
     </g>
    </g>
    <g id="xtick_4">
     <g id="line2d_4">
      <g>
       <use xlink:href="#m2699d35ced" x="268.236647" y="307.584" style="stroke: #000000; stroke-width: 0.8"/>
      </g>
     </g>
     <g id="text_4">
      <!-- 600 -->
      <g transform="translate(258.692897 322.182437) scale(0.1 -0.1)">
       <defs>
        <path id="DejaVuSans-36" d="M 2113 2584 
Q 1688 2584 1439 2293 
Q 1191 2003 1191 1497 
Q 1191 994 1439 701 
Q 1688 409 2113 409 
Q 2538 409 2786 701 
Q 3034 994 3034 1497 
Q 3034 2003 2786 2293 
Q 2538 2584 2113 2584 
z
M 3366 4563 
L 3366 3988 
Q 3128 4100 2886 4159 
Q 2644 4219 2406 4219 
Q 1781 4219 1451 3797 
Q 1122 3375 1075 2522 
Q 1259 2794 1537 2939 
Q 1816 3084 2150 3084 
Q 2853 3084 3261 2657 
Q 3669 2231 3669 1497 
Q 3669 778 3244 343 
Q 2819 -91 2113 -91 
Q 1303 -91 875 529 
Q 447 1150 447 2328 
Q 447 3434 972 4092 
Q 1497 4750 2381 4750 
Q 2619 4750 2861 4703 
Q 3103 4656 3366 4563 
z
" transform="scale(0.015625)"/>
       </defs>
       <use xlink:href="#DejaVuSans-36"/>
       <use xlink:href="#DejaVuSans-30" x="63.623047"/>
       <use xlink:href="#DejaVuSans-30" x="127.246094"/>
      </g>
     </g>
    </g>
    <g id="xtick_5">
     <g id="line2d_5">
      <g>
       <use xlink:href="#m2699d35ced" x="333.037953" y="307.584" style="stroke: #000000; stroke-width: 0.8"/>
      </g>
     </g>
     <g id="text_5">
      <!-- 800 -->
      <g transform="translate(323.494203 322.182437) scale(0.1 -0.1)">
       <defs>
        <path id="DejaVuSans-38" d="M 2034 2216 
Q 1584 2216 1326 1975 
Q 1069 1734 1069 1313 
Q 1069 891 1326 650 
Q 1584 409 2034 409 
Q 2484 409 2743 651 
Q 3003 894 3003 1313 
Q 3003 1734 2745 1975 
Q 2488 2216 2034 2216 
z
M 1403 2484 
Q 997 2584 770 2862 
Q 544 3141 544 3541 
Q 544 4100 942 4425 
Q 1341 4750 2034 4750 
Q 2731 4750 3128 4425 
Q 3525 4100 3525 3541 
Q 3525 3141 3298 2862 
Q 3072 2584 2669 2484 
Q 3125 2378 3379 2068 
Q 3634 1759 3634 1313 
Q 3634 634 3220 271 
Q 2806 -91 2034 -91 
Q 1263 -91 848 271 
Q 434 634 434 1313 
Q 434 1759 690 2068 
Q 947 2378 1403 2484 
z
M 1172 3481 
Q 1172 3119 1398 2916 
Q 1625 2713 2034 2713 
Q 2441 2713 2670 2916 
Q 2900 3119 2900 3481 
Q 2900 3844 2670 4047 
Q 2441 4250 2034 4250 
Q 1625 4250 1398 4047 
Q 1172 3844 1172 3481 
z
" transform="scale(0.015625)"/>
       </defs>
       <use xlink:href="#DejaVuSans-38"/>
       <use xlink:href="#DejaVuSans-30" x="63.623047"/>
       <use xlink:href="#DejaVuSans-30" x="127.246094"/>
      </g>
     </g>
    </g>
    <g id="xtick_6">
     <g id="line2d_6">
      <g>
       <use xlink:href="#m2699d35ced" x="397.83926" y="307.584" style="stroke: #000000; stroke-width: 0.8"/>
      </g>
     </g>
     <g id="text_6">
      <!-- 1000 -->
      <g transform="translate(385.11426 322.182437) scale(0.1 -0.1)">
       <defs>
        <path id="DejaVuSans-31" d="M 794 531 
L 1825 531 
L 1825 4091 
L 703 3866 
L 703 4441 
L 1819 4666 
L 2450 4666 
L 2450 531 
L 3481 531 
L 3481 0 
L 794 0 
L 794 531 
z
" transform="scale(0.015625)"/>
       </defs>
       <use xlink:href="#DejaVuSans-31"/>
       <use xlink:href="#DejaVuSans-30" x="63.623047"/>
       <use xlink:href="#DejaVuSans-30" x="127.246094"/>
       <use xlink:href="#DejaVuSans-30" x="190.869141"/>
      </g>
     </g>
    </g>
    <g id="text_7">
     <!-- Момент времени $t$ -->
     <g transform="translate(188.01 335.84025) scale(0.1 -0.1)">
      <defs>
       <path id="DejaVuSans-41c" d="M 628 4666 
L 1569 4666 
L 2759 1491 
L 3956 4666 
L 4897 4666 
L 4897 0 
L 4281 0 
L 4281 4097 
L 3078 897 
L 2444 897 
L 1241 4097 
L 1241 0 
L 628 0 
L 628 4666 
z
" transform="scale(0.015625)"/>
       <path id="DejaVuSans-43e" d="M 1959 3097 
Q 1497 3097 1228 2736 
Q 959 2375 959 1747 
Q 959 1119 1226 758 
Q 1494 397 1959 397 
Q 2419 397 2687 759 
Q 2956 1122 2956 1747 
Q 2956 2369 2687 2733 
Q 2419 3097 1959 3097 
z
M 1959 3584 
Q 2709 3584 3137 3096 
Q 3566 2609 3566 1747 
Q 3566 888 3137 398 
Q 2709 -91 1959 -91 
Q 1206 -91 779 398 
Q 353 888 353 1747 
Q 353 2609 779 3096 
Q 1206 3584 1959 3584 
z
" transform="scale(0.015625)"/>
       <path id="DejaVuSans-43c" d="M 581 3500 
L 1422 3500 
L 2416 1156 
L 3413 3500 
L 4247 3500 
L 4247 0 
L 3669 0 
L 3669 2950 
L 2703 672 
L 2128 672 
L 1159 2950 
L 1159 0 
L 581 0 
L 581 3500 
z
" transform="scale(0.015625)"/>
       <path id="DejaVuSans-435" d="M 3597 1894 
L 3597 1613 
L 953 1613 
Q 991 1019 1311 708 
Q 1631 397 2203 397 
Q 2534 397 2845 478 
Q 3156 559 3463 722 
L 3463 178 
Q 3153 47 2828 -22 
Q 2503 -91 2169 -91 
Q 1331 -91 842 396 
Q 353 884 353 1716 
Q 353 2575 817 3079 
Q 1281 3584 2069 3584 
Q 2775 3584 3186 3129 
Q 3597 2675 3597 1894 
z
M 3022 2063 
Q 3016 2534 2758 2815 
Q 2500 3097 2075 3097 
Q 1594 3097 1305 2825 
Q 1016 2553 972 2059 
L 3022 2063 
z
" transform="scale(0.015625)"/>
       <path id="DejaVuSans-43d" d="M 581 3500 
L 1159 3500 
L 1159 2072 
L 3025 2072 
L 3025 3500 
L 3603 3500 
L 3603 0 
L 3025 0 
L 3025 1613 
L 1159 1613 
L 1159 0 
L 581 0 
L 581 3500 
z
" transform="scale(0.015625)"/>
       <path id="DejaVuSans-442" d="M 188 3500 
L 3541 3500 
L 3541 3041 
L 2147 3041 
L 2147 0 
L 1581 0 
L 1581 3041 
L 188 3041 
L 188 3500 
z
" transform="scale(0.015625)"/>
       <path id="DejaVuSans-20" transform="scale(0.015625)"/>
       <path id="DejaVuSans-432" d="M 1156 1613 
L 1156 459 
L 1975 459 
Q 2369 459 2575 607 
Q 2781 756 2781 1038 
Q 2781 1319 2575 1466 
Q 2369 1613 1975 1613 
L 1156 1613 
z
M 1156 3041 
L 1156 2072 
L 1913 2072 
Q 2238 2072 2444 2201 
Q 2650 2331 2650 2563 
Q 2650 2794 2444 2917 
Q 2238 3041 1913 3041 
L 1156 3041 
z
M 581 3500 
L 1950 3500 
Q 2566 3500 2897 3275 
Q 3228 3050 3228 2634 
Q 3228 2313 3059 2123 
Q 2891 1934 2559 1888 
Q 2956 1813 3175 1575 
Q 3394 1338 3394 981 
Q 3394 513 3033 256 
Q 2672 0 2003 0 
L 581 0 
L 581 3500 
z
" transform="scale(0.015625)"/>
       <path id="DejaVuSans-440" d="M 1159 525 
L 1159 -1331 
L 581 -1331 
L 581 3500 
L 1159 3500 
L 1159 2969 
Q 1341 3281 1617 3432 
Q 1894 3584 2278 3584 
Q 2916 3584 3314 3078 
Q 3713 2572 3713 1747 
Q 3713 922 3314 415 
Q 2916 -91 2278 -91 
Q 1894 -91 1617 61 
Q 1341 213 1159 525 
z
M 3116 1747 
Q 3116 2381 2855 2742 
Q 2594 3103 2138 3103 
Q 1681 3103 1420 2742 
Q 1159 2381 1159 1747 
Q 1159 1113 1420 752 
Q 1681 391 2138 391 
Q 2594 391 2855 752 
Q 3116 1113 3116 1747 
z
" transform="scale(0.015625)"/>
       <path id="DejaVuSans-438" d="M 3578 3500 
L 3578 0 
L 3006 0 
L 3006 2809 
L 1319 0 
L 581 0 
L 581 3500 
L 1153 3500 
L 1153 697 
L 2838 3500 
L 3578 3500 
z
" transform="scale(0.015625)"/>
       <path id="DejaVuSans-Oblique-74" d="M 2706 3500 
L 2619 3053 
L 1472 3053 
L 1100 1153 
Q 1081 1047 1072 975 
Q 1063 903 1063 863 
Q 1063 663 1183 572 
Q 1303 481 1569 481 
L 2150 481 
L 2053 0 
L 1503 0 
Q 991 0 739 200 
Q 488 400 488 806 
Q 488 878 497 964 
Q 506 1050 525 1153 
L 897 3053 
L 409 3053 
L 500 3500 
L 978 3500 
L 1172 4494 
L 1747 4494 
L 1556 3500 
L 2706 3500 
z
" transform="scale(0.015625)"/>
      </defs>
      <use xlink:href="#DejaVuSans-41c" transform="translate(0 0.09375)"/>
      <use xlink:href="#DejaVuSans-43e" transform="translate(86.279297 0.09375)"/>
      <use xlink:href="#DejaVuSans-43c" transform="translate(147.460938 0.09375)"/>
      <use xlink:href="#DejaVuSans-435" transform="translate(222.900391 0.09375)"/>
      <use xlink:href="#DejaVuSans-43d" transform="translate(284.423828 0.09375)"/>
      <use xlink:href="#DejaVuSans-442" transform="translate(349.804688 0.09375)"/>
      <use xlink:href="#DejaVuSans-20" transform="translate(408.056641 0.09375)"/>
      <use xlink:href="#DejaVuSans-432" transform="translate(439.84375 0.09375)"/>
      <use xlink:href="#DejaVuSans-440" transform="translate(498.779297 0.09375)"/>
      <use xlink:href="#DejaVuSans-435" transform="translate(562.255859 0.09375)"/>
      <use xlink:href="#DejaVuSans-43c" transform="translate(623.779297 0.09375)"/>
      <use xlink:href="#DejaVuSans-435" transform="translate(699.21875 0.09375)"/>
      <use xlink:href="#DejaVuSans-43d" transform="translate(760.742188 0.09375)"/>
      <use xlink:href="#DejaVuSans-438" transform="translate(826.123047 0.09375)"/>
      <use xlink:href="#DejaVuSans-20" transform="translate(891.113281 0.09375)"/>
      <use xlink:href="#DejaVuSans-Oblique-74" transform="translate(922.900391 0.09375)"/>
     </g>
    </g>
   </g>
   <g id="matplotlib.axis_2">
    <g id="ytick_1">
     <g id="line2d_7">
      <defs>
       <path id="m2dabcb97f3" d="M 0 0 
L -3.5 0 
" style="stroke: #000000; stroke-width: 0.8"/>
      </defs>
      <g>
       <use xlink:href="#m2dabcb97f3" x="57.6" y="278.432545" style="stroke: #000000; stroke-width: 0.8"/>
      </g>
     </g>
     <g id="text_8">
      <!-- −1 -->
      <g transform="translate(35.857813 282.231764) scale(0.1 -0.1)">
       <defs>
        <path id="DejaVuSans-2212" d="M 678 2272 
L 4684 2272 
L 4684 1741 
L 678 1741 
L 678 2272 
z
" transform="scale(0.015625)"/>
       </defs>
       <use xlink:href="#DejaVuSans-2212"/>
       <use xlink:href="#DejaVuSans-31" x="83.789062"/>
      </g>
     </g>
    </g>
    <g id="ytick_2">
     <g id="line2d_8">
      <g>
       <use xlink:href="#m2dabcb97f3" x="57.6" y="246.410523" style="stroke: #000000; stroke-width: 0.8"/>
      </g>
     </g>
     <g id="text_9">
      <!-- 0 -->
      <g transform="translate(44.2375 250.209741) scale(0.1 -0.1)">
       <use xlink:href="#DejaVuSans-30"/>
      </g>
     </g>
    </g>
    <g id="ytick_3">
     <g id="line2d_9">
      <g>
       <use xlink:href="#m2dabcb97f3" x="57.6" y="214.3885" style="stroke: #000000; stroke-width: 0.8"/>
      </g>
     </g>
     <g id="text_10">
      <!-- 1 -->
      <g transform="translate(44.2375 218.187719) scale(0.1 -0.1)">
       <use xlink:href="#DejaVuSans-31"/>
      </g>
     </g>
    </g>
    <g id="ytick_4">
     <g id="line2d_10">
      <g>
       <use xlink:href="#m2dabcb97f3" x="57.6" y="182.366478" style="stroke: #000000; stroke-width: 0.8"/>
      </g>
     </g>
     <g id="text_11">
      <!-- 2 -->
      <g transform="translate(44.2375 186.165696) scale(0.1 -0.1)">
       <use xlink:href="#DejaVuSans-32"/>
      </g>
     </g>
    </g>
    <g id="ytick_5">
     <g id="line2d_11">
      <g>
       <use xlink:href="#m2dabcb97f3" x="57.6" y="150.344455" style="stroke: #000000; stroke-width: 0.8"/>
      </g>
     </g>
     <g id="text_12">
      <!-- 3 -->
      <g transform="translate(44.2375 154.143674) scale(0.1 -0.1)">
       <defs>
        <path id="DejaVuSans-33" d="M 2597 2516 
Q 3050 2419 3304 2112 
Q 3559 1806 3559 1356 
Q 3559 666 3084 287 
Q 2609 -91 1734 -91 
Q 1441 -91 1130 -33 
Q 819 25 488 141 
L 488 750 
Q 750 597 1062 519 
Q 1375 441 1716 441 
Q 2309 441 2620 675 
Q 2931 909 2931 1356 
Q 2931 1769 2642 2001 
Q 2353 2234 1838 2234 
L 1294 2234 
L 1294 2753 
L 1863 2753 
Q 2328 2753 2575 2939 
Q 2822 3125 2822 3475 
Q 2822 3834 2567 4026 
Q 2313 4219 1838 4219 
Q 1578 4219 1281 4162 
Q 984 4106 628 3988 
L 628 4550 
Q 988 4650 1302 4700 
Q 1616 4750 1894 4750 
Q 2613 4750 3031 4423 
Q 3450 4097 3450 3541 
Q 3450 3153 3228 2886 
Q 3006 2619 2597 2516 
z
" transform="scale(0.015625)"/>
       </defs>
       <use xlink:href="#DejaVuSans-33"/>
      </g>
     </g>
    </g>
    <g id="ytick_6">
     <g id="line2d_12">
      <g>
       <use xlink:href="#m2dabcb97f3" x="57.6" y="118.322432" style="stroke: #000000; stroke-width: 0.8"/>
      </g>
     </g>
     <g id="text_13">
      <!-- 4 -->
      <g transform="translate(44.2375 122.121651) scale(0.1 -0.1)">
       <use xlink:href="#DejaVuSans-34"/>
      </g>
     </g>
    </g>
    <g id="ytick_7">
     <g id="line2d_13">
      <g>
       <use xlink:href="#m2dabcb97f3" x="57.6" y="86.30041" style="stroke: #000000; stroke-width: 0.8"/>
      </g>
     </g>
     <g id="text_14">
      <!-- 5 -->
      <g transform="translate(44.2375 90.099629) scale(0.1 -0.1)">
       <defs>
        <path id="DejaVuSans-35" d="M 691 4666 
L 3169 4666 
L 3169 4134 
L 1269 4134 
L 1269 2991 
Q 1406 3038 1543 3061 
Q 1681 3084 1819 3084 
Q 2600 3084 3056 2656 
Q 3513 2228 3513 1497 
Q 3513 744 3044 326 
Q 2575 -91 1722 -91 
Q 1428 -91 1123 -41 
Q 819 9 494 109 
L 494 744 
Q 775 591 1075 516 
Q 1375 441 1709 441 
Q 2250 441 2565 725 
Q 2881 1009 2881 1497 
Q 2881 1984 2565 2268 
Q 2250 2553 1709 2553 
Q 1456 2553 1204 2497 
Q 953 2441 691 2322 
L 691 4666 
z
" transform="scale(0.015625)"/>
       </defs>
       <use xlink:href="#DejaVuSans-35"/>
      </g>
     </g>
    </g>
    <g id="ytick_8">
     <g id="line2d_14">
      <g>
       <use xlink:href="#m2dabcb97f3" x="57.6" y="54.278387" style="stroke: #000000; stroke-width: 0.8"/>
      </g>
     </g>
     <g id="text_15">
      <!-- 6 -->
      <g transform="translate(44.2375 58.077606) scale(0.1 -0.1)">
       <use xlink:href="#DejaVuSans-36"/>
      </g>
     </g>
    </g>
    <g id="text_16">
     <!-- Значения ряда -->
     <g transform="translate(29.778125 213.914719) rotate(-90) scale(0.1 -0.1)">
      <defs>
       <path id="DejaVuSans-417" d="M 1828 4750 
Q 2597 4750 3084 4423 
Q 3572 4097 3572 3541 
Q 3572 3153 3350 2886 
Q 3128 2619 2719 2516 
Q 3172 2419 3426 2112 
Q 3681 1806 3681 1356 
Q 3681 638 3126 273 
Q 2572 -91 1828 -91 
Q 1447 -91 1003 12 
Q 559 116 422 203 
L 422 853 
Q 900 575 1164 508 
Q 1428 441 1816 441 
Q 2403 441 2728 666 
Q 3053 891 3053 1356 
Q 3053 1769 2764 2001 
Q 2475 2234 1866 2234 
L 1228 2234 
L 1228 2753 
L 1891 2753 
Q 2450 2753 2697 2939 
Q 2944 3125 2944 3475 
Q 2944 3834 2689 4026 
Q 2434 4219 1816 4219 
Q 1397 4219 1253 4181 
Q 1109 4144 469 3903 
L 469 4519 
Q 822 4644 1190 4697 
Q 1559 4750 1828 4750 
z
" transform="scale(0.015625)"/>
       <path id="DejaVuSans-430" d="M 2194 1759 
Q 1497 1759 1228 1600 
Q 959 1441 959 1056 
Q 959 750 1161 570 
Q 1363 391 1709 391 
Q 2188 391 2477 730 
Q 2766 1069 2766 1631 
L 2766 1759 
L 2194 1759 
z
M 3341 1997 
L 3341 0 
L 2766 0 
L 2766 531 
Q 2569 213 2275 61 
Q 1981 -91 1556 -91 
Q 1019 -91 701 211 
Q 384 513 384 1019 
Q 384 1609 779 1909 
Q 1175 2209 1959 2209 
L 2766 2209 
L 2766 2266 
Q 2766 2663 2505 2880 
Q 2244 3097 1772 3097 
Q 1472 3097 1187 3025 
Q 903 2953 641 2809 
L 641 3341 
Q 956 3463 1253 3523 
Q 1550 3584 1831 3584 
Q 2591 3584 2966 3190 
Q 3341 2797 3341 1997 
z
" transform="scale(0.015625)"/>
       <path id="DejaVuSans-447" d="M 2625 0 
L 2625 1472 
L 1553 1472 
Q 1075 1472 756 1769 
Q 469 2038 469 2613 
L 469 3500 
L 1044 3500 
L 1044 2666 
Q 1044 2300 1206 2116 
Q 1372 1931 1697 1931 
L 2625 1931 
L 2625 3500 
L 3200 3500 
L 3200 0 
L 2625 0 
z
" transform="scale(0.015625)"/>
       <path id="DejaVuSans-44f" d="M 1181 2491 
Q 1181 2231 1381 2084 
Q 1581 1938 1953 1938 
L 2728 1938 
L 2728 3041 
L 1953 3041 
Q 1581 3041 1381 2897 
Q 1181 2753 1181 2491 
z
M 363 0 
L 1431 1534 
Q 1069 1616 828 1830 
Q 588 2044 588 2491 
Q 588 2997 923 3248 
Q 1259 3500 1938 3500 
L 3306 3500 
L 3306 0 
L 2728 0 
L 2728 1478 
L 2013 1478 
L 981 0 
L 363 0 
z
" transform="scale(0.015625)"/>
       <path id="DejaVuSans-434" d="M 1384 459 
L 3053 459 
L 3053 3041 
L 1844 3041 
L 1844 2603 
Q 1844 1316 1475 628 
L 1384 459 
z
M 550 459 
Q 834 584 959 850 
Q 1266 1509 1266 2838 
L 1266 3500 
L 3631 3500 
L 3631 459 
L 4091 459 
L 4091 -884 
L 3631 -884 
L 3631 0 
L 794 0 
L 794 -884 
L 334 -884 
L 334 459 
L 550 459 
z
" transform="scale(0.015625)"/>
      </defs>
      <use xlink:href="#DejaVuSans-417"/>
      <use xlink:href="#DejaVuSans-43d" x="64.111328"/>
      <use xlink:href="#DejaVuSans-430" x="129.492188"/>
      <use xlink:href="#DejaVuSans-447" x="190.771484"/>
      <use xlink:href="#DejaVuSans-435" x="249.853516"/>
      <use xlink:href="#DejaVuSans-43d" x="311.376953"/>
      <use xlink:href="#DejaVuSans-438" x="376.757812"/>
      <use xlink:href="#DejaVuSans-44f" x="441.748047"/>
      <use xlink:href="#DejaVuSans-20" x="501.904297"/>
      <use xlink:href="#DejaVuSans-440" x="533.691406"/>
      <use xlink:href="#DejaVuSans-44f" x="597.167969"/>
      <use xlink:href="#DejaVuSans-434" x="657.324219"/>
      <use xlink:href="#DejaVuSans-430" x="726.464844"/>
     </g>
    </g>
   </g>
   <g id="line2d_15">
    <path d="M 73.832727 94.755664 
L 74.156734 53.568 
L 74.48074 246.590639 
L 74.804747 263.568286 
L 75.128753 159.916601 
L 75.45276 151.230083 
L 75.776766 214.213811 
L 76.100773 223.503956 
L 76.42478 191.344591 
L 76.748786 195.31493 
L 77.072793 213.260488 
L 77.396799 220.655903 
L 77.720806 211.092109 
L 78.044812 216.211881 
L 78.368819 230.929603 
L 78.692825 233.717861 
L 79.016832 232.763892 
L 79.340838 225.955372 
L 79.664845 226.968254 
L 80.312858 236.452581 
L 80.636864 239.130393 
L 80.960871 250.975528 
L 81.284878 238.008095 
L 81.608884 232.3927 
L 81.932891 235.860977 
L 82.580904 246.712936 
L 83.228917 236.014759 
L 83.552923 237.514966 
L 83.87693 240.891338 
L 84.200936 241.58438 
L 84.524943 238.348227 
L 84.848949 246.363632 
L 85.496962 236.116195 
L 85.820969 239.289533 
L 86.144976 244.515869 
L 86.468982 236.031387 
L 86.792989 237.959413 
L 87.116995 263.043703 
L 87.441002 261.266917 
L 87.765008 239.19791 
L 88.089015 237.326023 
L 88.413021 250.978413 
L 88.737028 254.994435 
L 89.061034 245.944628 
L 89.385041 249.990213 
L 90.033054 247.552683 
L 90.35706 251.606744 
L 90.681067 254.232066 
L 91.005073 262.042949 
L 91.32908 259.636726 
L 91.653087 261.100321 
L 91.977093 260.635137 
L 92.3011 255.98802 
L 92.625106 253.227112 
L 92.949113 252.598602 
L 93.273119 247.227442 
L 93.597126 244.446538 
L 94.245139 252.689237 
L 94.569145 248.310233 
L 94.893152 248.273961 
L 95.217158 249.609936 
L 95.541165 253.680595 
L 96.189178 244.296779 
L 96.513185 241.109935 
L 96.837191 229.677653 
L 97.161198 226.938506 
L 97.485204 228.538814 
L 97.809211 225.355393 
L 98.133217 223.321701 
L 98.457224 217.819544 
L 98.78123 221.991106 
L 99.105237 223.77286 
L 99.429243 226.352321 
L 99.75325 223.03079 
L 100.077256 222.05173 
L 100.401263 211.837701 
L 100.725269 212.07075 
L 101.049276 215.16108 
L 101.373283 224.837424 
L 102.021296 211.573816 
L 102.345302 208.907939 
L 102.669309 223.173723 
L 102.993315 225.15385 
L 103.317322 225.706276 
L 103.641328 236.154483 
L 103.965335 230.900193 
L 104.289341 211.586588 
L 104.613348 217.246541 
L 104.937354 225.25944 
L 105.261361 227.549821 
L 105.909374 236.780442 
L 106.233381 228.026397 
L 106.557387 227.947803 
L 106.881394 233.466301 
L 107.2054 219.802961 
L 107.529407 226.459049 
L 107.853413 236.074452 
L 108.17742 225.028442 
L 108.825433 245.858047 
L 109.149439 247.257134 
L 109.473446 249.926259 
L 109.797452 260.65193 
L 110.121459 257.798168 
L 110.445465 249.214423 
L 110.769472 254.849503 
L 111.093478 253.445332 
L 111.741492 260.732273 
L 113.361524 238.878119 
L 113.685531 238.463833 
L 114.333544 249.298762 
L 114.65755 247.664094 
L 114.981557 242.57388 
L 115.305563 251.280115 
L 115.62957 246.342847 
L 115.953576 248.921387 
L 116.277583 241.310629 
L 116.60159 239.510797 
L 116.925596 239.182196 
L 117.249603 238.354632 
L 117.573609 233.990859 
L 117.897616 235.313843 
L 118.221622 235.124573 
L 118.545629 241.828861 
L 118.869635 242.924582 
L 119.193642 232.439318 
L 119.517648 240.270236 
L 119.841655 245.311248 
L 120.165661 242.473571 
L 120.489668 233.136118 
L 120.813674 244.073584 
L 121.461688 248.627386 
L 121.785694 246.787592 
L 122.109701 223.854974 
L 122.433707 224.735822 
L 122.757714 233.6354 
L 123.08172 235.626412 
L 123.405727 247.882651 
L 123.729733 246.10656 
L 124.05374 242.729069 
L 124.377746 254.441888 
L 124.701753 259.852159 
L 125.025759 257.788563 
L 125.349766 251.75215 
L 125.673772 238.096804 
L 125.997779 243.990411 
L 126.321786 255.496703 
L 126.645792 244.245952 
L 126.969799 244.218834 
L 127.293805 244.853657 
L 127.617812 239.910193 
L 127.941818 231.991181 
L 128.265825 232.645769 
L 128.589831 229.858126 
L 128.913838 230.243168 
L 129.237844 232.824116 
L 129.561851 243.180629 
L 129.885857 232.1412 
L 130.209864 229.563533 
L 130.857877 248.597324 
L 131.181884 246.185757 
L 131.50589 235.880478 
L 131.829897 230.011227 
L 132.153903 234.232351 
L 132.47791 230.986957 
L 133.125923 261.519558 
L 133.449929 258.005643 
L 133.773936 246.378271 
L 134.097942 270.775158 
L 134.421949 275.841936 
L 134.745955 255.340917 
L 135.069962 249.350304 
L 135.393968 262.661599 
L 135.717975 264.961972 
L 136.041981 247.047079 
L 136.365988 240.303302 
L 136.689995 249.962969 
L 137.014001 254.029183 
L 137.662014 238.045687 
L 137.986021 238.486247 
L 138.310027 236.863592 
L 139.282047 239.311395 
L 139.606053 243.141378 
L 139.93006 251.869455 
L 140.254066 255.332563 
L 140.578073 251.162489 
L 140.902079 249.25641 
L 141.226086 255.762996 
L 141.550093 250.697398 
L 141.874099 248.007065 
L 142.198106 243.842483 
L 142.522112 232.449471 
L 142.846119 237.828599 
L 143.170125 241.233134 
L 143.818138 222.877914 
L 144.142145 227.786514 
L 144.466151 220.882605 
L 144.790158 219.416387 
L 145.114164 213.77717 
L 145.438171 197.237426 
L 146.086184 212.978427 
L 146.410191 206.775237 
L 146.734197 205.904288 
L 147.058204 215.743756 
L 147.38221 212.156101 
L 147.706217 200.529263 
L 148.030223 195.309435 
L 148.35423 196.533195 
L 148.678236 204.763329 
L 149.002243 202.126443 
L 149.650256 211.950326 
L 149.974262 210.462045 
L 150.622275 192.330036 
L 150.946282 193.610642 
L 151.270289 199.179422 
L 151.594295 195.054047 
L 151.918302 196.553787 
L 152.242308 200.836451 
L 152.566315 201.154821 
L 153.538334 229.340404 
L 153.862341 231.292302 
L 154.186347 231.150051 
L 154.83436 223.401226 
L 155.482373 231.638257 
L 156.130386 223.353637 
L 157.102406 244.503021 
L 157.426413 240.421434 
L 157.750419 231.463291 
L 158.074426 234.508615 
L 158.398432 246.249005 
L 158.722439 246.468093 
L 159.046445 245.575694 
L 159.694458 256.811218 
L 160.018465 244.487071 
L 160.666478 260.802846 
L 160.990484 248.666455 
L 161.314491 241.281613 
L 161.962504 267.794179 
L 162.286511 252.887221 
L 162.610517 243.822272 
L 162.934524 259.70281 
L 163.25853 260.465312 
L 163.582537 262.139187 
L 163.906543 253.246108 
L 164.23055 237.461449 
L 164.554556 241.483556 
L 165.202569 251.563959 
L 165.526576 245.681742 
L 165.850582 243.58438 
L 166.174589 247.685306 
L 166.498596 244.132188 
L 166.822602 242.292084 
L 167.146609 255.248995 
L 167.470615 253.691469 
L 167.794622 239.151036 
L 168.118628 239.880119 
L 168.442635 243.121996 
L 168.766641 236.451719 
L 169.090648 234.668657 
L 169.738661 225.417766 
L 170.062667 228.816155 
L 170.386674 234.067886 
L 170.71068 226.672271 
L 171.034687 224.714725 
L 171.358694 241.725625 
L 171.6827 239.404031 
L 172.330713 215.56339 
L 172.978726 235.305031 
L 173.302733 235.030326 
L 173.950746 221.011261 
L 174.274752 224.910328 
L 174.598759 234.947802 
L 174.922765 232.882843 
L 175.246772 227.684358 
L 175.570778 240.971071 
L 175.894785 246.41142 
L 176.218792 248.837084 
L 176.542798 249.535054 
L 176.866805 237.007375 
L 177.190811 235.140685 
L 177.838824 238.170193 
L 178.162831 240.79634 
L 178.486837 235.173478 
L 178.810844 235.54791 
L 179.13485 247.279374 
L 179.458857 249.106486 
L 179.782863 248.305952 
L 180.10687 235.019007 
L 180.430876 242.140319 
L 180.754883 251.759978 
L 181.402896 225.558736 
L 182.050909 236.922015 
L 182.698922 223.53446 
L 183.022929 222.903072 
L 183.346935 218.340566 
L 183.670942 204.383729 
L 183.994948 206.711593 
L 184.318955 214.010204 
L 184.642961 214.648907 
L 184.966968 207.088236 
L 185.614981 226.393674 
L 185.938987 227.652676 
L 186.262994 222.49939 
L 186.587001 227.51053 
L 186.911007 238.041906 
L 187.235014 241.346268 
L 187.55902 230.834087 
L 187.883027 245.481319 
L 188.207033 246.523964 
L 188.53104 238.236849 
L 188.855046 234.012403 
L 189.179053 242.507255 
L 189.503059 245.771833 
L 189.827066 237.913489 
L 190.151072 236.56816 
L 190.475079 251.115812 
L 190.799085 255.022986 
L 191.123092 247.32962 
L 191.447099 243.242369 
L 191.771105 247.476847 
L 192.095112 244.749825 
L 192.419118 228.279998 
L 192.743125 237.280689 
L 193.067131 241.183252 
L 193.391138 237.553606 
L 193.715144 229.186668 
L 194.039151 227.289754 
L 194.363157 236.467869 
L 194.687164 237.934698 
L 195.01117 237.781149 
L 195.335177 234.754898 
L 195.659183 237.032465 
L 195.98319 238.375555 
L 196.307197 246.297501 
L 196.631203 247.219209 
L 196.95521 239.183033 
L 197.279216 238.94779 
L 197.603223 229.081264 
L 197.927229 232.217556 
L 198.251236 244.749534 
L 198.575242 248.578525 
L 198.899249 241.024 
L 199.223255 243.516578 
L 199.547262 245.104129 
L 199.871268 250.789694 
L 200.195275 254.329916 
L 200.519281 245.492395 
L 200.843288 240.874349 
L 201.167295 240.295257 
L 201.491301 242.883353 
L 201.815308 251.586386 
L 202.463321 227.327215 
L 202.787327 232.569147 
L 203.111334 244.268577 
L 203.43534 245.9022 
L 203.759347 242.672961 
L 204.083353 236.653457 
L 204.40736 247.903408 
L 204.731366 242.05683 
L 205.055373 224.639804 
L 205.379379 222.714889 
L 205.703386 226.596454 
L 206.027392 245.230422 
L 206.351399 248.627036 
L 206.675406 235.484424 
L 206.999412 231.681086 
L 207.647425 253.925461 
L 207.971432 253.721391 
L 208.619445 250.938069 
L 209.267458 244.992103 
L 209.591464 235.612486 
L 210.239477 247.792419 
L 210.563484 237.850558 
L 210.88749 240.221071 
L 211.211497 251.630446 
L 211.535504 243.293845 
L 211.85951 250.359841 
L 212.183517 261.624663 
L 212.507523 262.002637 
L 212.83153 247.818491 
L 213.155536 249.15831 
L 213.479543 253.884625 
L 213.803549 241.851812 
L 214.127556 234.820105 
L 214.451562 248.39837 
L 214.775569 245.723256 
L 215.099575 233.911769 
L 215.423582 241.08868 
L 215.747588 239.294497 
L 216.071595 236.841923 
L 216.395602 250.655534 
L 216.719608 250.613308 
L 217.043615 235.07879 
L 217.367621 233.142269 
L 217.691628 241.802878 
L 218.015634 229.175539 
L 218.663647 229.156401 
L 218.987654 217.477624 
L 219.31166 223.028916 
L 219.635667 222.046444 
L 219.959673 223.789934 
L 220.28368 227.910429 
L 220.607686 218.532926 
L 221.2557 205.18595 
L 221.579706 196.142568 
L 221.903713 211.760619 
L 222.227719 218.158367 
L 222.551726 208.357982 
L 222.875732 204.588715 
L 223.199739 211.465372 
L 223.847752 232.873825 
L 224.171758 226.603091 
L 224.495765 225.071842 
L 224.819771 226.811981 
L 225.143778 218.592105 
L 225.467784 217.371968 
L 225.791791 215.379459 
L 226.115797 227.004091 
L 226.439804 229.221455 
L 226.763811 225.064309 
L 227.087817 227.145611 
L 227.411824 218.47741 
L 227.73583 217.953184 
L 228.059837 224.491694 
L 228.383843 223.372679 
L 228.70785 216.50549 
L 229.031856 215.611575 
L 229.355863 218.426303 
L 229.679869 224.54372 
L 230.003876 234.493305 
L 230.327882 236.064289 
L 230.651889 243.828588 
L 230.975895 244.011355 
L 231.299902 245.108394 
L 231.947915 247.96858 
L 232.271922 248.644626 
L 232.595928 245.242823 
L 232.919935 256.239259 
L 233.243941 260.411301 
L 233.567948 256.204265 
L 233.891954 260.57408 
L 234.215961 262.002682 
L 234.539967 247.838032 
L 234.863974 251.420667 
L 235.18798 262.831675 
L 235.511987 251.995505 
L 235.835993 237.380543 
L 236.16 247.564074 
L 236.484007 253.384865 
L 236.808013 252.257967 
L 237.13202 249.659751 
L 237.456026 249.127135 
L 237.780033 260.068164 
L 238.104039 263.772626 
L 238.428046 255.586642 
L 238.752052 262.804059 
L 239.076059 264.748927 
L 239.400065 264.638942 
L 239.724072 269.764478 
L 240.048078 267.130221 
L 240.372085 261.932563 
L 240.696091 251.348282 
L 241.020098 253.943482 
L 241.344105 271.639939 
L 241.668111 257.42998 
L 241.992118 251.326247 
L 242.316124 260.003901 
L 242.640131 256.593508 
L 242.964137 241.599892 
L 243.288144 236.115816 
L 243.61215 240.6866 
L 243.936157 241.845184 
L 244.260163 241.248835 
L 244.908176 258.309312 
L 245.232183 256.006692 
L 245.556189 252.184056 
L 245.880196 254.570745 
L 246.204203 247.776324 
L 246.528209 249.775421 
L 246.852216 256.686429 
L 247.500229 240.031907 
L 248.148242 254.056028 
L 248.472248 250.780131 
L 248.796255 242.627512 
L 249.120261 249.877156 
L 249.444268 260.197766 
L 249.768274 249.477637 
L 250.092281 249.097496 
L 250.416287 257.422602 
L 251.0643 263.806137 
L 251.712314 242.491235 
L 252.360327 260.84886 
L 252.684333 253.931184 
L 253.00834 255.829979 
L 253.332346 263.628732 
L 253.656353 265.526501 
L 253.980359 259.241073 
L 254.304366 256.791378 
L 254.628372 260.235892 
L 254.952379 255.147581 
L 255.276385 261.989982 
L 255.600392 261.213071 
L 255.924398 253.442362 
L 256.248405 257.168321 
L 256.572412 262.778957 
L 256.896418 260.008101 
L 257.220425 253.637181 
L 257.544431 254.767657 
L 257.868438 264.10165 
L 258.192444 258.563748 
L 258.516451 258.185377 
L 258.840457 262.68601 
L 259.164464 264.249721 
L 259.48847 259.703141 
L 259.812477 264.230946 
L 260.136483 266.450796 
L 260.46049 256.796572 
L 260.784496 259.880376 
L 261.108503 264.682662 
L 261.43251 262.697702 
L 261.756516 263.205695 
L 262.080523 261.105209 
L 262.404529 261.654895 
L 262.728536 255.862404 
L 263.052542 246.76439 
L 263.376549 253.948482 
L 263.700555 257.921175 
L 264.024562 254.009633 
L 264.348568 257.41471 
L 264.672575 256.952503 
L 264.996581 261.027999 
L 265.320588 270.90597 
L 265.644594 272.655984 
L 265.968601 262.132361 
L 266.292608 258.601652 
L 266.616614 274.007455 
L 266.940621 281.617008 
L 267.264627 277.756934 
L 267.588634 270.773217 
L 267.91264 274.627754 
L 268.560653 268.558941 
L 268.88466 274.100466 
L 269.208666 270.483112 
L 269.532673 264.922847 
L 269.856679 272.60281 
L 270.180686 265.826766 
L 270.504692 276.821387 
L 270.828699 275.38282 
L 271.152705 255.931058 
L 271.476712 246.026151 
L 271.800719 268.286336 
L 272.124725 269.238447 
L 272.448732 265.623816 
L 272.772738 256.70832 
L 273.096745 263.862927 
L 273.420751 265.308702 
L 273.744758 262.069741 
L 274.716777 234.775173 
L 275.040784 235.107044 
L 275.36479 241.36182 
L 275.688797 240.514631 
L 276.012803 250.395105 
L 276.33681 252.546288 
L 276.984823 232.710747 
L 277.956843 249.443299 
L 278.280849 247.005444 
L 278.604856 251.280073 
L 278.928862 253.385115 
L 279.252869 258.382255 
L 279.576875 249.767562 
L 279.900882 230.71455 
L 280.224888 234.914707 
L 280.548895 248.373898 
L 280.872901 251.310894 
L 281.196908 237.052898 
L 281.520915 237.742264 
L 281.844921 251.932402 
L 282.168928 232.771281 
L 282.492934 229.806882 
L 282.816941 236.799836 
L 283.140947 231.304242 
L 283.464954 227.986841 
L 283.78896 242.867662 
L 284.112967 249.175386 
L 284.436973 246.578205 
L 284.76098 256.398645 
L 285.084986 246.687063 
L 285.732999 264.191277 
L 286.057006 261.319715 
L 286.381013 256.420294 
L 286.705019 257.098089 
L 287.029026 257.27415 
L 287.353032 253.389576 
L 287.677039 254.587689 
L 288.001045 252.04741 
L 288.325052 247.977256 
L 288.649058 249.088273 
L 288.973065 259.062713 
L 289.297071 254.067881 
L 289.621078 245.413048 
L 289.945084 246.30901 
L 290.269091 240.311454 
L 290.593097 228.818031 
L 290.917104 222.927084 
L 291.565117 218.569727 
L 291.889124 215.985194 
L 292.21313 220.383827 
L 292.537137 214.159952 
L 292.861143 214.909009 
L 293.18515 216.224311 
L 293.509156 227.30422 
L 293.833163 229.396367 
L 294.157169 210.382868 
L 294.481176 212.774747 
L 294.805182 231.430473 
L 295.129189 231.268492 
L 295.453195 220.630988 
L 295.777202 221.885221 
L 296.101208 226.29498 
L 296.425215 225.021614 
L 296.749222 216.513586 
L 297.073228 217.225899 
L 297.397235 220.660776 
L 297.721241 233.359197 
L 298.369254 206.456956 
L 298.693261 224.343546 
L 299.017267 231.461819 
L 299.341274 228.222824 
L 299.66528 221.575521 
L 300.313293 239.471265 
L 301.60932 224.131701 
L 301.933326 239.628098 
L 302.257333 249.091165 
L 302.581339 249.366206 
L 302.905346 241.933346 
L 303.229352 239.067274 
L 303.553359 242.440342 
L 303.877365 230.051188 
L 304.525378 250.066648 
L 304.849385 250.692601 
L 305.497398 229.528093 
L 305.821404 240.808029 
L 306.145411 242.744004 
L 306.469418 246.087182 
L 306.793424 231.256158 
L 307.117431 227.910077 
L 307.441437 234.063764 
L 308.08945 232.128074 
L 308.413457 233.36108 
L 308.737463 239.655784 
L 309.06147 248.722709 
L 309.385476 250.800337 
L 309.709483 242.810752 
L 310.357496 252.020359 
L 310.681502 249.757791 
L 311.005509 252.146193 
L 311.329516 255.709228 
L 311.977529 241.476556 
L 312.301535 243.066897 
L 312.625542 259.27285 
L 312.949548 264.04734 
L 313.273555 247.971157 
L 313.597561 249.388818 
L 313.921568 260.723338 
L 314.245574 263.088101 
L 314.893587 251.900067 
L 315.217594 250.99305 
L 315.5416 257.286811 
L 315.865607 272.275669 
L 316.189614 263.466593 
L 316.51362 250.061549 
L 316.837627 247.420786 
L 317.161633 261.862404 
L 317.48564 270.786823 
L 317.809646 265.9888 
L 318.133653 264.4927 
L 318.457659 279.365718 
L 319.429679 250.13984 
L 319.753685 276.577922 
L 320.077692 282.075253 
L 320.401698 272.880883 
L 320.725705 268.797354 
L 321.049711 277.262254 
L 321.373718 276.342215 
L 321.697725 280.105319 
L 322.021731 277.870482 
L 322.345738 261.377475 
L 322.669744 259.336172 
L 322.993751 269.299016 
L 323.641764 249.890111 
L 323.96577 245.289001 
L 324.289777 256.141275 
L 324.613783 252.847246 
L 324.93779 244.576111 
L 325.261796 246.483976 
L 325.909809 266.20925 
L 326.233816 256.762607 
L 326.557823 255.644276 
L 326.881829 260.252425 
L 327.205836 251.440039 
L 327.853849 261.359984 
L 328.501862 240.955739 
L 328.825868 238.900646 
L 329.149875 245.614882 
L 329.473881 246.117021 
L 329.797888 241.838301 
L 330.121894 244.295624 
L 330.445901 259.932059 
L 330.769907 253.249058 
L 331.093914 233.941663 
L 331.741927 241.071209 
L 332.065934 246.726627 
L 332.38994 230.359553 
L 332.713947 222.47569 
L 333.037953 227.540845 
L 333.36196 239.195945 
L 333.685966 239.397839 
L 334.009973 225.752001 
L 334.333979 224.905286 
L 334.657986 224.414251 
L 334.981992 221.502597 
L 335.630005 227.442686 
L 335.954012 224.504401 
L 336.278019 231.90654 
L 336.602025 231.650652 
L 336.926032 236.798808 
L 337.250038 230.535459 
L 337.574045 229.004942 
L 337.898051 235.638515 
L 338.222058 235.278231 
L 338.546064 225.62998 
L 338.870071 230.854111 
L 339.194077 248.372005 
L 339.518084 241.92625 
L 339.84209 229.982927 
L 340.166097 232.416088 
L 340.490103 226.345123 
L 340.81411 224.563398 
L 341.462123 248.67943 
L 341.78613 247.369202 
L 342.434143 221.945009 
L 342.758149 235.43433 
L 343.082156 243.183937 
L 343.406162 234.438858 
L 344.054175 244.537115 
L 344.378182 253.773351 
L 344.702188 243.461674 
L 345.674208 231.734524 
L 345.998214 233.196457 
L 346.646228 222.557396 
L 346.970234 221.960676 
L 347.294241 231.970709 
L 347.618247 224.04843 
L 347.942254 209.991644 
L 348.590267 225.252938 
L 348.914273 223.73954 
L 349.23828 215.70335 
L 349.562286 237.890196 
L 349.886293 247.224375 
L 350.210299 232.975967 
L 350.534306 224.060777 
L 350.858312 233.398551 
L 351.182319 236.20776 
L 351.506326 227.361323 
L 351.830332 222.162197 
L 352.154339 219.981398 
L 352.478345 225.833947 
L 352.802352 229.28424 
L 353.126358 235.523504 
L 353.450365 226.901333 
L 353.774371 224.358694 
L 354.098378 223.726006 
L 354.422384 231.209089 
L 354.746391 226.261303 
L 355.070397 210.164241 
L 355.394404 215.464029 
L 355.71841 223.21124 
L 356.042417 223.733454 
L 356.366424 226.522458 
L 356.69043 231.63949 
L 357.014437 233.442405 
L 357.338443 222.308403 
L 357.66245 229.165327 
L 357.986456 232.983961 
L 358.310463 224.482325 
L 358.634469 229.992778 
L 358.958476 240.381063 
L 359.282482 234.627693 
L 359.606489 224.318452 
L 360.254502 245.439641 
L 360.902515 242.042666 
L 361.226522 258.811861 
L 361.550528 261.734642 
L 362.198541 250.540007 
L 362.522548 258.489487 
L 362.846554 259.502506 
L 363.170561 248.797605 
L 363.494567 245.77556 
L 363.818574 254.44407 
L 364.14258 272.680476 
L 364.466587 256.161973 
L 364.790593 261.92255 
L 365.1146 278.904357 
L 365.762613 253.438053 
L 366.086619 252.05409 
L 366.410626 256.223029 
L 366.734633 250.263004 
L 367.058639 232.345956 
L 367.382646 220.884717 
L 367.706652 239.659526 
L 368.030659 245.707235 
L 368.354665 245.101309 
L 368.678672 246.972824 
L 369.002678 240.679495 
L 369.326685 238.022869 
L 369.650691 242.50305 
L 369.974698 245.153722 
L 370.298704 254.64868 
L 370.622711 245.631705 
L 370.946717 254.787146 
L 371.270724 259.453381 
L 371.594731 248.69934 
L 372.242744 262.820471 
L 372.56675 258.676235 
L 372.890757 246.75942 
L 373.214763 253.490155 
L 373.53877 252.366937 
L 373.862776 258.252358 
L 374.186783 254.754231 
L 374.834796 273.064431 
L 375.158802 285.461641 
L 375.806815 278.663439 
L 376.454829 295.488 
L 377.102842 269.246536 
L 377.426848 274.173763 
L 377.750855 281.98835 
L 378.074861 275.810656 
L 378.398868 278.585938 
L 378.722874 288.50699 
L 379.046881 282.985605 
L 379.370887 283.43578 
L 379.694894 280.625315 
L 380.0189 291.036264 
L 380.342907 290.443009 
L 380.666913 290.437825 
L 380.99092 291.132717 
L 381.314927 282.860137 
L 381.638933 286.782826 
L 381.96294 282.103658 
L 382.286946 267.775325 
L 382.610953 267.254241 
L 382.934959 272.561966 
L 383.258966 275.345282 
L 383.582972 271.173956 
L 383.906979 278.055925 
L 384.230985 288.732204 
L 384.554992 286.452318 
L 384.878998 285.522253 
L 385.203005 289.472004 
L 385.527011 288.437969 
L 386.175024 273.970526 
L 386.499031 271.235111 
L 386.823038 271.770721 
L 387.147044 267.853678 
L 387.795057 255.13883 
L 388.119064 255.124303 
L 388.44307 268.909486 
L 389.091083 245.369421 
L 389.41509 249.002562 
L 389.739096 254.235763 
L 390.063103 255.612858 
L 390.387109 257.870161 
L 390.711116 258.724438 
L 391.035122 254.784683 
L 391.683136 268.959021 
L 392.007142 259.605076 
L 392.655155 268.953744 
L 392.979162 265.576835 
L 393.303168 253.938074 
L 393.627175 257.887907 
L 393.951181 260.430946 
L 394.275188 261.641247 
L 394.599194 266.691378 
L 394.923201 262.06327 
L 395.571214 247.978625 
L 395.89522 259.914162 
L 396.219227 256.788305 
L 396.86724 245.215894 
L 397.191247 238.631819 
L 397.515253 239.693684 
L 397.83926 240.293668 
L 398.163266 237.523696 
L 398.487273 231.874087 
L 398.487273 231.874087 
" clip-path="url(#p0a3dcc740f)" style="fill: none; stroke: #1f77b4; stroke-width: 1.5; stroke-linecap: square"/>
   </g>
   <g id="patch_3">
    <path d="M 57.6 307.584 
L 57.6 41.472 
" style="fill: none; stroke: #000000; stroke-width: 0.8; stroke-linejoin: miter; stroke-linecap: square"/>
   </g>
   <g id="patch_4">
    <path d="M 414.72 307.584 
L 414.72 41.472 
" style="fill: none; stroke: #000000; stroke-width: 0.8; stroke-linejoin: miter; stroke-linecap: square"/>
   </g>
   <g id="patch_5">
    <path d="M 57.6 307.584 
L 414.72 307.584 
" style="fill: none; stroke: #000000; stroke-width: 0.8; stroke-linejoin: miter; stroke-linecap: square"/>
   </g>
   <g id="patch_6">
    <path d="M 57.6 41.472 
L 414.72 41.472 
" style="fill: none; stroke: #000000; stroke-width: 0.8; stroke-linejoin: miter; stroke-linecap: square"/>
   </g>
  </g>
 </g>
 <defs>
  <clipPath id="p0a3dcc740f">
   <rect x="57.6" y="41.472" width="357.12" height="266.112"/>
  </clipPath>
 </defs>
</svg>
